<?xml version="1.0" encoding="UTF-8"?>
<svg width="8763px" height="2321px" viewBox="0 0 8763 2321" version="1.1" xmlns="http://www.w3.org/2000/svg" xmlns:xlink="http://www.w3.org/1999/xlink">
    <!-- Generator: Sketch 63.1 (92452) - https://sketch.com -->
    <title>Artboard</title>
    <desc>Created with Sketch.</desc>
    <defs>
        <radialGradient cx="67.5399357%" cy="-0.767088854%" fx="67.5399357%" fy="-0.767088854%" r="114.347308%" gradientTransform="translate(0.675399,-0.007671),scale(1.000000,0.892881),rotate(110.248645),scale(1.000000,0.617017),translate(-0.675399,0.007671)" id="radialGradient-1">
            <stop stop-color="#01E875" offset="0%"></stop>
            <stop stop-color="#EAD612" offset="100%"></stop>
        </radialGradient>
        <radialGradient cx="75.0568348%" cy="-5.27506808%" fx="75.0568348%" fy="-5.27506808%" r="125.353358%" gradientTransform="translate(0.750568,-0.052751),scale(0.774929,1.000000),rotate(136.255731),translate(-0.750568,0.052751)" id="radialGradient-2">
            <stop stop-color="#954486" offset="0%"></stop>
            <stop stop-color="#1F88E5" offset="100%"></stop>
        </radialGradient>
        <radialGradient cx="-1.8051763%" cy="14.6446609%" fx="-1.8051763%" fy="14.6446609%" r="137.900004%" gradientTransform="translate(-0.018052,0.146447),scale(1.000000,0.777026),rotate(41.293059),scale(1.000000,0.546735),translate(0.018052,-0.146447)" id="radialGradient-3">
            <stop stop-color="#01E677" offset="0%"></stop>
            <stop stop-color="#1F88E5" offset="100%"></stop>
        </radialGradient>
        <radialGradient cx="22.7662872%" cy="55.8780255%" fx="22.7662872%" fy="55.8780255%" r="135.472371%" gradientTransform="translate(0.227663,0.558780),scale(0.413129,1.000000),scale(1.000000,0.617017),translate(-0.227663,-0.558780)" id="radialGradient-4">
            <stop stop-color="#01E875" offset="0%"></stop>
            <stop stop-color="#EAD612" offset="100%"></stop>
        </radialGradient>
        <radialGradient cx="12.3483327%" cy="54.344945%" fx="12.3483327%" fy="54.344945%" r="162.618469%" gradientTransform="translate(0.123483,0.543449),scale(0.510023,1.000000),rotate(12.793563),translate(-0.123483,-0.543449)" id="radialGradient-5">
            <stop stop-color="#954486" offset="0%"></stop>
            <stop stop-color="#1F88E5" offset="100%"></stop>
        </radialGradient>
        <radialGradient cx="50%" cy="100%" fx="50%" fy="100%" r="146.530027%" gradientTransform="translate(0.500000,1.000000),scale(1.000000,0.682454),rotate(-90.000000),scale(1.000000,0.546735),translate(-0.500000,-1.000000)" id="radialGradient-6">
            <stop stop-color="#01E677" offset="0%"></stop>
            <stop stop-color="#1F88E5" offset="100%"></stop>
        </radialGradient>
    </defs>
    <g id="Artboard" stroke="none" stroke-width="1" fill="none" fill-rule="evenodd">
        <g id="Group-13" transform="translate(-107.000000, 480.000000)">
            <g id="Group">
                <g id="Group-12" transform="translate(607.749781, 88.951654)">
                    <path d="M485.323784,1087.45237 L907.199276,666.561143 C931.6546,642.162875 936.878874,615.179946 922.872098,585.612357 C922.872098,585.612357 1003.25465,662.944117 1001.08977,760.232589 C998.924901,857.521061 977.124494,918.614894 912.197683,983.390226 C847.270873,1048.16556 776.595185,1118.67635 776.595185,1118.67635 C748.611898,1154.55141 653.43076,1180.67463 583.347254,1149.22843 C536.624917,1128.26429 503.950427,1107.67227 485.323784,1087.45237 Z" id="Path-4" fill="url(#radialGradient-1)"></path>
                    <path d="M890.16674,213.213265 C748.539603,185.06277 663.845025,176.353556 636.083004,187.085622 C594.439973,203.183721 575.799813,201.558804 417.248834,360.071428 C311.548181,465.746512 201.606725,575.661373 87.4244634,689.816013 C48.9488727,651.34973 29.7110774,632.116588 29.7110774,632.116588 C-12.9526037,589.463227 -15.2834114,466.068685 60.0459688,390.757527 C60.0459688,390.757527 361.542779,89.333651 393.324341,57.5597772 C425.105903,25.7859034 610.444719,-55.9464504 727.066749,60.6473682 C727.066749,60.6473682 781.433413,111.502667 890.16674,213.213265 Z" id="Path-5" fill="url(#radialGradient-2)"></path>
                    <path d="M908.265425,987.801905 C1004.39231,891.814382 1069.90104,826.400621 1104.79162,791.560622 C1182.71282,700.466735 1192.57313,522.17044 1104.69608,428.184148 C1046.11138,365.526619 974.400712,293.919913 889.564072,213.364029 C737.839852,152.300492 619.758312,163.926946 535.31945,248.243392 C535.31945,248.243392 565.285888,230.334544 614.544626,279.521869 C647.383784,312.313419 753.888713,418.663941 934.059411,598.573435 C979.102319,652.829094 1000.59416,716.73729 998.534924,790.298025 C996.475692,863.858759 966.385859,929.693386 908.265425,987.801905 Z" id="Path-6" fill="url(#radialGradient-3)"></path>
                </g>
                <g id="Group-11">
                    <path d="M835.022587,423.132607 L239.423324,423.117362 C204.897561,423.116478 182.116513,438.519546 171.080178,469.326566 C171.080178,469.326566 169.057476,357.870683 239.419931,290.565559 C309.782386,223.260435 368.397121,195.424443 460.06009,195.42679 C551.72306,195.429136 651.502233,195.43169 651.502233,195.43169 C696.638566,189.802946 782.311032,238.508966 809.534818,310.229881 C827.684009,358.043824 836.179932,395.678066 835.022587,423.132607 Z" id="Path-4" fill="url(#radialGradient-4)" transform="translate(503.103416, 332.158238) rotate(-45.000000) translate(-503.103416, -332.158238) "></path>
                    <path d="M429.053792,648.825931 C509.190598,768.731765 562.852562,834.697491 590.039683,846.723109 C630.820366,864.761535 642.83682,879.073558 866.777977,879.07929 C1016.07208,879.083111 1171.35669,879.087086 1332.63181,879.091214 C1332.63181,933.435049 1332.63181,960.606967 1332.63181,960.606967 C1332.63181,1020.86616 1247.1179,1109.67106 1140.7209,1109.67106 C1140.7209,1109.67106 714.879668,1109.66016 669.990638,1109.65901 C625.101607,1109.65787 436.476947,1036.49889 436.47273,871.779177 C436.47273,871.779177 433.999751,797.461428 429.053792,648.825931 Z" id="Path-5" fill="url(#radialGradient-5)" transform="translate(880.842803, 879.248497) rotate(-45.000000) translate(-880.842803, -879.248497) "></path>
                    <path d="M736.282464,336.044166 C600.559149,336.044166 508.066165,336.044166 458.803511,336.044166 C339.392633,345.433897 206.382052,464.522644 201.976132,593.00747 C199.038851,678.664021 199.041443,779.914036 201.983907,896.757514 C265.927908,1047.04486 357.5103,1122.18853 476.731081,1122.18853 C476.731081,1122.18853 442.91451,1113.69382 442.912729,1044.14423 C442.911543,997.777833 442.907693,847.400969 442.901182,593.013637 C449.458821,522.857181 479.466998,462.503267 532.925711,411.951895 C586.384424,361.400524 654.170008,336.097948 736.282464,336.044166 Z" id="Path-6" fill="url(#radialGradient-6)" transform="translate(468.028789, 729.116350) rotate(-45.000000) translate(-468.028789, -729.116350) "></path>
                    <path d="M736.282464,336.044166 C600.559149,336.044166 508.066165,336.044166 458.803511,336.044166 C339.392633,345.433897 206.382052,464.522644 201.976132,593.00747 C199.038851,678.664021 199.041443,779.914036 201.983907,896.757514 C265.927908,1047.04486 357.5103,1122.18853 476.731081,1122.18853 C476.731081,1122.18853 442.91451,1113.69382 442.912729,1044.14423 C442.911543,997.777833 442.907693,847.400969 442.901182,593.013637 C449.458821,522.857181 479.466998,462.503267 532.925711,411.951895 C586.384424,361.400524 654.170008,336.097948 736.282464,336.044166 Z" id="Path-6" fill="url(#radialGradient-6)" transform="translate(468.028789, 729.116350) rotate(-45.000000) translate(-468.028789, -729.116350) "></path>
                </g>
            </g>
        </g>
        <path d="M2278.52928,1453 C2314.51426,1453 2348.93468,1448.70189 2381.79054,1440.10568 C2414.6464,1431.50946 2443.59084,1419.39661 2468.62387,1403.76712 C2492.87462,1389.70059 2505,1368.21005 2505,1339.2955 C2505,1318.97717 2500.11074,1302.17547 2490.33221,1288.89041 C2480.55368,1275.60535 2468.23273,1268.96282 2453.36937,1268.96282 C2443.1997,1268.96282 2433.81231,1270.72114 2425.20721,1274.23777 C2416.6021,1277.7544 2404.86787,1283.02935 2390.0045,1290.06262 C2372.01201,1299.44031 2356.75751,1306.27821 2344.24099,1310.57632 C2331.72447,1314.87443 2317.25225,1317.02348 2300.82432,1317.02348 C2257.01652,1317.02348 2223.57395,1302.95695 2200.49662,1274.82387 C2177.41929,1246.6908 2165.88063,1206.05414 2165.88063,1152.91389 C2165.88063,1099.77365 2177.41929,1059.33235 2200.49662,1031.59002 C2223.57395,1003.84768 2257.01652,989.976517 2300.82432,989.976517 C2317.25225,989.976517 2331.92005,992.320939 2344.8277,997.009785 C2357.73536,1001.69863 2372.40315,1008.34116 2388.83108,1016.93738 C2403.69444,1023.97065 2415.62425,1029.2456 2424.6205,1032.76223 C2433.61674,1036.27886 2443.1997,1038.03718 2453.36937,1038.03718 C2469.01502,1038.03718 2481.53153,1031.59002 2490.91892,1018.69569 C2500.30631,1005.80137 2505,989.195042 2505,968.876712 C2505,939.962166 2492.87462,918.080887 2468.62387,903.232877 C2443.59084,887.603392 2415.23311,875.490541 2383.55068,866.894325 C2351.86824,858.298108 2320.38138,854 2289.09009,854 C2228.85435,854 2175.65916,866.503588 2129.5045,891.510763 C2083.34985,916.517939 2047.56044,951.879648 2022.13626,997.59589 C1996.71209,1043.31213 1984,1096.25701 1984,1156.43053 C1984,1216.60404 1995.9298,1268.96282 2019.78941,1313.50685 C2043.64902,1358.05088 2077.87387,1392.43575 2122.46396,1416.66145 C2167.05405,1440.88715 2219.07583,1453 2278.52928,1453 Z M2868,1453 C2929,1453 2982.57051,1440.69178 3028.71154,1416.07534 C3074.85256,1391.4589 3110.4359,1356.6833 3135.46154,1311.74853 C3160.48718,1266.81376 3173,1213.86888 3173,1152.91389 C3173,1091.9589 3160.48718,1039.01402 3135.46154,994.079256 C3110.4359,949.144488 3074.85256,914.564253 3028.71154,890.338552 C2982.57051,866.112851 2929,854 2868,854 C2807,854 2753.42949,866.112851 2707.28846,890.338552 C2661.14744,914.564253 2625.5641,949.144488 2600.53846,994.079256 C2575.51282,1039.01402 2563,1091.9589 2563,1152.91389 C2563,1213.86888 2575.51282,1266.81376 2600.53846,1311.74853 C2625.5641,1356.6833 2661.14744,1391.4589 2707.28846,1416.07534 C2753.42949,1440.69178 2807,1453 2868,1453 Z M2868,1318 C2782,1318 2739,1262.83333 2739,1152.5 C2739,1042.16667 2782,987 2868,987 C2909.43636,987 2941.29545,1000.69385 2963.57727,1028.08156 C2985.85909,1055.46927 2997,1096.94208 2997,1152.5 C2997,1262.83333 2954,1318 2868,1318 Z M3756.91286,1451 C3784.26418,1451 3805.94986,1443.57171 3821.96992,1428.71513 C3837.98997,1413.85855 3846,1393.52849 3846,1367.72495 L3846,1367.72495 L3846,1096.78782 C3846,1015.46758 3829.19848,954.672888 3795.59544,914.403733 C3761.99239,874.134578 3710.80636,854 3642.03734,854 C3601.40111,854 3564.86757,862.210216 3532.43672,878.630648 C3500.00588,895.051081 3473.6314,918.899804 3453.31328,950.176817 L3453.31328,950.176817 L3453.31328,933.756385 C3453.31328,911.08055 3445.69398,892.509823 3430.45539,878.044204 C3415.2168,863.578585 3395.48479,856.345776 3371.25934,856.345776 C3344.68949,856.345776 3323.0038,863.774067 3306.20228,878.630648 C3289.40076,893.48723 3281,913.035363 3281,937.275049 L3281,937.275049 L3281,1367.72495 C3281,1393.52849 3289.01003,1413.85855 3305.03008,1428.71513 C3321.05014,1443.57171 3342.73582,1451 3370.08714,1451 C3397.43845,1451 3418.92877,1443.57171 3434.55809,1428.71513 C3450.18741,1413.85855 3458.00207,1393.52849 3458.00207,1367.72495 L3458.00207,1367.72495 L3458.00207,1121.41847 C3458.00207,1082.3222 3469.13797,1051.04519 3491.40975,1027.58743 C3513.68154,1004.12967 3543.18188,992.400786 3579.91079,992.400786 C3610.38797,992.400786 3632.85512,1001.39293 3647.31224,1019.37721 C3661.76936,1037.36149 3668.99793,1065.90177 3668.99793,1104.99804 L3668.99793,1104.99804 L3668.99793,1367.72495 C3668.99793,1393.52849 3676.81259,1413.85855 3692.44191,1428.71513 C3708.07123,1443.57171 3729.56155,1451 3756.91286,1451 Z M4113.4463,1449 C4138.44551,1449 4159.34328,1441.96348 4176.13962,1427.89045 C4192.93596,1413.81742 4201.33413,1393.09878 4201.33413,1365.73455 L4201.33413,1365.73455 L4201.33413,999.835674 L4283.36277,999.835674 C4336.48608,999.835674 4363.04773,977.944288 4363.04773,934.161517 C4363.04773,889.59691 4336.48608,867.314607 4283.36277,867.314607 L4283.36277,867.314607 L4201.33413,867.314607 L4201.33413,847.377809 C4201.33413,816.104401 4208.36516,791.867509 4222.42721,774.667135 C4236.48926,757.46676 4259.5354,747.69382 4291.56563,745.348315 L4291.56563,745.348315 L4322.03341,743.002809 C4367.34447,739.093633 4390,716.81133 4390,676.155899 C4390,634.718633 4363.04773,614 4309.1432,614 L4309.1432,614 L4288.05012,615.172753 L4257.58234,617.518258 C4184.9284,622.991105 4127.89897,647.227996 4086.49403,690.228933 C4045.0891,733.229869 4024.38663,792.258427 4024.38663,867.314607 L4024.38663,867.314607 L3977.51313,867.314607 C3925.17104,867.314607 3899,889.59691 3899,934.161517 C3899,977.944288 3925.17104,999.835674 3977.51313,999.835674 L3977.51313,999.835674 L4024.38663,999.835674 L4024.38663,1365.73455 C4024.38663,1393.09878 4032.78481,1413.81742 4049.58115,1427.89045 C4066.37749,1441.96348 4087.66587,1449 4113.4463,1449 Z M4511.62385,799 C4522.5841,799 4532.76147,795.476415 4542.15596,788.429245 L4542.15596,788.429245 L4685.42202,683.896226 C4710.47401,665.103774 4723,643.962264 4723,620.471698 C4723,601.679245 4715.56269,585.235849 4700.68807,571.141509 C4685.81346,557.04717 4668.59021,550 4649.01835,550 C4621.61774,550 4598.1315,563.311321 4578.55963,589.933962 L4578.55963,589.933962 L4477.56881,725.004717 C4470.52294,735.183962 4467,745.363208 4467,755.542453 C4467,767.287736 4471.30581,777.466981 4479.91743,786.080189 C4488.52905,794.693396 4499.09786,799 4511.62385,799 Z M4509.08609,1451 C4534.09272,1451 4554.99669,1443.95858 4571.79801,1429.87574 C4588.59934,1415.7929 4597,1395.05983 4597,1367.67653 L4597,1367.67653 L4597,939.323471 C4597,911.940171 4588.59934,891.207101 4571.79801,877.12426 C4554.99669,863.04142 4534.09272,856 4509.08609,856 C4484.07947,856 4462.98013,863.04142 4445.78808,877.12426 C4428.59603,891.207101 4420,911.940171 4420,939.323471 L4420,939.323471 L4420,1367.67653 C4420,1395.05983 4428.40066,1415.7929 4445.20199,1429.87574 C4462.00331,1443.95858 4483.29801,1451 4509.08609,1451 Z M4917.64901,1453 C4954.37748,1453 4986.41722,1444.79452 5013.76821,1428.38356 C5041.11921,1411.9726 5060.65563,1389.30985 5072.37748,1360.3953 L5072.37748,1360.3953 L5072.37748,1368.60078 C5072.37748,1392.82648 5079.99669,1412.55871 5095.2351,1427.79746 C5110.47351,1443.0362 5130.59603,1450.65558 5155.60265,1450.65558 C5182.17219,1450.65558 5202.88079,1443.42694 5217.72848,1428.96967 C5232.57616,1414.51239 5240,1394.38943 5240,1368.60078 L5240,1368.60078 L5240,1103.68102 C5240,1019.2818 5219.68212,956.568493 5179.04636,915.541096 C5138.4106,874.513699 5075.89404,854 4991.49669,854 C4953.2053,854 4914.32781,858.298108 4874.86424,866.894325 C4835.40066,875.490541 4801.99338,887.212655 4774.64238,902.060665 C4759.01325,910.656882 4747.68212,920.034573 4740.64901,930.193738 C4733.61589,940.352903 4730.09934,953.247228 4730.09934,968.876712 C4730.09934,988.413568 4735.17881,1004.23842 4745.33775,1016.35127 C4755.49669,1028.46412 4769.17219,1034.52055 4786.36424,1034.52055 C4798.86755,1034.52055 4814.10596,1030.22244 4832.07947,1021.62622 C4895.37748,998.181996 4943.82781,986.459883 4977.43046,986.459883 C5011.03311,986.459883 5035.06291,993.883888 5049.51987,1008.7319 C5063.97682,1023.57991 5071.2053,1047.41487 5071.2053,1080.23679 L5071.2053,1080.23679 L5071.2053,1101.33659 L5040.72848,1101.33659 C4957.89404,1101.33659 4892.64238,1106.80691 4844.97351,1117.74755 C4797.30464,1128.68819 4762.72517,1146.27136 4741.2351,1170.49706 C4719.74503,1194.72277 4709,1227.93542 4709,1270.13503 C4709,1304.5199 4718.18212,1335.77886 4736.54636,1363.91194 C4754.9106,1392.04501 4779.91722,1413.92629 4811.56623,1429.55577 C4843.21523,1445.18526 4878.57616,1453 4917.64901,1453 Z M4956.16564,1331 C4934.29243,1331 4916.12986,1324.17073 4901.67791,1310.5122 C4887.22597,1296.85366 4880,1279.09756 4880,1257.2439 C4880,1230.70732 4892.69427,1212.36585 4918.08282,1202.21951 C4943.47137,1192.07317 4987.80368,1187 5051.07975,1187 L5051.07975,1187 L5071,1187 L5071,1206.90244 C5071,1243.58537 5060.45399,1273.43902 5039.36196,1296.46341 C5018.26994,1319.4878 4990.53783,1331 4956.16564,1331 Z M6189.06226,1451 C6214.85733,1451 6235.96239,1443.96267 6252.37743,1429.88802 C6268.79248,1415.81336 6277,1395.09234 6277,1367.72495 L6277,1367.72495 L6277,1096.78782 C6277,1010.77603 6260.19412,948.808448 6226.58236,910.885069 C6192.9706,872.96169 6144.89797,854 6082.36446,854 C6040.15435,854 6002.43882,863.578585 5969.2179,882.735756 C5935.99697,901.892927 5910.39732,927.891945 5892.41894,960.732809 C5876.78556,923.200393 5854.70342,896.028487 5826.1725,879.217092 C5797.64159,862.405697 5762.66191,854 5721.23346,854 C5682.93169,854 5648.73368,861.819253 5618.63943,877.45776 C5588.54518,893.096267 5564.11803,915.772102 5545.35798,945.485265 L5545.35798,945.485265 L5545.35798,933.756385 C5545.35798,909.516699 5537.54129,890.55501 5521.90791,876.871316 C5506.27454,863.187623 5486.73281,856.345776 5463.28275,856.345776 C5438.26935,856.345776 5416.96887,863.383104 5399.38132,877.45776 C5381.79377,891.532417 5373,911.471513 5373,937.275049 L5373,937.275049 L5373,1367.72495 C5373,1395.09234 5381.59836,1415.81336 5398.79507,1429.88802 C5415.99179,1443.96267 5437.09684,1451 5462.11025,1451 C5487.12365,1451 5508.03329,1443.96267 5524.83917,1429.88802 C5541.64505,1415.81336 5550.04799,1395.09234 5550.04799,1367.72495 L5550.04799,1367.72495 L5550.04799,1121.41847 C5550.04799,1080.75835 5559.81885,1049.09037 5579.36057,1026.41454 C5598.90229,1003.7387 5625.0882,992.400786 5657.91829,992.400786 C5684.49503,992.400786 5704.23217,1000.02456 5717.1297,1015.2721 C5730.02724,1030.51965 5736.47601,1056.90963 5736.47601,1094.44204 L5736.47601,1094.44204 L5736.47601,1367.72495 C5736.47601,1395.09234 5745.07436,1415.81336 5762.27108,1429.88802 C5779.46779,1443.96267 5800.57285,1451 5825.58625,1451 C5851.38132,1451 5872.48638,1443.96267 5888.90143,1429.88802 C5905.31647,1415.81336 5913.52399,1395.09234 5913.52399,1367.72495 L5913.52399,1367.72495 L5913.52399,1121.41847 C5913.52399,1080.75835 5923.29486,1049.09037 5942.83658,1026.41454 C5962.3783,1003.7387 5988.5642,992.400786 6021.39429,992.400786 C6047.97103,992.400786 6067.70817,1000.02456 6080.60571,1015.2721 C6093.50324,1030.51965 6099.95201,1056.90963 6099.95201,1094.44204 L6099.95201,1094.44204 L6099.95201,1367.72495 C6099.95201,1395.09234 6108.55037,1415.81336 6125.74708,1429.88802 C6142.9438,1443.96267 6164.04885,1451 6189.06226,1451 Z M6691.15021,1453 C6720.83262,1453 6753.24893,1448.50652 6788.39914,1439.51957 C6823.54936,1430.53262 6854.40343,1419.00587 6880.96137,1404.93933 C6895.02146,1397.12459 6905.95708,1387.55153 6913.76824,1376.22016 C6921.5794,1364.88878 6925.48498,1352.58056 6925.48498,1339.2955 C6925.48498,1319.75864 6920.603,1303.73842 6910.83906,1291.23483 C6901.07511,1278.73125 6888.38197,1272.47945 6872.75966,1272.47945 C6864.9485,1272.47945 6855.96567,1274.23777 6845.81116,1277.7544 C6835.65665,1281.27104 6825.11159,1285.37378 6814.17597,1290.06262 C6792.30472,1299.44031 6772.38627,1306.86432 6754.4206,1312.33464 C6736.45494,1317.80496 6716.14592,1320.54012 6693.49356,1320.54012 C6651.3133,1320.54012 6618.897,1310.18558 6596.24464,1289.47652 C6573.59227,1268.76745 6559.53219,1235.35943 6554.06438,1189.25245 L6554.06438,1189.25245 L6882.13305,1189.25245 C6896.97425,1189.25245 6908.49571,1184.75897 6916.69742,1175.77202 C6924.89914,1166.78506 6929,1153.69537 6929,1136.50294 C6929,1079.45532 6918.06438,1029.63633 6896.19313,987.045988 C6874.32189,944.455643 6843.66309,911.633725 6804.21674,888.580235 C6764.77039,865.526745 6718.87983,854 6666.54506,854 C6611.86695,854 6563.04721,866.698956 6520.08584,892.096869 C6477.12446,917.494781 6443.53648,952.856491 6419.32189,998.181996 C6395.1073,1043.5075 6383,1095.47554 6383,1154.08611 C6383,1215.0411 6395.49785,1267.98598 6420.49356,1312.92074 C6445.48927,1357.85551 6481.22532,1392.43575 6527.70172,1416.66145 C6574.17811,1440.88715 6628.66094,1453 6691.15021,1453 Z M6780,1101 L6554,1101 C6557.90328,1060.50156 6570.00345,1029.54361 6590.30052,1008.12617 C6610.59758,986.708723 6637.53022,976 6671.09845,976 C6704.66667,976 6730.62349,986.514019 6748.96891,1007.54206 C6767.31434,1028.57009 6777.65803,1059.72274 6780,1101 L6780,1101 Z" id="confíame" fill="#FFFFFF" fill-rule="nonzero"></path>
    </g>
</svg>