<?xml version="1.0" encoding="UTF-8"?>
<svg width="3559px" height="2656px" viewBox="0 0 3559 2656" version="1.1" xmlns="http://www.w3.org/2000/svg" xmlns:xlink="http://www.w3.org/1999/xlink">
    <!-- Generator: Sketch 63.1 (92452) - https://sketch.com -->
    <title>Artboard</title>
    <desc>Created with Sketch.</desc>
    <g id="Artboard" stroke="none" stroke-width="1" fill="none" fill-rule="evenodd">
        <g id="productive" transform="translate(57.000000, 223.000000)">
            <path d="M751.333937,438.381942 C693.372413,464.186982 635.41089,495.491456 594.795515,544.563334 C554.180141,593.635212 533.872454,664.281796 557.987833,723.506476 C590.564747,802.613728 693.79549,848.301339 694.218567,934.177126 C694.641644,995.516974 638.372427,1042.47369 581.680134,1064.47142 C524.987841,1086.8922 462.372472,1094.92983 411.180178,1127.50341 C333.757121,1176.99832 297.372515,1272.18084 282.141749,1363.55606 C266.487907,1458.31555 272.834059,1566.18908 339.257119,1635.14353 C421.757098,1720.59628 558.410909,1710.86651 675.603187,1692.67607 C831.718532,1668.56317 986.987723,1639.79689 1142.25691,1611.03062 C1482.83375,1548.42167 1823.41059,1485.81272 2163.98742,1423.20378 C2200.37203,1416.43524 2238.44894,1409.24367 2268.06432,1386.8229 C2326.87199,1341.98136 2331.94892,1249.76007 2297.67969,1184.18989 C2263.41047,1118.19667 2199.94895,1073.35513 2137.33358,1034.85908 C2074.29514,996.363041 2007.87208,959.559132 1960.91055,902.026585 C1913.52595,844.917072 1890.25672,760.310385 1926.21825,695.163236 C1956.67978,640.16889 2021.41053,610.55655 2049.75668,554.293103 C2086.98744,480.262252 2044.25668,385.502763 1976.56439,338.546052 C1908.44903,290.743274 1058.4877,302.58821 751.333937,438.381942 Z" id="Path" fill="#F7F6F6" fill-rule="nonzero"></path>
            <path d="M2255.30901,2128 L232.690987,2128 C219.576334,2128 209,2117.41327 209,2104.28571 L209,1985.71429 C209,1972.58673 219.576334,1962 232.690987,1962 L2255.30901,1962 C2268.42367,1962 2279,1972.58673 2279,1985.71429 L2279,2104.28571 C2279,2116.9898 2268.42367,2128 2255.30901,2128 Z" id="Path" fill="#F1F1F1" fill-rule="nonzero"></path>
            <g id="Group" transform="translate(2036.000000, 1639.000000)" fill-rule="nonzero">
                <g id="Path">
                    <path d="M111.288136,238.588043 C97.7288136,176.009783 56.6271186,120.196739 0.271186441,88.4847826 C30.3559322,144.720652 65.9491525,198.419565 107.050847,247.044565 L111.288136,238.588043 Z" fill="#2A94F4"></path>
                    <path d="M126.118644,261.843478 C72.7288136,187.426087 46.0338983,94.4043478 51.5423729,3.07391304 C85.8644068,87.6391304 112.135593,175.16413 129.508475,264.380435 L126.118644,261.843478 Z" fill="#2A94F4"></path>
                    <path d="M110.864407,264.380435 C109.169492,218.715217 107.474576,172.627174 114.677966,127.384783 C121.881356,82.1423913 138.40678,37.3228261 169.338983,3.49673913 C174,97.3641304 151.542373,192.077174 104.508475,273.682609 L110.864407,264.380435 Z" fill="#2A94F4"></path>
                    <path d="M112.983051,268.608696 C82.8983051,181.929348 87.9830508,83.8336957 126.542373,0.959782609 C150.694915,87.6391304 129.084746,180.238043 107.898305,267.763043 L112.983051,268.608696 Z" fill="#B2DFF8"></path>
                    <path d="M117.220339,236.473913 C125.694915,160.365217 176.118644,90.598913 246.033898,59.3097826 C217.644068,134.995652 169.338983,203.070652 107.050847,255.078261 L117.220339,236.473913 Z" fill="#2A94F4"></path>
                </g>
                <path d="M188.830508,223.366304 L180.355932,370.932609 C180.355932,378.120652 174.423729,384.040217 167.220339,384.040217 L64.6779661,384.040217 C57.4745763,384.040217 51.5423729,378.120652 51.5423729,370.932609 L49.8474576,337.529348 L43.0677966,223.366304 C43.0677966,216.178261 49,210.258696 56.2033898,210.258696 L175.694915,210.258696 C180.355932,210.258696 184.59322,212.795652 186.711864,216.601087 L186.711864,216.601087 C188.40678,218.292391 188.830508,220.829348 188.830508,223.366304 Z" id="Path" fill="#FABB56"></path>
            </g>
            <g id="Group" transform="translate(236.000000, 1432.000000)" fill-rule="nonzero">
                <g id="Path">
                    <path d="M171.307692,367.208511 C150.576923,270.67234 86.6923077,183.874468 0.807692308,135.606383 C46.9230769,222.82766 102.346154,304.968085 164.961538,380.757447 L171.307692,367.208511 Z" fill="#2A94F4"></path>
                    <path d="M194.153846,403.621277 C112.076923,288.878723 71.0384615,145.344681 79.5,4.35106383 C132.807692,134.33617 173,269.825532 199.230769,407.855319 L194.153846,403.621277 Z" fill="#2A94F4"></path>
                    <path d="M170.884615,407.855319 C168.346154,337.146809 165.807692,266.014894 176.807692,196.153191 C187.807692,126.291489 213.615385,57.2765957 261,4.77446809 C268.192308,149.578723 233.076923,296.076596 161.576923,421.82766 L170.884615,407.855319 Z" fill="#2A94F4"></path>
                    <path d="M173.846154,414.206383 C127.730769,280.410638 135.346154,129.255319 194.576923,0.963829787 C231.384615,135.182979 198.807692,277.446809 165.807692,412.512766 L173.846154,414.206383 Z" fill="#B2DFF8"></path>
                    <path d="M180.192308,364.668085 C192.884615,247.385106 271.153846,139.840426 378.615385,91.1489362 C335.038462,208.008511 260.576923,313.43617 164.961538,393.459574 L180.192308,364.668085 Z" fill="#2A94F4"></path>
                </g>
                <path d="M290.615385,343.921277 L277.076923,571.712766 C277.076923,582.721277 268.192308,591.612766 257.192308,591.612766 L99.8076923,591.612766 C88.8076923,591.612766 79.9230769,582.721277 79.9230769,571.712766 L76.9615385,520.480851 L66.8076923,344.344681 C66.8076923,333.33617 75.6923077,324.444681 86.6923077,324.444681 L271.153846,324.444681 C278.346154,324.444681 284.692308,328.255319 288.076923,334.182979 L288.076923,334.182979 C289.769231,336.723404 290.615385,340.110638 290.615385,343.921277 Z" id="Path" fill="#FABB56"></path>
            </g>
            <g id="To_Do_List" transform="translate(1295.000000, 583.000000)" fill-rule="nonzero">
                <g id="To_Do_List_1_">
                    <g id="Group">
                        <polygon id="Rectangle" fill="#004970" transform="translate(311.129748, 500.654208) rotate(-0.366094) translate(-311.129748, -500.654208) " points="2.98792643 91.7765978 619.272416 91.7759601 619.27157 909.531818 2.98708037 909.532456"></polygon>
                        <polygon id="Path" fill="#030809" opacity="0.26" points="51.6027027 876.080184 60.9081081 876.080184 605.274324 889.19447 585.817568 115.874654 560.862162 123.489401"></polygon>
                        <polygon id="Rectangle" fill="#EEEEEF" transform="translate(311.340526, 495.999226) rotate(-0.366100) translate(-311.340526, -495.999226) " points="34.2879624 117.581191 588.393872 117.580618 588.393089 874.417261 34.2871793 874.417834"></polygon>
                        <polygon id="Path" fill="#010102" opacity="0.05" points="28.7621622 116.720737 427.202703 114.182488 30.0310811 450.077419"></polygon>
                        <g transform="translate(188.108108, 0.000000)" fill="#01384F">
                            <polygon id="Rectangle" opacity="0.12" transform="translate(120.906184, 124.983960) rotate(-0.366097) translate(-120.906184, -124.983960) " points="0.567575043 113.773256 241.244817 113.773007 241.244793 136.194663 0.567551845 136.194912"></polygon>
                            <path d="M191.298649,45.2267281 L187.491892,45.2267281 L187.491892,42.6884793 C187.491892,18.9981567 165.074324,-0.0387096774 138.004054,0.384331797 L102.051351,0.807373272 C74.9810811,0.807373272 52.9864865,20.2672811 52.9864865,43.9576037 L52.9864865,46.4958525 L49.1797297,46.4958525 C22.1094595,46.4958525 0.114864865,65.9557604 0.114864865,89.6460829 L0.537837838,137.44977 L241.209459,135.757604 L240.786486,87.9539171 C240.786486,64.2635945 218.368919,45.2267281 191.298649,45.2267281 Z M151.962162,46.4958525 L88.5162162,46.918894 C82.1716216,46.918894 76.672973,41.8423963 76.672973,35.0737327 C76.672973,28.7281106 81.7486486,23.2285714 88.5162162,23.2285714 L151.962162,22.80553 C158.306757,22.80553 163.805405,27.8820276 163.805405,34.6506912 C163.805405,41.4193548 158.306757,46.4958525 151.962162,46.4958525 Z" id="Shape"></path>
                        </g>
                    </g>
                    <g id="Group" opacity="0.47" transform="translate(101.513514, 328.972350)" fill="#F5F5F5">
                        <path d="M86.2864865,0.961290323 C59.2162162,0.961290323 32.1459459,1.3843318 5.07567568,1.3843318 C2.96081081,1.3843318 0.845945946,3.49953917 0.845945946,5.61474654 C0.845945946,32.6894009 1.26891892,59.3410138 1.26891892,86.4156682 C1.26891892,88.5308756 3.38378378,90.6460829 5.49864865,90.6460829 C32.5689189,90.6460829 59.6391892,90.2230415 86.7094595,90.2230415 C87.9783784,90.2230415 88.8243243,89.8 89.6702703,88.9539171 C89.6702703,88.9539171 89.6702703,88.9539171 89.6702703,88.9539171 C89.6702703,88.9539171 89.6702703,88.9539171 89.6702703,88.9539171 C90.5162162,88.1078341 90.9391892,87.2617512 90.9391892,85.9926267 C90.9391892,58.9179724 90.5162162,32.2663594 90.5162162,5.19170507 C90.5162162,3.0764977 88.8243243,0.961290323 86.2864865,0.961290323 Z M82.9027027,81.762212 C58.7932432,81.762212 34.2608108,82.1852535 10.1513514,82.1852535 C10.1513514,58.0718894 9.72837838,33.9585253 9.72837838,9.84516129 C33.8378378,9.84516129 58.3702703,9.42211982 82.4797297,9.42211982 C82.4797297,33.5354839 82.4797297,57.6488479 82.9027027,81.762212 Z" id="Shape"></path>
                        <path d="M87.5554054,150.717972 C60.4851351,150.717972 33.4148649,151.141014 6.34459459,151.141014 C4.22972973,151.141014 2.11486486,153.256221 2.11486486,155.371429 C2.11486486,182.446083 2.53783784,209.097696 2.53783784,236.17235 C2.53783784,238.287558 4.6527027,240.402765 6.76756757,240.402765 C33.8378378,240.402765 60.9081081,239.979724 87.9783784,239.979724 C89.2472973,239.979724 90.0932432,239.556682 90.9391892,238.710599 C90.9391892,238.710599 90.9391892,238.710599 90.9391892,238.710599 C90.9391892,238.710599 90.9391892,238.710599 90.9391892,238.710599 C91.7851351,237.864516 92.2081081,237.018433 92.2081081,235.749309 C92.2081081,208.674654 91.7851351,182.023041 91.7851351,154.948387 C91.7851351,152.410138 89.6702703,150.717972 87.5554054,150.717972 Z M83.7486486,231.518894 C59.6391892,231.518894 35.1067568,231.941935 10.9972973,231.941935 C10.9972973,207.828571 10.5743243,183.715207 10.5743243,159.601843 C34.6837838,159.601843 59.2162162,159.178802 83.3256757,159.178802 C83.3256757,183.292166 83.3256757,207.40553 83.7486486,231.518894 Z" id="Shape"></path>
                        <path d="M88.4013514,300.051613 C61.3310811,300.051613 34.2608108,300.474654 7.19054054,300.474654 C5.07567568,300.474654 2.96081081,302.589862 2.96081081,304.705069 C2.96081081,331.779724 3.38378378,358.431336 3.38378378,385.505991 C3.38378378,387.621198 5.49864865,389.736406 7.61351351,389.736406 C34.6837838,389.736406 61.7540541,389.313364 88.8243243,389.313364 C90.0932432,389.313364 90.9391892,388.890323 91.7851351,388.04424 C91.7851351,388.04424 91.7851351,388.04424 91.7851351,388.04424 C91.7851351,388.04424 91.7851351,388.04424 91.7851351,388.04424 C92.6310811,387.198157 93.0540541,386.352074 93.0540541,385.082949 C93.0540541,358.008295 92.6310811,331.356682 92.6310811,304.282028 C92.6310811,302.16682 90.5162162,300.051613 88.4013514,300.051613 Z M84.5945946,381.275576 C60.4851351,381.275576 35.9527027,381.698618 11.8432432,381.698618 C11.8432432,357.585253 11.4202703,333.471889 11.4202703,309.358525 C35.5297297,309.358525 60.0621622,308.935484 84.1716216,308.935484 C84.1716216,332.625806 84.5945946,356.739171 84.5945946,381.275576 Z" id="Shape"></path>
                    </g>
                    <polygon id="Path" fill="#2A94F4" points="134.082432 360.815668 152.693243 354.470046 163.267568 373.083871 252.091892 308.358525 262.666216 310.473733 159.460811 395.928111"></polygon>
                    <polygon id="Path" fill="#2A94F4" points="128.583784 514.379724 147.194595 508.034101 157.345946 526.647926 246.593243 461.922581 256.744595 464.037788 153.539189 549.492166"></polygon>
                    <polygon id="Path" fill="#2A94F4" points="127.737838 656.098618 146.348649 649.752995 156.922973 668.36682 245.747297 603.641475 255.898649 605.333641 152.693243 690.788018"></polygon>
                    <polygon id="Rectangle" fill="#FFFFFF" transform="translate(385.997700, 681.084039) rotate(-0.366105) translate(-385.997700, -681.084039) " points="242.395464 660.777783 529.599978 660.777486 529.599936 701.390296 242.395422 701.390593"></polygon>
                    <polygon id="Rectangle" fill="#FFFFFF" transform="translate(385.153109, 522.862204) rotate(-0.366105) translate(-385.153109, -522.862204) " points="241.550873 502.555948 528.755387 502.55565 528.755345 543.168461 241.550831 543.168758"></polygon>
                    <polygon id="Rectangle" fill="#FFFFFF" transform="translate(383.882427, 364.219922) rotate(-0.366080) translate(-383.882427, -364.219922) " points="240.280192 343.913665 527.484705 343.913368 527.484663 384.526178 240.28015 384.526475"></polygon>
                </g>
            </g>
            <g id="Girl">
                <g id="Girl_1_">
                    <g id="Group" transform="translate(1079.160000, 1107.030000)" fill-rule="nonzero">
                        <g transform="translate(0.000000, 253.800000)" fill="#004970" id="Rectangle">
                            <rect x="0.4232" y="0.384" width="575.552" height="38.07"></rect>
                        </g>
                        <g transform="translate(115.264000, 0.000000)" fill="#020102" id="Path">
                            <path d="M300.7416,251.646 L15.928,251.646 C7.464,251.646 0.6928,244.878 0.6928,236.418 L0.6928,236.418 C0.6928,227.958 7.464,221.19 15.928,221.19 L300.7416,221.19 C309.2056,221.19 315.9768,227.958 315.9768,236.418 L315.9768,236.418 C315.9768,244.878 309.2056,251.646 300.7416,251.646 Z"></path>
                            <path d="M302.8576,241.071 C302.0112,241.071 301.1648,240.648 300.3184,240.225 C298.2024,238.956 297.7792,235.995 299.0488,233.88 L443.36,2.922 C444.6296,0.807 447.592,0.384 449.708,1.653 C451.824,2.922 452.2472,5.883 450.9776,7.998 L306.6664,238.956 C305.82,240.225 304.5504,241.071 302.8576,241.071 Z"></path>
                        </g>
                    </g>
                    <g id="Group">
                        <g transform="translate(614.640000, 1478.270000)" fill-rule="nonzero">
                            <g transform="translate(63.480000, 0.000000)" id="Path">
                                <g transform="translate(60.248000, 0.000000)">
                                    <path d="M155.8536,0.961 L455.9024,8.575 C506.6864,10.69 544.7744,56.374 537.58,106.711 L537.58,106.711 C531.232,148.588 495.26,179.89 452.94,179.89 L96.1824,179.89 C96.1824,179.89 -32.4704,134.206 8.1568,23.38 L155.8536,0.961 Z" fill="#4385B7"></path>
                                    <g transform="translate(314.168000, 105.750000)">
                                        <g transform="translate(8.464000, 192.580000)">
                                            <g transform="translate(0.000000, 183.890000)">
                                                <path d="M145.5432,65.68 L195.4808,90.214 C200.9824,92.752 203.9448,98.674 202.252,104.596 C200.9824,109.249 196.7504,112.633 185.324,112.633 C160.3552,113.056 51.1696,96.559 51.1696,96.559 L51.1696,107.98 L0.3856,102.058 C0.3856,102.058 -3,44.107 12.2352,35.224 L145.5432,65.68 Z" fill="#000000"></path>
                                                <path d="M64.712,7.306 L145.5432,65.68 C145.5432,65.68 137.0792,87.676 98.568,72.871 C60.48,58.066 12.2352,35.647 12.2352,35.647 L19.4296,0.961 L64.712,7.306 Z" fill="#EFBEAB"></path>
                                            </g>
                                            <polygon fill="#EFBEAB" points="12.6584 219.537 61.3264 0.423 141.7344 8.037 73.5992 211.923"></polygon>
                                        </g>
                                        <polygon fill="#4385B7" points="222.9888 0.961 155.2768 361.357 0.8088 361.357 60.48 6.883"></polygon>
                                    </g>
                                </g>
                                <g>
                                    <path d="M230.4904,0.961 L456.4792,8.575 C507.2632,10.69 545.3512,56.374 538.1568,106.711 L538.1568,106.711 C531.8088,148.588 495.8368,179.89 453.5168,179.89 L96.7592,179.89 C96.7592,179.89 -31.8936,134.206 8.7336,23.38 L230.4904,0.961 Z" fill="#2A94F4"></path>
                                    <g transform="translate(315.168000, 105.750000)">
                                        <g transform="translate(8.464000, 192.580000)">
                                            <g transform="translate(0.000000, 183.890000)">
                                                <path d="M145.5432,65.68 L195.4808,90.214 C200.9824,92.752 203.9448,98.674 202.252,104.596 C200.9824,109.249 196.7504,112.633 185.324,112.633 C160.3552,113.056 51.1696,96.559 51.1696,96.559 L51.1696,107.98 L0.3856,102.058 C0.3856,102.058 -3,44.107 12.2352,35.224 L145.5432,65.68 Z" fill="#000000"></path>
                                                <path d="M64.712,7.306 L145.5432,65.68 C145.5432,65.68 137.0792,87.676 98.568,72.871 C60.48,58.066 12.2352,35.647 12.2352,35.647 L19.4296,0.961 L64.712,7.306 Z" fill="#FACBB6"></path>
                                            </g>
                                            <polygon fill="#FACBB6" points="12.6584 219.537 61.3264 0.423 142.1576 8.037 73.5992 211.923"></polygon>
                                        </g>
                                        <polygon fill="#2A94F4" points="222.9888 0.961 155.2768 361.357 0.8088 361.357 60.48 6.883"></polygon>
                                    </g>
                                </g>
                            </g>
                            <g transform="translate(0.000000, 178.660000)">
                                <g transform="translate(26.392000, 37.070000)" fill="#DAD8DE">
                                    <rect id="Rectangle" x="127.076" y="0.538" width="48.2448" height="266.067"></rect>
                                    <polygon id="Path" points="139.3488 232.765 0.9624 295.792 2.6552 313.558 147.3896 267.028"></polygon>
                                    <polygon id="Path" points="163.048 232.765 301.8576 295.792 299.7416 313.558 155.0072 267.028"></polygon>
                                </g>
                                <ellipse id="Oval" fill="#010102" cx="33.2792" cy="382.353" rx="33.0096" ry="32.994"></ellipse>
                                <ellipse id="Oval" fill="#010102" cx="328.2496" cy="382.353" rx="33.0096" ry="32.994"></ellipse>
                                <path d="M313.8608,56.22 L34.1256,56.22 C18.4672,56.22 6.1944,43.53 6.1944,28.302 L6.1944,28.302 C6.1944,12.651 18.8904,0.384 34.1256,0.384 L313.8608,0.384 C329.5192,0.384 341.792,13.074 341.792,28.302 L341.792,28.302 C341.792,43.953 329.5192,56.22 313.8608,56.22 Z" id="Path" fill="#004970"></path>
                            </g>
                        </g>
                        <g transform="translate(686.584000, 1121.950000)" fill-rule="nonzero" id="Path">
                            <g transform="translate(122.728000, 34.840000)">
                                <path d="M83.2168,0.115 L202.136,160.432 C219.9104,184.12 216.948,217.537 195.788,238.264 L195.788,238.264 C169.9728,263.221 128.076,259.837 106.916,231.073 L0.6928,87.253 L83.2168,0.115 Z" fill="#ECA646"></path>
                                <g transform="translate(133.192000, 31.840000)">
                                    <path d="M171.3584,50.337 C171.3584,50.337 192.9416,10.575 228.9136,1.269 C256.8448,-5.922 280.1208,36.801 289.008,55.836 C291.124,60.489 288.5848,65.988 283.9296,67.257 L283.9296,67.257 C280.9672,68.103 278.0048,66.834 276.312,64.296 L266.5784,51.183 C266.5784,51.183 268.2712,79.947 243.7256,76.986 C219.18,74.448 211.1392,65.142 211.1392,65.142 L183.6312,84.177 L171.3584,50.337 Z" fill="#FACBB6"></path>
                                    <polygon fill="#ECA646" points="0.8088 131.13 173.8976 14.382 220.0264 83.754 41.0128 221.229"></polygon>
                                </g>
                            </g>
                            <path d="M210.6,0.269 C210.6,0.269 132.7312,30.725 77.292,138.59 C21.8528,246.455 0.2696,379.7 0.2696,379.7 C0.2696,379.7 103.1072,408.464 222.0264,357.281 L264.3464,223.19 C264.3464,223.19 301.1648,180.044 264.3464,45.53 L210.6,0.269 Z" fill="#B620E1"></path>
                            <g transform="translate(138.656000, 51.760000)">
                                <g transform="translate(151.120000, 74.140000)">
                                    <path d="M177.7064,34.263 C177.7064,34.263 207.3304,0.846 244.572,0.846 C273.3496,0.846 286.892,47.799 291.124,68.949 C292.3936,74.025 288.5848,78.678 283.9296,78.678 L283.9296,78.678 C280.9672,78.678 278.428,76.986 277.1584,74.025 L270.3872,58.797 C270.3872,58.797 266.1552,87.138 242.8792,78.678 C219.6032,69.795 214.1016,58.797 214.1016,58.797 L183.208,70.641 L177.7064,34.263 Z" fill="#FACBB6"></path>
                                    <polygon fill="#B620E1" points="0.8088 82.062 196.3272 8.46 225.1048 87.138 19.0064 178.929"></polygon>
                                </g>
                                <path d="M82.524,0.961 L201.4432,161.278 C219.2176,184.966 216.2552,218.383 195.0952,239.11 L195.0952,239.11 C169.28,264.067 127.3832,260.683 106.2232,231.919 L0,88.099 L82.524,0.961 Z" fill="#B620E1"></path>
                            </g>
                        </g>
                        <g>
                            <path d="M998.752,1048.194 L1051.2288,1049.886 C1079.16,1079.073 1068.58,1135.332 1068.58,1135.332 L983.5168,1110.798 L998.752,1048.194 Z" id="Path" fill="#000000" fill-rule="nonzero"></path>
                            <polygon id="Path" fill="#FACBB6" fill-rule="nonzero" points="1004.6768 1089.648 950.9304 1167.48 897.184 1122.219 975.476 1009.278"></polygon>
                            <polygon id="Path" fill="#EFBEAA" fill-rule="nonzero" points="975.8992 1131.102 976.3224 1078.227 999.1752 1097.685"></polygon>
                            <path d="M1072.812,932.715 C1072.812,932.715 1108.3608,949.635 1096.9344,997.011 C1096.9344,997.011 1088.0472,1031.274 1075.3512,1080.342 C1068.58,1106.145 1038.956,1120.527 1015.2568,1107.837 C1000.868,1099.8 985.2096,1088.379 973.36,1072.305 L957.7016,1046.079 C923.8456,975.438 995.7896,898.875 1067.7336,930.177 C1069.4264,931.023 1071.1192,931.869 1072.812,932.715 Z" id="Path" fill="#FACBB6" fill-rule="nonzero"></path>
                            <path d="M1078.7368,1044.81 L1091.0096,1065.96 C1092.7024,1068.921 1090.1632,1072.305 1086.7776,1071.882 L1069.4264,1068.921 L1078.7368,1044.81 Z" id="Path" fill="#FACBB6" fill-rule="nonzero"></path>
                            <g></g>
                            <path d="M999.1752,1002.51 C999.1752,1002.51 1010.1784,882.378 1094.8184,957.249 C1094.8184,957.249 1074.5048,884.07 977.592,896.76 C957.2784,899.298 931.8864,916.218 922.9992,934.407 C908.6104,964.44 918.344,996.165 931.8864,1053.693 L975.8992,1024.929 C980.1312,1017.738 999.1752,1002.51 999.1752,1002.51 Z" id="Path" fill="#000000" fill-rule="nonzero"></path>
                            <path d="M977.1688,960.21 L983.0936,1012.662 C1120.2104,1009.701 1080.0064,934.407 1080.0064,934.407 C1080.0064,934.407 986.9024,874.764 977.1688,960.21 Z" id="Path" fill="#000000" fill-rule="nonzero"></path>
                            <polygon id="Path" fill="#000000" fill-rule="nonzero" points="1033.8776 1000.818 1008.4856 1021.968 995.3664 984.744"></polygon>
                            <path d="M1060.116,935.253 C1060.116,935.253 1101.1664,954.711 1098.6272,986.436 C1098.6272,986.436 1142.64,961.479 1076.6208,926.37 C1037.6864,905.643 1060.116,935.253 1060.116,935.253 Z" id="Path" fill="#000000" fill-rule="nonzero"></path>
                            <path d="M983.94,1027.044 C983.94,1027.044 959.3944,1081.611 958.9712,1103.607 L855.2872,1067.652 C855.2872,1067.652 885.3344,1035.927 895.068,1008.009 C902.6856,985.59 906.4944,931.023 951.3536,906.066 L949.2376,978.822 L983.94,1027.044 Z" id="Path" fill="#000000" fill-rule="nonzero"></path>
                            <g transform="translate(957.432000, 990.820000)" fill="#FACBB6" fill-rule="nonzero" id="Path">
                                <path d="M2.3856,17.189 C-2.6928,30.725 4.0784,45.53 17.1976,50.606 C30.74,55.682 45.552,48.914 50.6304,35.801 C55.7088,22.265 48.9376,7.46 35.8184,2.384 C22.276,-3.115 7.464,3.653 2.3856,17.189 Z"></path>
                            </g>
                            <path d="M897.184,1122.219 C897.184,1122.219 913.6888,1170.441 956.432,1188.63 L944.1592,1134.909 L897.184,1122.219 Z" id="Path" fill="#FACBB6" fill-rule="nonzero"></path>
                        </g>
                    </g>
                </g>
            </g>
        </g>
    </g>
</svg>