<?xml version="1.0" encoding="UTF-8"?>
<svg width="970px" height="893px" viewBox="0 0 970 893" version="1.1" xmlns="http://www.w3.org/2000/svg" xmlns:xlink="http://www.w3.org/1999/xlink">
    <!-- Generator: Sketch 63.1 (92452) - https://sketch.com -->
    <title>grandpa</title>
    <desc>Created with Sketch.</desc>
    <g id="Page-1" stroke="none" stroke-width="1" fill="none" fill-rule="evenodd">
        <g id="grandpa">
            <path d="M241.88,220.61 C209.49,240.14 176.44,261.91 153.69,298.47 C146.1,310.67 139.57,325.48 140.23,341.34 C141.46,370.91 166.76,388.52 188.85,388.58 C210.94,388.64 232.43,377.53 254.52,377.62 C265.92,377.67 280.19,385.07 280.04,400.35 C279.95,409.49 274.47,416.68 269.39,422.77 C230.4,469.49 191.41,516.2 152.41,562.92 C139.42,578.49 126.02,594.79 119.26,616.33 C112.5,637.86 114.45,666.22 128.44,680.16 C137.65,689.34 149.88,690.55 161.36,690.82 C213.49,692.06 265.35,681.31 316.62,668.65 C497.91,623.87 675.83,554.72 846.87,462.55 C878.19,445.67 911.81,424.94 926.72,384.34 C943.94,337.42 925.57,273.31 889.34,253.92 C867.69,242.33 843.35,245.64 820.43,239.96 C797.51,234.28 772.93,213.22 772.69,181.98 C772.31,130.3 834.69,110.69 836.48,59.07 C837.43,31.73 818.9,8.64 798.97,2.71 C779.04,-3.22 758.34,3.92 738.86,12.13 C738.86,12.12 385.56,133.98 241.88,220.61 Z" id="Path" fill="#F7F7F7" fill-rule="nonzero"></path>
            <path d="M958.76,892.11 L11.24,892.11 C5.12,892.11 0.12,887.11 0.12,880.99 L0.12,826 C0.12,819.88 5.12,814.88 11.24,814.88 L958.75,814.88 C964.87,814.88 969.870015,819.88 969.870015,826 L969.870015,880.99 C969.88,887.11 964.87,892.11 958.76,892.11 Z" id="Path" fill="#F2F2F2" fill-rule="nonzero"></path>
            <g id="Group" transform="translate(0.000000, 581.000000)" fill-rule="nonzero">
                <path d="M88.19,253.03 C108.04,253.03 116.42,237.17 119.72,220.36 C123.44,201.39 120.71,181.19 120.71,181.19 L55.67,181.19 C55.67,181.19 55.57,181.96 55.43,183.34 C54.21,195.28 50.3,253.03 88.19,253.03 Z" id="Path" fill="#B6E7FF"></path>
                <path d="M55.67,181.19 C55.67,182.61 70.23,183.76 88.19,183.76 C106.15,183.76 120.71,182.61 120.71,181.19 C120.71,179.77 106.15,178.62 88.19,178.62 C70.23,178.62 55.67,179.77 55.67,181.19 Z" id="Path" fill="#85DDFF"></path>
                <path d="M0.12,0.88 C0.12,0.88 34.42,53.06 55,84.91 C75.58,116.76 80.97,123.37 83.42,133.66 C85.87,143.95 88.08,181.92 88.08,181.92 L89.6,181.92 C89.6,181.92 89.07,149.69 87.22,138.84 C85.43,128.36 87.35,124.59 88.82,113.57 C90.29,102.54 92.25,84.91 81.1,72.66 C69.95,60.41 72.89,48.41 68.97,40.32 C65.05,32.24 34.67,22.44 30.75,14.11 C26.83,5.78 9.68,0.63 0.12,0.88 Z" id="Path" fill="#2A94F4"></path>
                <path d="M0.12,0.88 C0.12,0.88 10.9,13.13 18.25,17.3 C25.6,21.46 29.03,17.79 34.66,27.83 C40.3,37.87 40.51,42.29 45.67,47.43 C50.83,52.57 56.95,52.82 57.44,64.09 C57.93,75.36 54.99,84.91 54.99,84.91 C54.99,84.91 2.33,3.57 0.12,0.88 Z" id="Path" fill="#41AAF7"></path>
                <path d="M85.36,181.93 L83.82,181.93 C83.82,181.93 83.36,171.5 79.22,166.43 C76.55,163.16 65.2,159.45 53.97,155 C47.79,152.55 41.65,149.88 37.02,146.93 C23.97,138.64 11.54,111.94 10.47,107.18 C10.09,105.52 9.93,104.52 9.93956009,103.83 L9.93956009,103.81 C9.97,102.53 10.6,102.34 11.7,101.05 C12.23,100.43 13.82,100.64 15.76,101.23 C21.39,102.95 26.13,106.8 29.08,111.89 C31.8,116.6 36.15,122.49 41.48,123.91 C50.69,126.37 49.92,127.9 53.32,137.26 C56.71,146.63 65.27,148.15 76.01,159.2 C86.74,170.26 85.36,181.93 85.36,181.93 Z" id="Path" fill="#2A94F4"></path>
                <path d="M53.97,155 C47.79,152.55 41.65,149.88 37.02,146.93 C23.97,138.64 11.54,111.94 10.47,107.18 C10.09,105.52 9.93,104.52 9.93956009,103.83 C9.98,104.14 10.58,108.37 17.38,111.18 C24.43,114.09 25.82,114.09 26.74,118.55 C27.66,123 28.43,127.76 32.12,128.68 C35.8,129.6 38.11,125.46 41.02,132.21 C43.94,138.96 45.33,141.26 48.01,142.18 C50.69,143.1 52.73,141.72 53.32,146.94 C53.66,150.12 53.87,153.14 53.97,155 Z" id="Path" fill="#41AAF7"></path>
                <path d="M96.64,181.93 L98.46,181.93 C98.46,181.93 102.02,117.33 106.93,111.33 C110.09,107.46 120.53,100.52 133.82,95.25 C141.14,92.35 148.41,89.19 153.9,85.7 C169.35,75.88 184.08,44.25 185.34,38.62 C185.79,36.66 185.98,35.47 185.970374,34.65 L185.970374,34.63 C185.94,33.11 185.18,32.89 183.89,31.36 C183.27,30.62 181.38,30.88 179.08,31.58 C172.42,33.61 166.79,38.17 163.31,44.21 C160.09,49.79 154.93,56.76 148.63,58.45 C137.72,61.36 138.63,63.17 134.6,74.26 C130.59,85.35 120.44,87.16 107.73,100.25 C95,113.32 96.64,181.93 96.64,181.93 Z" id="Path" fill="#2A94F4"></path>
                <path d="M133.82,95.25 C141.14,92.35 148.41,89.19 153.9,85.7 C169.35,75.88 184.08,44.25 185.34,38.62 C185.79,36.66 185.98,35.47 185.970374,34.65 C185.93,35.02 185.21,40.03 177.16,43.35 C168.81,46.8 167.17,46.8 166.08,52.08 C164.99,57.35 164.07,62.99 159.71,64.08 C155.35,65.17 152.62,60.26 149.17,68.26 C145.71,76.25 144.07,78.98 140.89,80.07 C137.72,81.16 135.31,79.52 134.6,85.71 C134.18,89.47 133.94,93.04 133.82,95.25 Z" id="Path" fill="#41AAF7"></path>
                <path d="M88.19,253.03 C108.04,253.03 116.42,237.17 119.72,220.36 C100.26,212.98 75.75,201.15 55.43,183.34 C54.21,195.28 50.3,253.03 88.19,253.03 Z" id="Path" fill="#CCE9FF"></path>
            </g>
            <g id="Group" transform="translate(821.000000, 623.000000)" fill-rule="nonzero">
                <path d="M80.04,214.89 C94.8,214.89 101.03,203.1 103.48,190.6 C106.25,176.5 104.22,161.48 104.22,161.48 L55.86,161.48 C55.86,161.48 55.78,162.05 55.68,163.07 C54.78,171.95 51.87,214.89 80.04,214.89 Z" id="Path" fill="#B6E7FF"></path>
                <path d="M55.86,161.48 C55.86,162.54 66.69,163.39 80.04,163.39 C93.39,163.39 104.22,162.53 104.22,161.48 C104.22,160.42 93.39,159.57 80.04,159.57 C66.69,159.57 55.86,160.42 55.86,161.48 Z" id="Path" fill="#85DDFF"></path>
                <path d="M0.75,0.9 C0.75,0.9 31.27,47.34 49.59,75.68 C67.91,104.02 72.7,109.91 74.88,119.07 C77.06,128.23 79.02,162.02 79.02,162.02 L81.42,162.02 C81.42,162.02 82.95,133.46 80.11,124.08 C77.28,114.7 78.37,111 79.67,101.19 C80.98,91.38 82.72,75.68 72.8,64.78 C62.88,53.88 65.5,43.2 62.01,36 C58.52,28.8 31.49,20.08 28,12.67 C24.52,5.26 9.25,0.68 0.75,0.9 Z" id="Path" fill="#2A94F4"></path>
                <path d="M7.42,0.9 C7.42,0.9 17.01,11.8 23.55,15.51 C30.09,19.22 33.14,15.95 38.16,24.89 C43.18,33.83 43.37,37.75 47.96,42.33 C52.55,46.91 58,47.13 58.44,57.16 C58.88,67.19 56.26,75.69 56.26,75.69 C56.26,75.69 9.39,3.3 7.42,0.9 Z" id="Path" fill="#41AAF7"></path>
                <path d="M89.18,161.48 L90.93,160.96 C90.93,160.96 87.9,148.94 90.88,141.77 C92.8,137.14 104.45,129.06 115.69,120.18 C121.88,115.29 127.95,110.16 132.21,105.23 C144.22,91.36 149.26,56.77 148.85,50.99 C148.71,48.98 148.56,47.78 148.32,47 L148.31,46.98 C147.84,45.53 147.05,45.53 145.37,44.44 C144.56,43.91 142.82,44.7 140.82,46.03 C135.01,49.9 130.92,55.89 129.31,62.69 C127.82,68.97 124.88,77.15 119.31,80.58 C109.68,86.51 111.07,87.99 110.4,99.79 C109.74,111.59 100.52,116.25 92.08,132.47 C83.63,148.69 89.18,161.48 89.18,161.48 Z" id="Path" fill="#2A94F4"></path>
                <path d="M115.69,120.17 C121.88,115.28 127.95,110.15 132.21,105.22 C144.22,91.35 149.26,56.76 148.85,50.98 C148.71,48.97 148.56,47.77 148.32,46.99 C148.38,47.36 149.13,52.37 142.36,57.88 C135.33,63.59 133.76,64.06 134.23,69.44 C134.7,74.81 135.44,80.49 131.57,82.79 C127.7,85.09 123.67,81.17 122.66,89.83 C121.64,98.5 120.84,101.59 118.11,103.55 C115.38,105.51 112.59,104.63 113.69,110.77 C114.37,114.52 115.17,118.03 115.69,120.17 Z" id="Path" fill="#41AAF7"></path>
                <path d="M80.04,214.89 C94.8,214.89 101.03,203.1 103.48,190.6 C89.01,185.12 70.79,176.32 55.68,163.07 C54.78,171.95 51.87,214.89 80.04,214.89 Z" id="Path" fill="#CCE9FF"></path>
            </g>
            <g id="Group" transform="translate(269.000000, 388.000000)" fill-rule="nonzero">
                <path d="M194.12,83.85 C211.79,81.34 260.3,79.98 277.27,62.34 C282.3,68.59 284.18,83.67 284.18,83.67 C284.18,83.67 236.6,112.45 196.5,112.45 C186.51,98.33 194.12,83.85 194.12,83.85 Z" id="Path" fill="#EFBC9A"></path>
                <polygon id="Path" fill="#FFBE55" points="155.84 87.3 197.32 81.11 198.84 122.46 162.93 137.68"></polygon>
                <path d="M175.76,414.47 C175.76,414.47 204.86,433.41 205.39,439.81 C205.92,446.21 152.8,443.35 151.27,440.49 C146.83,432.2 151.34,411.11 151.34,411.11 L175.76,414.47 Z" id="Path" fill="#0B4870"></path>
                <path d="M188.45,218.73 L175.75,409.99 C175.69,411.53 175.36,413 174.78,414.34 C172.94,418.66 168.65,421.67 163.66,421.67 C160.48,421.67 157.56,420.44 155.39,418.41 C153.41,416.54 152.03,414.01 151.66,411.14 C151.63,410.88 151.6,410.62 151.58,410.37 C150.39,392.44 140.01,226.64 139.68,224.74 C137.61,213.22 188.45,218.73 188.45,218.73 Z" id="Path" fill="#EFBC9A"></path>
                <path d="M67.05,403.75 C67.05,403.75 88.69,432.61 86.85,438.75 C85.01,444.89 35.13,422.24 34.75,419.02 C33.65,409.68 45.55,391.69 45.55,391.69 L67.05,403.75 Z" id="Path" fill="#0B4870"></path>
                <path d="M149.32,232.56 L68.69,399.57 C68.07,400.99 67.22,402.23 66.19,403.28 C62.89,406.63 57.79,407.86 53.16,406.03 C48.41,404.17 45.48,399.63 45.48,394.78 C45.48,393.81 45.59,392.83 45.84,391.86 C45.9,391.61 45.97,391.36 46.05,391.11 C50.44,377.31 90,229.24 90.33,227.65 C92.6,216.17 149.32,232.56 149.32,232.56 Z" id="Path" fill="#EFBC9A"></path>
                <polygon id="Path" fill="#0A405E" points="188.45 240.09 194.12 328.47 139.62 329.19 137.52 230.06"></polygon>
                <polygon id="Path" fill="#0B4870" points="149.32 242.17 114.61 329.49 57.64 320.64 89.08 221.01 139.62 230.06"></polygon>
                <path d="M136.2,1.18 C95.83,3.73 92.82,15.4 98.34,40.16 C103.86,64.92 126.93,71.97 126.93,71.97 L136.2,1.18 Z" id="Path" fill="#0B4870"></path>
                <path d="M77.94,106.91 C58.09,120.78 23.06,164.28 19.24,208.3 C6.33,218.64 1.01,226.87 0.3,229.17 C-0.41,231.47 9.76,245.84 14.32,248.32 C18.88,250.79 26.84,230.7 27.19,229.55 C29.76,234.7 31.96,237.44 35.19,238.96 C34.74,233.92 30.23,217.52 30.23,217.52 C30.23,217.52 44.44,162.19 97.28,128.1 C99.07,103.58 77.94,106.91 77.94,106.91 Z" id="Path" fill="#EFBC9A"></path>
                <path d="M189.17,242.17 L80.87,242.17 C85.57,210.5 94.46,142.92 94.46,142.92 L91.58,144.1 C91.58,144.1 68.72,134.72 71.99,105.59 C93.38,93.05 115.09,83.84 129.93,86.06 C133.21,86.55 136.15,87.6 138.68,89.31 C146.14,92.27 152.95,87.13 152.95,87.13 C153.92,87.19 154.88,87.33 155.84,87.32 C189.17,87.11 187.29,198.29 189.17,242.17 Z" id="Path" fill="#FFBE55"></path>
                <path d="M129.93,78.75 L129.93,94.23 C129.93,94.23 143.8,109.99 155.85,94.23 C155.85,75.49 155.85,73.01 155.85,73.01 L129.93,73.01 L129.93,78.75 Z" id="Path" fill="#EFBC9A"></path>
                <path d="M160.81,18.54 C166.18,36.04 177.71,69.95 155.85,77.98 C134.67,85.76 122.38,81.41 105.24,37.63 C118.26,15.87 142.62,0.24 160.81,18.54 Z" id="Path" fill="#FCD2B1"></path>
                <path d="M112.67,33.32 C121.4,35.98 144.02,34.36 148.21,29.11 C147.77,26.54 144.98,25.13 144.98,25.13 C144.98,25.13 166.73,29.56 167.51,24.78 C165.99,17.75 157.88,1.37 148.37,0.38 C138.86,-0.61 121.15,3.01 112.66,14.74 C104.17,26.47 112.67,33.32 112.67,33.32 Z" id="Path" fill="#0B4870"></path>
                <path d="M113.9,31.26 C113.9,31.26 118.48,52.42 110.41,55.4 C102.34,58.38 97.87,28 109.63,24.54 C119.03,25.92 113.9,31.26 113.9,31.26 Z" id="Path" fill="#0B4870"></path>
                <ellipse id="Oval" fill="#FCD2B1" transform="translate(113.876402, 59.478102) rotate(-39.733676) translate(-113.876402, -59.478102) " cx="113.876402" cy="59.478102" rx="7.48976646" ry="10.7096661"></ellipse>
            </g>
            <g id="Group" transform="translate(500.000000, 152.000000)">
                <path d="M73.7,643.37 C81.07,649.69 100.38,668.1 100.19,671.26 C86.85,673.37 52.12,672.31 47.91,663.37 C43.7,654.42 47.91,641.27 47.91,641.27 L73.7,643.37 Z" id="Path" fill="#0E538C" fill-rule="nonzero"></path>
                <path d="M157.28,643.37 C164.65,649.69 183.96,668.1 183.77,671.26 C170.43,673.37 135.7,672.31 131.49,663.37 C127.28,654.42 131.49,641.27 131.49,641.27 L157.28,643.37 Z" id="Path" fill="#0E538C" fill-rule="nonzero"></path>
                <path d="M146.59,132.75 C159.02,140.26 181.97,182.06 189.72,261.18 C197.47,340.3 183.77,387.72 183.77,387.72 L156.7,387.72 C156.7,387.72 161.46,220.86 138.65,177.64 C137.9,138.06 146.59,132.75 146.59,132.75 Z" id="Path" fill="#258AD6" fill-rule="nonzero"></path>
                <path d="M183.74,336.48 C183.74,336.48 185.57,555.64 162.1,645.7 C144.1,649.07 129.85,649.07 129.85,649.07 L129.85,416 C129.85,416 107.59,418.23 92.87,419.63 C88.9,476.86 77.27,649.06 77.27,649.06 C77.27,649.06 53.12,656.63 43.44,644.85 C43.15,602.77 -1.88,389.64 25.33,336.29 C127.67,324.19 183.74,336.48 183.74,336.48 Z" id="Path" fill="#0B4870" fill-rule="nonzero"></path>
                <path d="M183.74,336.48 C181.33,340.51 176.82,343.88 170.78,346.66 C167.46,348.19 163.68,349.54 159.53,350.72 C141.76,355.77 117.24,357.63 93.52,356.95 C89.89,356.86 86.28,356.69 82.71,356.46 C56.57,354.85 32.87,350.15 22.17,343.25 C13.07,265.06 36.02,138.92 36.02,138.92 C42.91,132.78 50.56,129.61 58.25,128.05 C61.97,127.28 65.69,126.89 69.36,126.71 C78.68,126.26 87.54,127.2 94.59,126.88 C94.59,126.88 119.32,128.54 135.32,130.68 C140.22,131.34 144.3,132.04 146.59,132.75 C147,132.88 147.43,133.2 147.85,133.69 C157.53,144.86 170.5,245.92 173.85,255.28 C177.34,265.06 200.4,308.66 183.74,336.48 Z" id="Path" fill="#2A94F4" fill-rule="nonzero"></path>
                <polygon id="Path" fill="#FCD2B1" fill-rule="nonzero" points="123.78 119.57 123.78 133.85 114.25 148.5 93.14 130.92 93.14 117"></polygon>
                <path d="M135.08,13.33 C144.06,16.14 149.54,21.67 151.36,25.85 C153.18,30.03 162.11,72.65 150.48,74.48 C144.64,57.85 128.17,19.08 128.17,19.08 L135.08,13.33 Z" id="Path" fill="#D3D3D3" fill-rule="nonzero"></path>
                <path d="M56.35,33 C52.12,44.93 59.46,115.59 82.11,123.99 C104.76,132.39 141.56,127.21 149.31,83.25 C157.06,39.28 134.1,11.88 116.25,8.35 C95.07,4.15 66.17,12.26 56.35,33 Z" id="Path" fill="#FFE3CA" fill-rule="nonzero"></path>
                <path d="M128.76,22.62 C111.92,22.11 63.85,26.73 51.32,32.94 C50.74,33.23 50.17,32.5 50.52,31.92 C55.36,23.81 59.62,22 59.62,22 C52.92,22.19 50.94,22.09 46.95,25.24 C46.41,25.66 45.7,25.02 45.98,24.37 C49.7,15.85 58.22,12.04 58.22,12.04 C55.38,11.56 53.36,11.36 51.78,11.35 C51.06,11.34 50.88,10.26 51.56,10.01 C66.61,4.46 116.25,-6.38 132.48,8.17 C140.37,18.14 128.76,22.62 128.76,22.62 Z" id="Path" fill="#D3D3D3" fill-rule="nonzero"></path>
                <path d="M128.17,19.07 C129.4,27.7 137.52,46.38 145.15,49.69 C146.15,56.3 148.12,64.82 148.12,64.82 L151.21,64.48 C151.21,64.48 154.49,34.55 150.4,31.79 C146.31,29.03 127.62,14.15 127.62,14.15 L128.17,19.07 Z" id="Path" fill="#D3D3D3" fill-rule="nonzero"></path>
                <ellipse id="Oval" fill="#FFE3CA" fill-rule="nonzero" transform="translate(155.498718, 66.812046) rotate(-75.753934) translate(-155.498718, -66.812046) " cx="155.498718" cy="66.812046" rx="15.9308578" ry="9.88053202"></ellipse>
                <path d="M48.03,67.11 L49.61,81.37 C50.17,86.4 54.35,90.09 58.91,89.59 L74.87,87.82 C79.43,87.31 82.7,82.79 82.14,77.76 L80.56,63.5 C80.33,61.39 78.57,59.84 76.66,60.05 L51.07,62.89 C49.17,63.11 47.79,65 48.03,67.11 Z" id="Path" stroke="#0E538C" fill-opacity="0.5" fill="#FFFFFF" fill-rule="nonzero"></path>
                <path d="M90.59,62.46 L92.17,76.72 C92.73,81.75 97.5,85.38 102.78,84.79 L121.28,82.74 C126.56,82.15 130.42,77.56 129.86,72.54 L128.28,58.28 C128.05,56.17 126.04,54.65 123.83,54.9 L94.19,58.19 C91.98,58.43 90.36,60.35 90.59,62.46 Z" id="Path" stroke="#0E538C" fill-opacity="0.5" fill="#FFFFFF" fill-rule="nonzero"></path>
                <path d="M81.42,72.23 C83.54,68.31 88.92,67.31 91.82,71.08" id="Path" stroke="#0E538C"></path>
                <path d="M93.14,130.92 C86.77,137.75 83,156.32 86.48,164.89 C101.12,166.6 114.25,148.5 114.25,148.5 L93.14,130.92 Z" id="Path" fill="#32A4F9" fill-rule="nonzero"></path>
                <path d="M123.78,133.85 C132.01,140.29 136.44,153.08 132.96,161.66 C118.32,163.37 114.25,148.5 114.25,148.5 L123.78,133.85 Z" id="Path" fill="#32A4F9" fill-rule="nonzero"></path>
                <path d="M93.52,356.95 C89.89,356.86 86.28,356.69 82.71,356.46 C86.92,327.91 86.5,285.3 81.33,238.36 C76.27,192.47 67.71,151.91 58.24,128.06 C61.96,127.29 65.68,126.9 69.35,126.72 C78.75,152.08 87.09,192.21 92.02,236.99 C97.22,284.08 97.67,327.22 93.52,356.95 Z" id="Path" fill="#0E538C" fill-rule="nonzero"></path>
                <path d="M31.3,668.26 C29.27,642.86 11.72,419.27 21.6,392.01 C26.97,377.2 41.58,359.81 80.85,360.76 L80.55,372.34 C54.58,371.65 38.4,379.62 32.48,395.95 C25.65,414.79 34.93,569.49 42.84,668.25 L31.3,668.25 L31.3,668.26 Z" id="Path" fill="#FFBE55" fill-rule="nonzero"></path>
                <path d="M79.1,336.29 C93.21,336.29 115.01,339.55 115.97,346.71 C116.93,353.87 117.68,376.57 109.67,378.52 C101.65,380.47 78.25,382.1 77.29,377.22 C76.33,372.33 75.9,360.72 73.01,359.42 C70.12,358.12 69.77,362.08 68.7,361.54 C67.63,361 64.06,358.46 64.06,358.46 L79.1,336.29 Z" id="Path" fill="#FCD2B1" fill-rule="nonzero"></path>
                <path d="M170.78,346.66 C167.46,348.19 163.68,349.54 159.53,350.72 C162.91,322.35 162.21,282.25 157.39,238.36 C152.52,194.1 144.38,154.82 135.32,130.69 C140.22,131.35 144.3,132.05 146.59,132.76 C147,132.89 147.43,133.21 147.85,133.7 C156.24,159.14 163.59,196.12 168.09,237 C172.7,278.91 173.58,317.67 170.78,346.66 Z" id="Path" fill="#0E538C" fill-rule="nonzero"></path>
                <path d="M36.02,138.91 C17.28,155.6 -0.9,232.72 0.5,281.59 C1.9,330.46 55.07,361.28 62.73,366.54 C68.99,356.01 86.47,334.21 86.47,334.21 C86.47,334.21 15.23,313.91 62.73,191.37 C65.89,169.02 61.07,126.59 36.02,138.91 Z" id="Path" fill="#32A4F9" fill-rule="nonzero"></path>
                <ellipse id="Oval" fill="#32A4F9" fill-rule="nonzero" cx="116.27" cy="181.85" rx="3.91" ry="4.21"></ellipse>
                <ellipse id="Oval" fill="#32A4F9" fill-rule="nonzero" cx="120.19" cy="223.62" rx="3.91" ry="4.21"></ellipse>
                <ellipse id="Oval" fill="#32A4F9" fill-rule="nonzero" cx="125.94" cy="265.39" rx="3.91" ry="4.21"></ellipse>
                <ellipse id="Oval" fill="#32A4F9" fill-rule="nonzero" cx="129.86" cy="304.97" rx="3.91" ry="4.21"></ellipse>
            </g>
            <path d="M553.19,447.51 C544.62,451.2 539.32,459.97 539.32,459.97 C539.32,459.97 549.54,476.55 556.35,477.31 C563.16,478.07 564.06,469.12 564.06,469.12 L553.19,447.51 Z" id="Path" fill="#EFBC9A" fill-rule="nonzero"></path>
        </g>
    </g>
</svg>