<?xml version="1.0" encoding="UTF-8"?>
<svg width="290px" height="65px" viewBox="0 0 290 65" version="1.1" xmlns="http://www.w3.org/2000/svg" xmlns:xlink="http://www.w3.org/1999/xlink">
    <!-- Generator: Sketch 63.1 (92452) - https://sketch.com -->
    <title>Group 7</title>
    <desc>Created with Sketch.</desc>
    <defs>
        <path d="M11.90895,0.05628 C15.89385,0.05628 19.41986,5.62885 21.57309,14.1815 C22.65211,18.46065 23.3849,23.485 23.66152,28.93061 L23.66152,28.93216 L11.91041,43.44589 L0.15766,28.93044 C0.43283,23.48491 1.16716,18.45902 2.24455,14.17978 C4.39941,5.62885 7.92533,0.05628 11.90895,0.05628 Z" id="path-1"></path>
        <path d="M11.90278,0.00955 C13.25978,0.00955 14.56312,0.65806 15.7774,1.84992 C11.20482,6.07057 7.92206,17.62565 7.92206,31.22118 C7.92206,33.557045 8.01908766,35.8325175 8.20275918,38.0212562 L8.28675,38.9539 L0.15854,28.90253 C0.43347,23.45353 1.16737,18.42429 2.24413,14.14226 C4.39767,5.58567 7.92163,0.00955 11.90278,0.00955 Z" id="path-3"></path>
        <path d="M45.28886,0.81385 L28.62301,44.10364 C27.90096,45.98034 26.48606,47.18504 24.87641,47.71466 C21.99574,48.66721 18.48732,47.46387 17.19463,44.10364 L0.53032,0.81385 L5.7474,7.25421 L11.15324,13.927 L13.21285,16.46824 L22.90955,28.44016 L34.66432,13.92863 L40.07007,7.25593 L45.28886,0.81385 Z" id="path-5"></path>
        <path d="M0.53032,0.81385 L5.74766,7.25418 L11.15368,13.92693 L13.21348,16.46815 C14.93455,27.52614 18.50662,43.97191 24.87762,47.71474 C21.99681,48.66711 18.48812,47.46387 17.19545,44.10357 L0.53032,0.81385 Z" id="path-7"></path>
        <path d="M2.84614,0.79221 L8.22422,5.12852 L8.23815,5.13161 C7.16255,9.40733 6.42936,14.42916 6.15473,19.87013 L0.75965,13.20178 L2.84614,0.79221 Z" id="path-9"></path>
        <path d="M5.97339,0.84848 L8.05954,13.25859 L2.66548,19.92641 L2.66548,19.92486 C2.38937,14.48417 1.65804,9.46436 0.58104,5.18908 L0.5965,5.18436 L5.97339,0.84848 Z" id="path-11"></path>
        <path d="M2.92563,1.31337 C3.29411,2.41043 3.63923,3.5973 3.95136,4.84143 C4.82167,8.304 5.45743,12.35251 5.79011,16.54835 C5.84084,17.18733 5.36646,17.74645 4.73095,17.79735 C4.69992,17.79958 4.66872,17.80087 4.63794,17.80087 C4.0419,17.80087 3.53658,17.34014 3.48841,16.73252 C3.16605,12.66404 2.55211,8.74836 1.71284,5.40928 C1.41529,4.22352 1.08747,3.09535 0.73792,2.0558 C0.53398,1.44852 0.85839,0.79008 1.46252,0.58509 C2.06606,0.38018 2.72152,0.70584 2.92563,1.31337 Z" id="path-13"></path>
        <path d="M1.42388,0.97835 C2.06052,0.97835 2.57663,1.4949 2.57663,2.13208 C2.57663,2.76926 2.06052,3.28571 1.42388,3.28571 C0.78724,3.28571 0.27122,2.76926 0.27122,2.13208 C0.27122,1.4949 0.78724,0.97835 1.42388,0.97835 Z" id="path-15"></path>
        <path d="M0.82779,0.87048 C1.03247,0.58075 1.22619,0.53692 1.50149,0.66695 C2.56709,1.17016 2.76621,3.02106 2.96772,5.51831 C3.03809,6.38861 3.44163,11.57001 3.48417,11.76728 C2.60681,11.89636 1.68468,12.92182 2.49219,14.63471 C2.65544,14.98019 2.87929,15.30028 3.07747,15.63075 C3.39617,16.16235 3.7171,16.69094 4.02622,17.2324 C4.26831,17.6561 4.49764,18.09353 4.72612,18.53318 C4.90854,18.88423 5.08685,19.24043 5.25507,19.60521 C5.40034,19.92187 5.48791,20.30285 5.6699,20.57037 C6.04212727,21.1112609 7.48709008,22.2824493 7.74673434,22.4909225 L7.78681,22.52299 C7.48266,22.07459 7.15291,21.65629 6.85492,21.20051 C6.52937,20.70099 6.1825,20.40981 5.87587,19.69955 C5.70269,19.29609 3.03295,14.25801 2.97885,14.24644 C2.12306,12.65113 3.90346,12.28104 4.36855,12.58166 C4.71747,12.75928 7.05215,13.65471 9.4346,18.11505 C9.79029,18.78362 10.21403,19.28966 10.58915,19.89099 C10.82002,20.25902 11.13659,20.54558 11.44083,20.81764 C11.68052,21.03275 11.95222,21.28945 12.22128,21.32025 C17.12092,21.7569 18.88736,23.5511 19.10959,23.78328 C19.5133,24.20269 23.20481,27.75259 24.20664,33.76089 C24.29464,34.37937 24.44522,35.9703 24.25689,36.81238 C24.19114,37.54931 24.09749,38.2853 24.07738,39.02608 L24.07738,39.02608 L24.90959,43.0303 C22.60255,44.34494 20.94218,45.00155 19.92846,45.0001423 C18.91475,44.99855 17.41848,44.33767 15.43965,43.01752 L15.43965,43.01752 L15.43965,38.65256 C15.43965,36.64222 13.95742,35.10892 13.69025,34.81053 C13.69025,34.81053 5.68506,28.61165 4.66243,26.97475 C3.63903,25.33673 0.07747,14.74167 0.01737,13.20108 C-0.0946,10.32859 0.37135,4.17397 0.37135,4.17397 C0.44094,3.02646 0.58561,1.21253 0.82779,0.87048 Z" id="path-17"></path>
        <path d="M24.49925,0.66723 C24.7742,0.53669 24.96826,0.58077 25.1732,0.8711 C25.41536,1.21306 25.55935,3.02638 25.62945,4.17431 C25.62945,4.17431 26.09539,10.3295 25.98231,13.20104 C25.9217,14.74042 22.36065,25.33767 21.33685,26.97431 C20.31416,28.61129 12.30951,34.81022 12.30951,34.81022 C12.04192,35.1087 10.56006,36.64199 10.56006,38.65241 L10.56006,38.65241 L10.56006,43.01615 C8.75714,44.33695 7.31558,44.99828 6.23539,45.0001532 C5.1552,45.00182 3.2434,44.34521 0.5,43.0303 L0.5,43.0303 L1.92281,39.02567 C1.90278,38.28523 1.80887,37.54899 1.74304,36.81207 C1.55498,35.9699 1.70512,34.37907 1.79312,33.76067 C2.79578,27.75231 6.48711,24.20355 6.89004,23.78414 C7.11295,23.55196 8.87858,21.75673 13.7781,21.32017 C14.04826,21.29032 14.31979,21.03362 14.55854,20.81851 C14.86371,20.54542 15.18061,20.2599 15.41088,19.89092 C15.78624,19.29063 16.2104,18.7845 16.56556,18.11594 C18.94838,13.65467 21.28267,12.75899 21.63149,12.58265 C22.09589,12.28083 23.87718,12.65204 23.02116,14.24734 C22.96791,14.259 20.29824,19.29697 20.12421,19.69923 C19.81767,20.41068 19.47081,20.70195 19.14518,21.20035 C18.84797,21.65621 18.51763,22.07545 18.21332,22.52282 C18.21332,22.52282 19.92056,21.16622 20.32991,20.57029 C20.51327,20.3027 20.60093,19.92188 20.745,19.60522 C20.91312,19.24028 21.09246,18.88511 21.27462,18.53312 C21.50232,18.09441 21.73173,17.65699 21.9745,17.23226 C22.28327,16.69183 22.6047,16.16221 22.9234,15.63164 C23.12157,15.29998 23.34533,14.98117 23.50858,14.63561 C24.31615,12.92178 23.39301,11.89676 22.51611,11.76725 C22.55925,11.57032 22.96244,6.38903 23.03323,5.51934 C23.23439,3.02201 23.43453,1.17112 24.49925,0.66723 Z" id="path-19"></path>
        <path d="M75.9423,7.35621 C77.6651,7.35621 79.2329,7.75473 80.6456,8.55177 C82.0584,9.34881 83.1667,10.46928 83.9707,11.91318 C84.7747,13.35709 85.1767,15.0378 85.1767,16.95531 C85.1767,18.87282 84.7747,20.55352 83.9707,21.99743 C83.1667,23.44134 82.0584,24.56181 80.6456,25.35884 C79.2329,26.15588 77.6651,26.5544 75.9423,26.5544 C73.5763,26.5544 71.7156,25.80357 70.3604,24.30191 L70.3604,24.30191 L70.3604,33 L64.9851,33 L64.9851,7.63344 L70.1192,7.63344 L70.1192,9.78198 L70.2964303,9.57562905 C71.6214335,8.09601635 73.5033609,7.35621 75.9423,7.35621 Z M160.9123,7.35621 C163.7836,7.35621 165.9889,8.04351 167.5279,9.41811 C169.067,10.79271 169.8365,12.86616 169.8365,15.63846 L169.8365,15.63846 L169.8365,26.27717 L164.8059,26.27717 L164.8059,23.95537 L164.685396,24.151451 C163.648916,25.75342 161.805481,26.5544 159.155,26.5544 C157.7308,26.5544 156.4961,26.31182 155.4509,25.82667 C154.4057,25.34152 153.6075,24.67155 153.0562,23.81675 C152.5049,22.96196 152.2292,21.99165 152.2292,20.90584 C152.2292,19.17315 152.8781,17.8101 154.176,16.81669 C155.4739,15.82328 157.4781,15.32658 160.1887,15.32658 L160.1887,15.32658 L164.4613,15.32658 L164.45585,15.0782571 C164.408612,14.0201964 164.054336,13.1962 163.3931,12.60626 C162.681,11.97094 161.6129,11.65328 160.1887,11.65328 C159.2009,11.65328 158.2304,11.80922 157.2771,12.12111 C156.3238,12.43299 155.5141,12.85461 154.8479,13.38597 L154.8479,13.38597 L152.9183,9.60871 L153.227567,9.3987076 C154.17345,8.7832552 155.28207,8.298796 156.5535,7.94533 C157.9662,7.55259 159.4191,7.35621 160.9123,7.35621 Z M217.3522,7.35621 C219.1669,7.35621 220.8093,7.74896 222.2794,8.53444 C223.7496,9.31993 224.9039,10.44618 225.7423,11.91318 C226.5808,13.38019 227,15.084 227,17.02461 C227,17.09392 226.9655,17.57907 226.8966,18.48007 L226.8966,18.48007 L212.8728,18.48007 L212.937231,18.7423323 C213.219416,19.7741569 213.795146,20.5992862 214.6645,21.21772 C215.6064,21.88769 216.7779,22.22268 218.1791,22.22268 C219.1439,22.22268 219.9996,22.07829 220.7461,21.78951 C221.4927,21.50073 222.1876,21.04445 222.8308,20.42068 L222.8308,20.42068 L225.6906,23.53952 L225.493314,23.7587088 C223.75483,25.6225029 221.270885,26.5544 218.0413,26.5544 C215.9509,26.5544 214.1018,26.14433 212.4938,25.32419 C210.8858,24.50405 209.6454,23.36625 208.7725,21.9108 C207.8996,20.45534 207.4631,18.80351 207.4631,16.95531 C207.4631,15.13021 207.8938,13.48416 208.7552,12.01715 C209.6167,10.55014 210.7997,9.40656 212.3043,8.58642 C213.8089,7.76628 215.4915,7.35621 217.3522,7.35621 Z M142.3746,7.35621 C143.684,7.35621 144.9876,7.50061 146.2854,7.78939 C147.5833,8.07817 148.6572,8.47669 149.5071,8.98494 L149.5071,8.98494 L147.7154,12.83151 L147.387211,12.6528507 C145.846376,11.8478569 144.17556,11.44536 142.3746,11.44536 C141.2261,11.44536 140.3647,11.60708 139.7904,11.93051 C139.2161,12.25395 138.929,12.66979 138.929,13.17805 C138.929,13.75561 139.2391,14.1599 139.8593,14.39093 C140.4795,14.62195 141.4673,14.84143 142.8226,15.04935 C144.3386,15.30348 145.5791,15.57493 146.5439,15.86371 C147.5087,16.15249 148.3471,16.67808 149.0592,17.44046 C149.7713,18.20284 150.1274,19.26556 150.1274,20.62861 C150.1274,21.78373 149.7828,22.81179 149.0937,23.71279 C148.4045,24.61379 147.3995,25.31264 146.0787,25.80934 C144.7579,26.30605 143.1901,26.5544 141.3754,26.5544 C139.8363,26.5544 138.3317,26.3638 136.8616,25.98261 C135.3914,25.60142 134.2199,25.12204 133.347,24.54448 L133.347,24.54448 L135.1387,20.66326 L135.420745,20.8367433 C136.189873,21.2896679 137.095078,21.6650111 138.1365,21.96278 C139.308,22.29776 140.4565,22.46526 141.5821,22.46526 C143.8563,22.46526 144.9933,21.89924 144.9933,20.76722 C144.9933,20.23586 144.6832,19.85467 144.063,19.62365 C143.4428,19.39262 142.4895,19.19625 141.2031,19.03453 C139.687,18.80351 138.4351,18.53783 137.4473,18.2375 C136.4596,17.93716 135.6039,17.40581 134.8803,16.64342 C134.1567,15.88104 133.7949,14.79522 133.7949,13.38597 C133.7949,12.20774 134.1338,11.16235 134.8114,10.2498 C135.489,9.33725 136.4768,8.62685 137.7747,8.1186 C139.0725,7.61034 140.6058,7.35621 142.3746,7.35621 Z M33.4573,7.35621 C35.2721,7.35621 36.9145,7.74896 38.3846,8.53444 C39.8548,9.31993 41.0091,10.44618 41.8475,11.91318 C42.686,13.38019 43.1052,15.084 43.1052,17.02461 C43.1052,17.09392 43.0707,17.57907 43.0018,18.48007 L43.0018,18.48007 L28.978,18.48007 L29.0424308,18.7423323 C29.324616,19.7741569 29.9003462,20.5992862 30.7697,21.21772 C31.7115,21.88769 32.8831,22.22268 34.2843,22.22268 C35.2491,22.22268 36.1048,22.07829 36.8513,21.78951 C37.5979,21.50073 38.2928,21.04445 38.9359,20.42068 L38.9359,20.42068 L41.7958,23.53952 L41.598514,23.7587088 C39.8600303,25.6225029 37.3760852,26.5544 34.1465,26.5544 C32.0561,26.5544 30.2069,26.14433 28.599,25.32419 C26.991,24.50405 25.7506,23.36625 24.8777,21.9108 C24.0048,20.45534 23.5683,18.80351 23.5683,16.95531 C23.5683,15.13021 23.999,13.48416 24.8604,12.01715 C25.7218,10.55014 26.9049,9.40656 28.4095,8.58642 C29.9141,7.76628 31.5967,7.35621 33.4573,7.35621 Z M180.0701,0.56408 L180.0701,9.60871 L180.267152,9.39929476 C181.603755,8.03724401 183.398767,7.35621 185.6521,7.35621 C187.3749,7.35621 188.9427,7.75473 190.3554,8.55177 C191.7681,9.34881 192.8765,10.46928 193.6805,11.91318 C194.4845,13.35709 194.8865,15.0378 194.8865,16.95531 C194.8865,18.87282 194.4845,20.55352 193.6805,21.99743 C192.8765,23.44134 191.7681,24.56181 190.3554,25.35884 C188.9427,26.15588 187.3749,26.5544 185.6521,26.5544 C183.1023,26.5544 181.1613,25.74581 179.8289,24.12864 L179.8289,24.12864 L179.8289,26.27717 L174.6949,26.27717 L174.6949,0.56408 L180.0701,0.56408 Z M53.9246,7.35621 C55.2339,7.35621 56.5375,7.50061 57.8354,7.78939 C59.1332,8.07817 60.2071,8.47669 61.0571,8.98494 L61.0571,8.98494 L59.2653,12.83151 L58.9371281,12.6528507 C57.3963636,11.8478569 55.7254667,11.44536 53.9246,11.44536 C52.776,11.44536 51.9146,11.60708 51.3403,11.93051 C50.766,12.25395 50.4789,12.66979 50.4789,13.17805 C50.4789,13.75561 50.789,14.1599 51.4092,14.39093 C52.0294,14.62195 53.0172,14.84143 54.3725,15.04935 C55.8886,15.30348 57.129,15.57493 58.0938,15.86371 C59.0586,16.15249 59.897,16.67808 60.6091,17.44046 C61.3212,18.20284 61.6773,19.26556 61.6773,20.62861 C61.6773,21.78373 61.3327,22.81179 60.6436,23.71279 C59.9545,24.61379 58.9495,25.31264 57.6286,25.80934 C56.3078,26.30605 54.74,26.5544 52.9253,26.5544 C51.3863,26.5544 49.8817,26.3638 48.4115,25.98261 C46.9414,25.60142 45.7698,25.12204 44.8969,24.54448 L44.8969,24.54448 L46.6887,20.66326 L46.9707182,20.8367433 C47.7397926,21.2896679 48.6450667,21.6650111 49.6864,21.96278 C50.8579,22.29776 52.0065,22.46526 53.1321,22.46526 C55.4062,22.46526 56.5433,21.89924 56.5433,20.76722 C56.5433,20.23586 56.2332,19.85467 55.6129,19.62365 C54.9927,19.39262 54.0394,19.19625 52.753,19.03453 C51.2369,18.80351 49.985,18.53783 48.9973,18.2375 C48.0095,17.93716 47.1538,17.40581 46.4303,16.64342 C45.7067,15.88104 45.3449,14.79522 45.3449,13.38597 C45.3449,12.20774 45.6837,11.16235 46.3613,10.2498 C47.039,9.33725 48.0267,8.62685 49.3246,8.1186 C50.6225,7.61034 52.1558,7.35621 53.9246,7.35621 Z M97.5811,7.35621 C99.5336,7.35621 101.2794,7.76628 102.8185,8.58642 C104.3575,9.40656 105.5635,10.54436 106.4364,11.99982 C107.3093,13.45528 107.7457,15.10711 107.7457,16.95531 C107.7457,18.80351 107.3093,20.45534 106.4364,21.9108 C105.5635,23.36625 104.3575,24.50405 102.8185,25.32419 C101.2794,26.14433 99.5336,26.5544 97.5811,26.5544 C95.6285,26.5544 93.877,26.14433 92.3264,25.32419 C90.7759,24.50405 89.5642,23.36625 88.6913,21.9108 C87.8184,20.45534 87.3819,18.80351 87.3819,16.95531 C87.3819,15.10711 87.8184,13.45528 88.6913,11.99982 C89.5642,10.54436 90.7759,9.40656 92.3264,8.58642 C93.877,7.76628 95.6285,7.35621 97.5811,7.35621 Z M10.4403,2.01953 L10.8937914,2.02501097 C12.84025,2.0725127 14.5439929,2.42877571 16.0051,3.0938 C17.5786,3.80998 18.7903,4.82649 19.6403,6.14333 C20.4902,7.46018 20.9151,9.0196 20.9151,10.82159 C20.9151,12.62359 20.4844,14.17723 19.623,15.48252 C18.7616,16.78781 17.5384,17.787 15.9534,18.48007 L15.9534,18.48007 L21.3631,26.27717 L15.3676,26.27717 L10.716,19.51969 L5.58197,19.51969 L5.58197,26.27717 L0,26.27717 L0,2.01953 L10.4403,2.01953 Z M203.8452,0.56408 L203.8452,26.27717 L198.4699,26.27717 L198.4699,0.56408 L203.8452,0.56408 Z M122.5965,7.35621 C124.8936,7.35621 126.7486,8.04929 128.1613,9.43544 C129.574,10.82159 130.2804,12.87771 130.2804,15.60381 L130.2804,15.60381 L130.2804,26.27717 L124.9051,26.27717 L124.9051,16.4355 L124.900812,16.1447936 C124.860791,14.8115232 124.54062,13.8052847 123.9403,13.12607 C123.2972,12.39834 122.3668,12.03447 121.1494,12.03447 C119.7941,12.03447 118.7144,12.45609 117.9104,13.29934 C117.1065,14.14258 116.7045,15.39589 116.7045,17.05927 L116.7045,17.05927 L116.7045,26.27717 L111.3292,26.27717 L111.3292,7.63344 L116.4633,7.63344 L116.4633,9.81663 L116.707048,9.56143444 C117.374059,8.89859593 118.1772,8.37722111 119.1164,7.99731 C120.1731,7.56991 121.3331,7.35621 122.5965,7.35621 Z M164.4613,18.48007 L160.7744,18.48007 L160.533915,18.4830648 C158.489038,18.5349742 157.4666,19.2617059 157.4666,20.66326 C157.4666,21.35634 157.7365,21.90502 158.2763,22.30931 C158.8162,22.71361 159.557,22.91575 160.4988,22.91575 C161.4176,22.91575 162.2331,22.70206 162.9452,22.27466 C163.6573,21.84726 164.1627,21.21772 164.4613,20.38603 L164.4613,20.38603 L164.4613,18.48007 Z M184.7218,11.7919 C183.3435,11.7919 182.2122,12.25972 181.3278,13.19537 C180.4434,14.13103 180.0012,15.38434 180.0012,16.95531 C180.0012,18.52628 180.4434,19.77959 181.3278,20.71524 C182.2122,21.65089 183.3435,22.11872 184.7218,22.11872 C186.1,22.11872 187.2314,21.65089 188.1157,20.71524 C189.0001,19.77959 189.4423,18.52628 189.4423,16.95531 C189.4423,15.38434 189.0001,14.13103 188.1157,13.19537 C187.2314,12.25972 186.1,11.7919 184.7218,11.7919 Z M75.012,11.7919 C73.6337,11.7919 72.5024,12.25972 71.618,13.19537 C70.7336,14.13103 70.2914,15.38434 70.2914,16.95531 C70.2914,18.52628 70.7336,19.77959 71.618,20.71524 C72.5024,21.65089 73.6337,22.11872 75.012,22.11872 C76.3903,22.11872 77.5216,21.65089 78.406,20.71524 C79.2904,19.77959 79.7325,18.52628 79.7325,16.95531 C79.7325,15.38434 79.2904,14.13103 78.406,13.19537 C77.5216,12.25972 76.3903,11.7919 75.012,11.7919 Z M97.5811,11.7919 C96.2028,11.7919 95.0657,12.25972 94.1699,13.19537 C93.274,14.13103 92.826,15.38434 92.826,16.95531 C92.826,18.52628 93.274,19.77959 94.1699,20.71524 C95.0657,21.65089 96.2028,22.11872 97.5811,22.11872 C98.9593,22.11872 100.0906,21.65089 100.975,20.71524 C101.8594,19.77959 102.3016,18.52628 102.3016,16.95531 C102.3016,15.38434 101.8594,14.13103 100.975,13.19537 C100.0906,12.25972 98.9593,11.7919 97.5811,11.7919 Z M217.3866,11.44536 C216.1691,11.44536 215.1469,11.7919 214.32,12.48497 C213.493,13.17805 212.9877,14.12525 212.8039,15.32658 L212.8039,15.32658 L221.9349,15.32658 C221.7511,14.14835 221.2457,13.20693 220.4188,12.5023 C219.5918,11.79767 218.5811,11.44536 217.3866,11.44536 Z M33.4918,11.44536 C32.2743,11.44536 31.2521,11.7919 30.4252,12.48497 C29.5982,13.17805 29.0928,14.12525 28.9091,15.32658 L28.9091,15.32658 L38.0401,15.32658 C37.8563,14.14835 37.3509,13.20693 36.524,12.5023 C35.697,11.79767 34.6863,11.44536 33.4918,11.44536 Z M10.1302,6.59383 L5.58197,6.59383 L5.58197,15.04935 L10.1302,15.04935 C11.8071,15.04935 13.082,14.67971 13.9549,13.94043 C14.8278,13.20115 15.2643,12.16154 15.2643,10.82159 C15.2643,9.45854 14.8278,8.41315 13.9549,7.68543 C13.082,6.9577 11.8071,6.59383 10.1302,6.59383 L10.1302,6.59383 Z" id="path-21"></path>
        <path d="M41.0504,6.82262 C42.8656,6.82262 44.5086,7.21712 45.9792,8.00614 C47.4498,8.79515 48.6044,9.92645 49.4431,11.40004 C50.2818,12.87363 50.7012,14.58509 50.7012,16.53441 C50.7012,16.60403 50.6667,17.09136 50.5978,17.9964 L50.5978,17.9964 L36.5696,17.9964 L36.6340557,18.2598383 C36.9163473,19.2962898 37.4922692,20.1251177 38.3619,20.74633 C39.304,21.41931 40.4759,21.7558 41.8776,21.7558 C42.8426,21.7558 43.6986,21.61076 44.4454,21.32069 C45.1922,21.03061 45.8872,20.57229 46.5306,19.94572 L46.5306,19.94572 L49.3914,23.07855 L49.1940568,23.2987225 C47.4550635,25.1708808 44.9702481,26.10696 41.7397,26.10696 C39.6487,26.10696 37.799,25.69505 36.1905,24.87123 C34.582,24.04741 33.3412,22.90451 32.468,21.44252 C31.5949,19.98053 31.1583,18.32129 31.1583,16.46479 C31.1583,14.6315 31.5891,12.97806 32.4508,11.50447 C33.3125,10.03088 34.4959,8.88217 36.0009,8.05835 C37.506,7.23453 39.1891,6.82262 41.0504,6.82262 Z M78.1025,6.82262 C80.0557,6.82262 81.7618,7.23453 83.2209,8.05835 C84.68,8.88217 85.7427,10.05988 86.4091,11.59149 L86.4091,11.59149 L82.2386,13.85409 L82.1043605,13.6252416 C81.1462401,12.0605568 79.8007909,11.27821 78.0681,11.27821 C76.6664,11.27821 75.506,11.74233 74.5869,12.67058 C73.6678,13.59883 73.2082,14.86356 73.2082,16.46479 C73.2082,18.06602 73.6678,19.33076 74.5869,20.259 C75.506,21.18725 76.6664,21.65137 78.0681,21.65137 C79.9063,21.65137 81.2965,20.79275 82.2386,19.07549 L82.2386,19.07549 L86.4091,21.3729 L86.270536,21.6656081 C85.5992449,23.011364 84.5827267,24.0741047 83.2209,24.85383 C81.7618,25.68925 80.0557,26.10696 78.1025,26.10696 C76.1264,26.10696 74.3514,25.69505 72.7774,24.87123 C71.2034,24.04741 69.974,22.90451 69.0894,21.44252 C68.2047,19.98053 67.7624,18.32129 67.7624,16.46479 C67.7624,14.6083 68.2047,12.94905 69.0894,11.48706 C69.974,10.02507 71.2034,8.88217 72.7774,8.05835 C74.3514,7.23453 76.1264,6.82262 78.1025,6.82262 Z M96.9905,6.82262 C99.8628,6.82262 102.0687,7.513 103.6082,8.89377 C105.1477,10.27454 105.9175,12.3573 105.9175,15.14204 L105.9175,15.14204 L105.9175,25.82849 L100.8853,25.82849 L100.8853,23.49627 L100.764771,23.6932303 C99.7280698,25.3023834 97.8840462,26.10696 95.2327,26.10696 C93.808,26.10696 92.573,25.8633 91.5275,25.37597 C90.482,24.88864 89.6835,24.21566 89.132,23.35703 C88.5805,22.4984 88.3048,21.52374 88.3048,20.43305 C88.3048,18.69259 88.9539,17.32342 90.2522,16.32555 C91.5505,15.32769 93.5553,14.82875 96.2667,14.82875 L96.2667,14.82875 L100.5406,14.82875 L100.535149,14.5793142 C100.487911,13.5165112 100.133614,12.6888164 99.4721,12.09623 C98.7598,11.45806 97.6913,11.13897 96.2667,11.13897 C95.2786,11.13897 94.3078,11.29561 93.3542,11.6089 C92.4006,11.92218 91.5907,12.34569 90.9243,12.87943 L90.9243,12.87943 L88.9941,9.08522 L89.30346,8.87427621 C90.24963,8.2560645 91.35861,7.76943 92.6304,7.41438 C94.0436,7.01987 95.4969,6.82262 96.9905,6.82262 Z M129.6654,0 L129.6654,25.82849 L124.5298,25.82849 L124.5298,23.67031 L124.352569,23.8775873 C123.028036,25.3638416 121.157004,26.10696 118.7393,26.10696 C116.9929,26.10696 115.4132,25.71246 114,24.92345 C112.5869,24.13444 111.4782,23.00894 110.674,21.54695 C109.8697,20.08496 109.4676,18.3909 109.4676,16.46479 C109.4676,14.53868 109.8697,12.84463 110.674,11.38264 C111.4782,9.92065 112.5869,8.79515 114,8.00614 C115.4132,7.21712 116.9929,6.82262 118.7393,6.82262 C121.106,6.82262 122.9558,7.57682 124.2885,9.08522 L124.2885,9.08522 L124.2885,0 L129.6654,0 Z M143.4522,6.82262 C145.4053,6.82262 147.1517,7.23453 148.6912,8.05835 C150.2307,8.88217 151.4371,10.02507 152.3103,11.48706 C153.1834,12.94905 153.62,14.6083 153.62,16.46479 C153.62,18.32129 153.1834,19.98053 152.3103,21.44252 C151.4371,22.90451 150.2307,24.04741 148.6912,24.87123 C147.1517,25.69505 145.4053,26.10696 143.4522,26.10696 C141.4991,26.10696 139.747,25.69505 138.196,24.87123 C136.645,24.04741 135.4329,22.90451 134.5597,21.44252 C133.6865,19.98053 133.2499,18.32129 133.2499,16.46479 C133.2499,14.6083 133.6865,12.94905 134.5597,11.48706 C135.4329,10.02507 136.645,8.88217 138.196,8.05835 C139.747,7.23453 141.4991,6.82262 143.4522,6.82262 Z M4.6186,1.46199 L13.649,16.60403 L22.5415,1.46199 L27.1256,1.46199 L27.1946,25.82849 L21.9556,25.82849 L21.9211,11.20859 L14.8209,23.2526 L12.3048,23.2526 L5.239,11.52187 L5.239,25.82849 L0,25.82849 L0,1.46199 L4.6186,1.46199 Z M65.7978,6.82262 L65.7978,11.83516 L65.6058702,11.8205466 C65.1133556,11.7838709 64.7752222,11.76554 64.5914,11.76554 C63.0519,11.76554 61.8455,12.20065 60.9724,13.07089 C60.0992,13.94112 59.6626,15.24647 59.6626,16.98693 L59.6626,16.98693 L59.6626,25.82849 L54.2857,25.82849 L54.2857,7.10109 L59.4213,7.10109 L59.4213,9.57255 L59.6023265,9.33118686 C60.2242612,8.54486289 61.0313273,7.94073727 62.0236,7.51881 C63.1151,7.05468 64.3731,6.82262 65.7978,6.82262 L65.7978,6.82262 Z M100.5406,17.9964 L96.8526,17.9964 L96.6120391,17.9994082 C94.5665166,18.0515502 93.5438,18.7815378 93.5438,20.18938 C93.5438,20.88557 93.8138,21.43672 94.3538,21.84283 C94.8938,22.24893 95.6348,22.45199 96.5769,22.45199 C97.496,22.45199 98.3118,22.23733 99.0241,21.80802 C99.7364,21.3787 100.2419,20.74633 100.5406,19.91091 L100.5406,19.91091 L100.5406,17.9964 Z M119.6699,11.27821 C118.2912,11.27821 117.1538,11.74813 116.2576,12.68798 C115.3615,13.62783 114.9134,14.88677 114.9134,16.46479 C114.9134,18.04281 115.3615,19.30175 116.2576,20.2416 C117.1538,21.18145 118.2912,21.65137 119.6699,21.65137 C121.0256,21.65137 122.1515,21.18145 123.0477,20.2416 C123.9438,19.30175 124.3919,18.04281 124.3919,16.46479 C124.3919,14.88677 123.9438,13.62783 123.0477,12.68798 C122.1515,11.74813 121.0256,11.27821 119.6699,11.27821 Z M143.4522,11.27821 C142.0735,11.27821 140.9361,11.74813 140.04,12.68798 C139.1438,13.62783 138.6957,14.88677 138.6957,16.46479 C138.6957,18.04281 139.1438,19.30175 140.04,20.2416 C140.9361,21.18145 142.0735,21.65137 143.4522,21.65137 C144.8309,21.65137 145.9626,21.18145 146.8472,20.2416 C147.7319,19.30175 148.1742,18.04281 148.1742,16.46479 C148.1742,14.88677 147.7319,13.62783 146.8472,12.68798 C145.9626,11.74813 144.8309,11.27821 143.4522,11.27821 Z M41.0848,10.93012 C39.867,10.93012 38.8445,11.27821 38.0172,11.97439 C37.19,12.67058 36.6845,13.62203 36.5007,14.82875 L36.5007,14.82875 L45.6345,14.82875 C45.4507,13.64524 44.9451,12.69959 44.1179,11.9918 C43.2907,11.28401 42.2797,10.93012 41.0848,10.93012 Z" id="path-23"></path>
    </defs>
    <g id="Page-1" stroke="none" stroke-width="1" fill="none" fill-rule="evenodd">
        <g id="Group-7">
            <g id="Group-15" transform="translate(13.000000, 0.000000)">
                <mask id="mask-2" fill="white">
                    <use xlink:href="#path-1"></use>
                </mask>
                <g id="Clip-14"></g>
                <polygon id="Fill-13" fill="#FFBF00" mask="url(#mask-2)" points="-4.84234 48.44589 28.66152 48.44589 28.66152 -4.94372 -4.84234 -4.94372"></polygon>
            </g>
            <g id="Group-18" transform="translate(13.000000, 0.000000)">
                <mask id="mask-4" fill="white">
                    <use xlink:href="#path-3"></use>
                </mask>
                <g id="Clip-17"></g>
                <polygon id="Fill-16" fill="#E7AD00" mask="url(#mask-4)" points="-4.84146 43.9539 20.7774 43.9539 20.7774 -4.99044 -4.84146 -4.99044"></polygon>
            </g>
            <g id="Group-21" transform="translate(2.000000, 15.000000)">
                <mask id="mask-6" fill="white">
                    <use xlink:href="#path-5"></use>
                </mask>
                <g id="Clip-20"></g>
                <polygon id="Fill-19" fill="#9AD14B" mask="url(#mask-6)" points="-4.46968 53.0303 50.28886 53.0303 50.28886 -4.18615 -4.46968 -4.18615"></polygon>
            </g>
            <g id="Group-24" transform="translate(2.000000, 15.000000)">
                <mask id="mask-8" fill="white">
                    <use xlink:href="#path-7"></use>
                </mask>
                <g id="Clip-23"></g>
                <polygon id="Fill-22" fill="#90BC42" mask="url(#mask-8)" points="-4.46968 53.0303 29.87762 53.0303 29.87762 -4.18615 -4.46968 -4.18615"></polygon>
            </g>
            <g id="Group-27" transform="translate(7.000000, 9.000000)">
                <mask id="mask-10" fill="white">
                    <use xlink:href="#path-9"></use>
                </mask>
                <g id="Clip-26"></g>
                <polygon id="Fill-25" fill="#7DA032" mask="url(#mask-10)" points="-4.24035 24.87013 13.23815 24.87013 13.23815 -4.20779 -4.24035 -4.20779"></polygon>
            </g>
            <g id="Group-30" transform="translate(34.000000, 9.000000)">
                <mask id="mask-12" fill="white">
                    <use xlink:href="#path-11"></use>
                </mask>
                <g id="Clip-29"></g>
                <polygon id="Fill-28" fill="#7DA032" mask="url(#mask-12)" points="-4.41896 24.92641 13.05954 24.92641 13.05954 -4.15151 -4.41896 -4.15151"></polygon>
            </g>
            <g id="Group-33" transform="translate(28.000000, 10.000000)">
                <mask id="mask-14" fill="white">
                    <use xlink:href="#path-13"></use>
                </mask>
                <g id="Clip-32"></g>
                <polygon id="Fill-31" fill="#FFFFFF" mask="url(#mask-14)" points="-4.32304 22.80087 10.79383 22.80087 10.79383 -4.47619 -4.32304 -4.47619"></polygon>
            </g>
            <g id="Group-36" transform="translate(27.000000, 6.000000)">
                <mask id="mask-16" fill="white">
                    <use xlink:href="#path-15"></use>
                </mask>
                <g id="Clip-35"></g>
                <polygon id="Fill-34" fill="#FFFFFF" mask="url(#mask-16)" points="-4.72878 8.28571 7.57662 8.28571 7.57662 -4.02165 -4.72878 -4.02165"></polygon>
            </g>
            <g id="Group-39" transform="translate(0.000000, 20.000000)">
                <mask id="mask-18" fill="white">
                    <use xlink:href="#path-17"></use>
                </mask>
                <g id="Clip-38"></g>
                <polygon id="Fill-37" fill="#D3987F" mask="url(#mask-18)" points="-5 50.00015 29.90959 50.00015 29.90959 -4.40259 -5 -4.40259"></polygon>
            </g>
            <g id="Group-42" transform="translate(25.000000, 20.000000)">
                <mask id="mask-20" fill="white">
                    <use xlink:href="#path-19"></use>
                </mask>
                <g id="Clip-41"></g>
                <polygon id="Fill-40" fill="#D3987F" mask="url(#mask-20)" points="-4.5 50.00016 31 50.00016 31 -4.40259 -4.5 -4.40259"></polygon>
            </g>
            <g id="Group-45" transform="translate(63.000000, 31.000000)">
                <mask id="mask-22" fill="white">
                    <use xlink:href="#path-21"></use>
                </mask>
                <g id="Clip-44"></g>
                <polygon id="Fill-43" fill="#FFBF00" mask="url(#mask-22)" points="-5 38 232 38 232 -4.43592 -5 -4.43592"></polygon>
            </g>
            <g id="Group-48" transform="translate(63.000000, 8.000000)">
                <mask id="mask-24" fill="white">
                    <use xlink:href="#path-23"></use>
                </mask>
                <g id="Clip-47"></g>
                <polygon id="Fill-46" fill="#A0C35A" mask="url(#mask-24)" points="-5 31.10696 158.62 31.10696 158.62 -5 -5 -5"></polygon>
            </g>
        </g>
    </g>
</svg>