<?xml version="1.0" encoding="UTF-8"?>
<svg width="4717px" height="6243px" viewBox="0 0 4717 6243" version="1.1" xmlns="http://www.w3.org/2000/svg" xmlns:xlink="http://www.w3.org/1999/xlink">
    <!-- Generator: Sketch 63.1 (92452) - https://sketch.com -->
    <title>Group 4</title>
    <desc>Created with Sketch.</desc>
    <defs>
        <radialGradient cx="47.5589312%" cy="13.8892221%" fx="47.5589312%" fy="13.8892221%" r="98.9353905%" gradientTransform="translate(0.475589,0.138892),scale(1.000000,0.745553),rotate(66.387514),translate(-0.475589,-0.138892)" id="radialGradient-1">
            <stop stop-color="#2DBFA6" offset="0%"></stop>
            <stop stop-color="#566CE4" offset="50.9158573%"></stop>
            <stop stop-color="#8A499A" offset="100%"></stop>
        </radialGradient>
        <radialGradient cx="47.5589312%" cy="13.8892221%" fx="47.5589312%" fy="13.8892221%" r="539.918228%" gradientTransform="translate(0.475589,0.138892),scale(0.073979,1.000000),rotate(7.191039),translate(-0.475589,-0.138892)" id="radialGradient-2">
            <stop stop-color="#2DBFA6" offset="0%"></stop>
            <stop stop-color="#566CE4" offset="50.9158573%"></stop>
            <stop stop-color="#8A499A" offset="100%"></stop>
        </radialGradient>
        <path d="M1065.46876,1728.32739 L77.6969632,1728.32739 C35.1584559,1728.32739 0.675125,1693.84914 0.675125,1651.31689 L0.675125,77.0105005 C0.675125,34.4782549 35.1584559,0 77.6969632,0 L1065.46876,0 C1108.00727,0 1142.4906,34.4782549 1142.4906,77.0105005 L1142.4906,1651.32268 C1142.4906,1693.84914 1108.00727,1728.32739 1065.46876,1728.32739 Z" id="path-3"></path>
        <path d="M1064.79364,1728.32739 L77.0218382,1728.32739 C34.4833309,1728.32739 0,1693.84914 0,1651.31689 L0,77.0105005 C0,34.4782549 34.4833309,0 77.0218382,0 L1064.79364,0 C1107.33215,0 1141.81548,34.4782549 1141.81548,77.0105005 L1141.81548,1651.32268 C1141.81548,1693.84914 1107.33215,1728.32739 1064.79364,1728.32739 Z" id="path-5"></path>
    </defs>
    <g id="Page-1" stroke="none" stroke-width="1" fill="none" fill-rule="evenodd">
        <g id="landing-index" transform="translate(-172.000000, -689.000000)">
            <g id="Group-4" transform="translate(172.000000, 689.000000)">
                <g id="pinterest">
                    <g id="Background">
                        <path d="M4125.9886,5969.26268 C4125.9886,5969.26268 4662.13814,5793.08741 4607.81199,4463.18955 C4553.48585,3133.2859 3507.70751,3407.13895 3534.87059,2740.61335 C3562.03366,2074.08776 3501.59669,-1089.94448 1026.02454,390.225108 C-1449.54762,1870.3947 1239.94387,3810.00049 1993.54266,3458.06655 C2747.14146,3106.13262 585.883213,4545.55781 973.856853,5292.43237 C1361.83049,6039.30694 2598.38688,6469.56478 4125.9886,5969.26268 Z" id="Path" fill="url(#radialGradient-1)" fill-rule="nonzero" opacity="0.269621466"></path>
                        <ellipse id="Oval" fill="url(#radialGradient-2)" fill-rule="nonzero" opacity="0.269621466" cx="2516.26112" cy="6080.2307" rx="2200.20896" ry="162.769301"></ellipse>
                        <g id="Backgriund" transform="translate(1233.580882, 651.022243)" fill-rule="nonzero">
                            <path d="M2659.29369,4933.34994 L2659.29369,4933.34994 L2659.29369,383.979211 C2659.25897,172.318946 2487.65246,0.702984245 2275.96104,0.702984245 L383.509588,0.702984245 C171.818162,0.702984245 0.217441176,172.318946 0.176928554,383.979211 L0.176928554,4996.71147 C0.142213235,5208.34859 171.702426,5379.9877 383.376493,5379.9877 C383.422787,5379.9877 383.463294,5379.9877 383.509588,5379.9877 L2275.96104,5379.9877 C2487.65246,5379.9877 2659.2879,5208.44116 2659.35735,4996.7809 L2659.29369,4933.34994 Z" id="Path" fill="#0E538C"></path>
                            <path d="M982.740702,224.15494 C982.775368,244.347776 966.433544,260.750839 946.237735,260.785609 C926.041926,260.82027 909.636449,244.480852 909.601673,224.288016 C909.567007,204.09518 925.908831,187.692117 946.10464,187.6574 C946.150934,187.6574 946.191441,187.6574 946.237735,187.6574 C966.398824,187.651615 982.740702,203.996819 982.740702,224.15494 Z" id="Path" fill="#0B4870"></path>
                            <path d="M1082.28457,178.880171 L1764.56728,178.880171 C1769.26613,178.880171 1773.07961,182.687302 1773.07961,187.391249 L1773.07961,260.91863 C1773.07961,265.616791 1769.26613,269.429708 1764.56728,269.429708 L1082.28457,269.429708 C1077.58572,269.429708 1073.77224,265.622577 1073.77224,260.91863 L1073.77224,187.391249 C1073.77224,182.687302 1077.57993,178.880171 1082.28457,178.880171 Z" id="Path" fill="#0B4870"></path>
                            <ellipse id="Oval" fill="#0B4870" cx="1322.45267" cy="5153.93786" rx="145.884338" ry="145.862864"></ellipse>
                            <rect id="Rectangle" fill="#F7F7F7" x="69.1956765" y="447.537464" width="2521.00983" height="4485.48267"></rect>
                        </g>
                        <path d="M3686.11926,1584.82518 L1433.83521,1584.82518 C1397.29757,1584.82518 1367.68091,1555.21288 1367.68091,1518.68063 L1367.68091,1309.34051 C1367.68091,1272.80826 1397.29757,1243.19596 1433.83521,1243.19596 L3686.11926,1243.19596 C3722.65689,1243.19596 3752.27355,1272.80826 3752.27355,1309.34051 L3752.27355,1518.68063 C3752.27355,1555.2071 3722.65689,1584.82518 3686.11926,1584.82518 Z" id="Path" fill="#2A94F4" fill-rule="nonzero" opacity="0.25"></path>
                        <g id="Group" transform="translate(1367.000000, 3648.371013)">
                            <mask id="mask-4" fill="white">
                                <use xlink:href="#path-3"></use>
                            </mask>
                            <use id="Mask" fill="#E99D06" fill-rule="nonzero" opacity="0.71" xlink:href="#path-3"></use>
                            <g mask="url(#mask-4)">
                                <g transform="translate(-51.000000, 212.628987)">
                                    <path d="M1197.22691,405 L48.7730887,405 C21.3382263,405 0,433.212892 0,468.28838 L0,1056.94656 C0,1092.02205 22.1003058,1120.23494 48.7730887,1120.23494 L874.867278,1120.23494 L1016.61407,1304 L1016.61407,1120.23494 L1197.22691,1120.23494 C1224.66177,1120.23494 1246,1092.02205 1246,1056.94656 L1246,468.28838 C1246,433.212892 1223.89969,405 1197.22691,405 Z" id="Path" fill="#498CCA" fill-rule="nonzero"></path>
                                    <g id="Group" stroke-width="1" fill="none" fill-rule="evenodd" transform="translate(240.000000, 0.000000)">
                                        <path d="M564.113504,324.037228 C562.588873,308.78942 555.728033,294.304003 545.055615,284.392928 C534.383198,273.719463 525.235411,261.521216 518.374571,248.56058 C516.84994,241.699066 513.800678,234.837553 509.226785,228.73843 C503.12826,213.490622 499.316683,197.480424 497.792051,181.470226 L494.742789,152.499392 C494.742789,151.737001 494.742789,151.737001 494.742789,150.974611 L493.218158,137.251584 C490.168896,107.518359 476.447216,81.5970863 456.627012,62.5373267 C428.421337,28.2297595 387.256297,5.35804809 339.230418,0.783705799 L339.230418,0.783705799 C284.343699,-3.79063649 234.030873,17.5562942 198.964357,55.6758133 C158.561634,77.7851344 132.642905,122.766167 137.216798,171.559151 L139.503745,192.143692 C127.306696,202.054767 118.921225,216.540184 117.396594,234.075163 L117.396594,234.075163 C116.634279,247.035799 119.683541,259.996436 125.782065,270.669901 C102.150283,295.828784 86.9039722,328.61157 83.0923945,365.206308 C75.469239,452.118812 140.26606,529.12024 227.170033,535.981754 C280.532121,540.556096 329.320316,518.446775 361.337569,480.327256 C377.346195,493.287893 397.928715,501.674187 420.035866,503.198967 L420.035866,503.198967 C480.258794,508.5357 533.620882,463.554668 538.957091,402.563437 L538.957091,402.563437 C539.719406,394.939533 539.719406,387.315629 538.957091,380.454116 C556.490348,367.493479 566.400451,346.146549 564.113504,324.037228 Z" id="Path" fill="#004970" fill-rule="nonzero"></path>
                                        <g transform="translate(0.000000, 154.786563)" fill-rule="nonzero" id="Path">
                                            <path d="M615.950961,172.300226 C615.950961,172.300226 609.852437,150.190905 615.950961,125.032023 L635.771165,82.3381612 C638.820427,75.4766478 646.443583,71.6646959 654.066738,73.951867 C654.066738,73.951867 654.066738,73.951867 654.066738,73.951867 L676.936205,46.5058133 C679.985467,42.6938614 711.240404,9.14868458 713.527351,5.33673267 C716.576613,0.762390382 728.773662,-3.81195191 731.060608,5.33673267 C734.872186,21.3469307 703.617249,67.0903536 703.617249,67.0903536 C703.617249,67.0903536 718.86356,73.951867 721.912822,82.3381612 C724.962084,90.7244554 725.7244,93.774017 725.7244,93.774017 C725.7244,93.774017 734.109871,102.160311 737.159133,115.120948 L738.683764,118.9329 C738.683764,118.9329 742.495342,118.170509 747.83155,134.180707 C750.880813,142.567001 747.83155,148.666124 744.782288,152.478076 C741.733026,156.290028 737.921448,158.577199 733.347555,160.10198 L725.7244,163.151542 L734.109871,217.281259 L622.811801,211.182136 L615.950961,172.300226 Z" fill="#FACBB6"></path>
                                            <path d="M775.27491,522.237412 C771.463332,484.880283 768.41407,446.760764 765.364808,409.403635 C763.077861,377.383239 753.930075,245.489703 750.118497,199.74628 C749.356182,190.597595 741.733026,184.498472 732.58524,185.260863 L618.237908,197.459109 C608.327806,198.221499 600.70465,208.132574 602.229281,218.043649 C613.664014,292.757907 623.574116,480.305941 623.574116,480.305941 L566.400451,422.364272 C551.916455,407.878854 538.194775,391.868656 524.473096,376.620849 C500.078998,349.937185 468.061745,329.352645 436.044492,311.055276 L432.232914,308.005714 L432.232914,309.530495 C423.085128,304.193762 413.175026,299.61942 403.264924,295.807468 L205.062882,295.045078 C195.15278,295.045078 185.242678,296.569859 175.332576,298.094639 C95.2894432,313.342447 28.2056752,387.294314 11.4347332,482.593112 C9.14778655,497.840919 7.62315546,513.088727 7.62315546,528.336535 L0.762315546,600.763621 C17.5332576,747.142574 141.790692,859.976351 291.966854,859.976351 C424.609759,859.976351 535.907829,772.301457 572.498975,651.843777 C599.180019,661.754851 626.623379,670.141146 649.492845,670.903536 C672.362311,671.665926 694.469462,664.804413 715.051982,654.893338 C734.109871,645.744653 752.405444,633.546407 763.840177,614.486648 C781.373434,587.040594 778.324172,553.495417 775.27491,522.237412 Z" fill="#CDEAFB"></path>
                                        </g>
                                        <g transform="translate(234.446974, 96.672277)" fill-rule="nonzero" id="Path">
                                            <path d="M259.533499,186.19587 L246.574135,61.9262376 C244.287188,38.2921358 233.614771,16.9452051 218.36846,0.17261669 C212.269936,55.8271146 165.006372,99.2833663 107.832706,99.2833663 L6.4447382,99.2833663 L18.6417869,212.117143 C19.4041025,217.453876 20.166418,222.790608 21.6910491,228.127341 L2.63316047,331.812433 C-6.51462608,380.605417 23.2156802,427.873621 70.479244,437.022306 C116.980492,446.17099 162.719425,414.150594 172.629527,365.35761 L184.06426,304.366379 C232.852455,286.06901 264.869708,238.800806 259.533499,186.19587 Z" fill="#FACBB6"></path>
                                            <path d="M145.186168,311.227893 C96.3979726,316.564625 51.4213554,290.643352 30.8388357,250.236662 L29.3142046,258.622956 C23.9779958,290.643352 55.2329331,322.663748 97.9226037,328.762871 L97.9226037,328.762871 C129.177541,333.337214 158.145532,324.188529 173.391843,305.89116 C168.055634,307.415941 162.719425,308.178331 157.383216,308.940721 L145.186168,311.227893 Z" fill="#F6B7A0" opacity="0.46"></path>
                                        </g>
                                        <g transform="translate(188.269964, 48.051909)" fill-rule="nonzero" id="Path">
                                            <path d="M273.693257,0 L140.288036,0 C80.8274238,0 32.0392288,48.7929844 32.0392288,108.259434 L32.0392288,144.854173 C31.2769133,144.854173 31.2769133,144.854173 30.5145978,144.854173 L30.5145978,144.854173 C11.4567091,147.903734 -2.26497072,166.201103 0.784291464,185.260863 L7.64513138,226.429943 C10.6943936,245.489703 28.9899667,259.21273 48.0478553,256.163168 C53.3840641,255.400778 57.9579574,253.113607 61.7695351,250.826436 L90.7375259,288.183564 C96.8360502,296.569859 106.746152,301.144201 117.41857,301.144201 L157.058978,301.144201 C159.345925,301.144201 160.870556,299.61942 160.870556,297.332249 C160.870556,295.045078 159.345925,293.520297 157.058978,293.520297 L117.41857,293.520297 C109.795415,293.520297 102.172259,289.708345 96.8360502,283.609222 L67.8680595,246.252093 C75.491215,238.62819 79.3027927,227.192334 77.015846,216.518868 L70.1550061,175.349788 C67.8680595,160.10198 55.6710108,148.666124 41.9493309,146.378953 L41.9493309,109.021825 C41.9493309,55.6544979 85.401317,11.4358557 139.525721,11.4358557 L272.930941,11.4358557 C275.980203,11.4358557 278.26715,9.14868458 278.26715,6.09912306 C279.029466,2.28717115 276.742519,0 273.693257,0 Z" fill="#FABB58"></path>
                                            <g transform="translate(134.778721, 284.961386)">
                                                <path d="M29.9034132,21.5195474 L13.8947867,21.5195474 C9.32089346,21.5195474 5.50931574,17.7075955 5.50931574,13.1332532 L5.50931574,13.1332532 C5.50931574,8.55891089 9.32089346,4.74695898 13.8947867,4.74695898 L29.9034132,4.74695898 C34.4773065,4.74695898 38.2888842,8.55891089 38.2888842,13.1332532 L38.2888842,13.1332532 C38.2888842,17.7075955 34.4773065,21.5195474 29.9034132,21.5195474 Z" fill="#F4A8B4"></path>
                                                <path d="M29.9034132,26.0938897 L13.8947867,26.0938897 C7.03394683,26.0938897 0.935422461,20.757157 0.935422461,13.1332532 C0.935422461,6.27173975 6.27163128,0.17261669 13.8947867,0.17261669 L29.9034132,0.17261669 C36.7642531,0.17261669 42.8627775,5.50934936 42.8627775,13.1332532 C42.1004619,19.9947666 36.7642531,26.0938897 29.9034132,26.0938897 Z" fill="#FABB58"></path>
                                            </g>
                                        </g>
                                    </g>
                                </g>
                            </g>
                        </g>
                        <g id="gardening" transform="translate(2610.458074, 3648.371013)">
                            <mask id="mask-6" fill="white">
                                <use xlink:href="#path-5"></use>
                            </mask>
                            <use id="Mask" fill="#2A94F4" fill-rule="nonzero" opacity="0.13" xlink:href="#path-5"></use>
                            <g mask="url(#mask-6)">
                                <g transform="translate(-251.458074, 345.628987)">
                                    <path d="M634,111 C544.97964,56.5368541 443.574808,22.2267378 339.645665,11.4284892 C333.857877,10.8316708 327.595909,10.4014064 322.617017,13.4132573 C313.007894,19.2565255 314.52806,34.4962131 322.059158,42.8377907 C329.590255,51.1654888 340.761383,54.99623 350.537863,60.5619082 C360.314343,66.1275865 369.742161,75.4129699 368.989052,86.5859649 C288.113434,61.9776169 202.189191,53.9413882 118.133777,63.1296152 C108.636226,64.1705774 98.8039603,65.5446476 90.7568433,70.6800615 C82.7097263,75.8154753 76.963778,85.7531951 79.6833409,94.8720246 C83.9928022,109.320581 103.517869,111.152674 118.63585,110.139471 L634,111 Z" id="Path" fill="#E9F9FF" fill-rule="nonzero"></path>
                                    <path d="M1276,392 C1231.79418,342.669116 1170.22728,309.29205 1104.8334,299.215955 C1111.13255,314.791919 1121.07712,328.870463 1133.66146,339.996152 C991.308951,341.689496 855.939984,254.363336 714.565172,271.142834 C705.304996,272.234411 694.983321,274.487537 690.01104,282.394473 C681.309547,296.221115 696.114655,313.280505 710.905796,320.193826 C725.696937,327.093152 744.021749,332.662994 749.273372,348.15499 C719.355881,349.610426 689.43839,351.065862 659.506931,352.521298 C654.33911,352.773201 648.766244,353.193038 644.855461,356.579726 C637.480841,363.003237 641.517328,376.256101 649.953446,381.210181 C658.375597,386.178256 668.864877,385.352576 678.585966,384.372956 L1276,392 Z" id="Path" fill="#E9F9FF" fill-rule="nonzero"></path>
                                    <g id="Group" stroke-width="1" fill="none" fill-rule="evenodd" transform="translate(579.000000, 912.000000)">
                                        <path d="M322.692585,311.415113 C199.77602,318.090699 28.6270796,258.163725 0.0557760928,171.297485 C51.6207739,146.615934 216.662232,205.553416 322.692585,311.415113 Z" id="Path" fill="#B0E1FF" fill-rule="nonzero"></path>
                                        <path d="M322.971465,319.916381 C192.21836,237.80249 98.5563559,142.030823 91.5564563,68.5296928 C139.245016,84.3894362 269.788961,174.265961 322.971465,319.916381 Z" id="Path" fill="#CCEEFF" fill-rule="nonzero"></path>
                                        <path d="M322.692585,311.415113 C274.669369,287.778799 160.133162,151.842123 190.154644,66.2022964 C223.062539,107.537972 303.770545,178.795325 322.692585,311.415113 Z" id="Path" fill="#B0E1FF" fill-rule="nonzero"></path>
                                        <path d="M322.692585,311.415113 C277.611558,256.658582 209.257956,112.262447 221.905185,0.296561331 C251.396794,12.4910037 351.319664,140.581427 322.692585,311.415113 Z" id="Path" fill="#CCEEFF" fill-rule="nonzero"></path>
                                    </g>
                                    <g id="Group" stroke-width="1" fill="none" fill-rule="evenodd" transform="translate(770.000000, 504.000000)">
                                        <path d="M169.947263,706.85186 C125.908051,696.794491 82.5665455,678.96742 49.6208612,648.083903 C16.6751769,617.200387 -4.6188147,571.809708 0.907017992,526.990945 C6.43285068,482.172183 42.6437998,440.743075 87.6039839,436.404876 C59.4864262,390.60967 38.0528933,338.955803 37.7319485,285.237454 C37.4110036,231.505157 61.2167374,175.624684 106.986261,147.44731 C152.74183,119.269937 220.43328,126.802503 251.578883,170.589024 C248.634563,88.2050812 318.293545,11.3031715 400.162384,1.30159903 C482.031223,-8.69997348 565.825732,45.4507998 595.115436,122.5201 C624.40514,199.5894 600.055195,292.546832 540.275733,349.347953 C610.688237,381.626389 640.773326,473.272597 618.237418,547.35677 C595.715463,621.440942 531.191599,677.000584 459.676718,706.768165 L169.947263,706.85186 Z" id="Path" fill="#2A94F4" fill-rule="nonzero"></path>
                                        <g transform="translate(8.912595, 191.103966)" fill-rule="nonzero">
                                            <g fill="#B620E1" id="Path">
                                                <path d="M61.0254697,60.8507106 C74.0307123,81.4397218 101.255206,87.5773674 121.823583,74.5906673 C108.818341,54.0016561 81.5938469,47.8640105 61.0254697,60.8507106 Z"></path>
                                                <path d="M74.7563267,0.0740699044 C54.1739953,13.06077 48.0341812,40.2756486 61.0254697,60.8507106 C81.5938469,47.8640105 87.7476152,20.6491319 74.7563267,0.0740699044 Z"></path>
                                                <path d="M47.3085668,121.641301 C67.8908982,108.6546 74.0307123,81.4397218 61.0254697,60.8507106 C40.4431383,73.8374108 34.3033242,101.052289 47.3085668,121.641301 Z"></path>
                                                <path d="M0.227355969,47.1247032 C13.2186444,67.6997652 40.4431383,73.8374108 61.0254697,60.8507106 C48.0341812,40.2756486 20.8096873,34.138003 0.227355969,47.1247032 Z"></path>
                                            </g>
                                            <ellipse id="Oval" fill="#F7F7F7" cx="61.0254697" cy="60.8507106" rx="11.2888855" ry="11.2848984"></ellipse>
                                        </g>
                                        <g transform="translate(442.030527, 359.889220)" fill-rule="nonzero">
                                            <g fill="#B620E1" id="Path">
                                                <path d="M61.2807339,61.5481704 C47.787097,81.8163501 53.2710673,109.156771 73.5184997,122.645643 C87.0260908,102.391412 81.5281663,75.0370415 61.2807339,61.5481704 Z"></path>
                                                <path d="M122.385838,49.3007775 C102.124452,35.8119064 74.7743708,41.307889 61.2807339,61.5481704 C81.5281663,75.0370415 108.892201,69.555008 122.385838,49.3007775 Z"></path>
                                                <path d="M0.161675356,73.8234616 C20.4230619,87.3123327 47.7731429,81.8163501 61.2807339,61.5621196 C41.0193474,48.0732484 13.6553123,53.5552819 0.161675356,73.8234616 Z"></path>
                                                <path d="M49.029014,0.464647352 C35.5353771,20.7188779 41.0333015,48.0592992 61.2807339,61.5481704 C74.7604167,41.307889 69.2764464,13.9535185 49.029014,0.464647352 Z"></path>
                                            </g>
                                            <ellipse id="Oval" fill="#F7F7F7" cx="61.2807339" cy="61.5481704" rx="11.2888855" ry="11.2848984"></ellipse>
                                        </g>
                                        <g transform="translate(318.694124, 228.766791)" fill-rule="nonzero">
                                            <g fill="#B620E1" id="Path">
                                                <path d="M35.0289386,35.2399894 C27.3123086,46.8178209 30.4519863,62.454868 42.0339083,70.1687726 C49.7365842,58.5909411 46.6108607,42.953894 35.0289386,35.2399894 Z"></path>
                                                <path d="M69.9561084,28.2374937 C58.3741863,20.5235891 42.7316145,23.6621579 35.0289386,35.2399894 C46.6108607,42.953894 62.2394784,39.8153252 69.9561084,28.2374937 Z"></path>
                                                <path d="M0.0878147393,42.2564343 C11.6697368,49.9703389 27.3123086,46.8317701 35.0289386,35.2399894 C23.4470166,27.540034 7.80444473,30.6646536 0.0878147393,42.2564343 Z"></path>
                                                <path d="M28.0239689,0.325155407 C20.3073389,11.9029869 23.4470166,27.540034 35.0289386,35.2399894 C42.7316145,23.6621579 39.605891,8.03906 28.0239689,0.325155407 Z"></path>
                                            </g>
                                            <ellipse id="Oval" fill="#F7F7F7" cx="35.0289386" cy="35.2399894" rx="6.46075893" ry="6.45847708"></ellipse>
                                        </g>
                                        <g transform="translate(106.051334, 520.304957)" fill-rule="nonzero">
                                            <g fill="#B620E1" id="Path">
                                                <path d="M54.9792445,54.8246586 C67.747267,72.2472026 92.2088445,76.0134851 109.62359,63.2639213 C96.8555674,45.8413773 72.3939899,42.0611455 54.9792445,54.8246586 Z"></path>
                                                <path d="M63.4075347,0.21356185 C45.9927893,12.9631257 42.2251761,37.4160638 54.9792445,54.8246586 C72.3939899,42.0611455 76.1616031,17.6221567 63.4075347,0.21356185 Z"></path>
                                                <path d="M46.5649083,109.449704 C63.9796538,96.7001407 67.747267,72.2472026 54.9792445,54.8246586 C37.564499,67.5742224 33.7968858,92.0271605 46.5649083,109.449704 Z"></path>
                                                <path d="M0.348853074,46.3993451 C13.1029215,63.8079399 37.564499,67.5742224 54.9792445,54.8246586 C42.2251761,37.4160638 17.7635985,33.6497812 0.348853074,46.3993451 Z"></path>
                                            </g>
                                            <ellipse id="Oval" fill="#F7F7F7" cx="54.9792445" cy="54.8246586" rx="10.0190603" ry="10.0155217"></ellipse>
                                        </g>
                                        <g transform="translate(502.888547, 43.782198)" fill-rule="nonzero">
                                            <g fill="#B620E1" id="Path">
                                                <path d="M42.9409263,42.5397421 C44.9363659,64.0354509 63.9837438,79.8398884 85.4730931,77.8451535 C83.4776535,56.3354955 64.4442298,40.5450073 42.9409263,42.5397421 Z"></path>
                                                <path d="M78.2448574,0.0225970578 C56.7555081,2.01733188 40.9454868,21.0579825 42.9409263,42.5397421 C64.4442298,40.5450073 80.240297,21.5043567 78.2448574,0.0225970578 Z"></path>
                                                <path d="M7.63699526,85.0708363 C29.1263446,83.0761015 44.9363659,64.0354509 42.9409263,42.5397421 C21.451577,44.5344769 5.64155568,63.5611783 7.63699526,85.0708363 Z"></path>
                                                <path d="M0.408759567,7.24827984 C2.40419915,28.7300395 21.451577,44.5344769 42.9409263,42.5397421 C40.9454868,21.0440333 21.912063,5.25354502 0.408759567,7.24827984 Z"></path>
                                            </g>
                                            <ellipse id="Oval" fill="#F7F7F7" cx="42.9409263" cy="42.5397421" rx="10.0190603" ry="10.0155217"></ellipse>
                                        </g>
                                    </g>
                                    <g id="Group" stroke-width="1" fill="none" fill-rule="evenodd" transform="translate(0.000000, 578.000000)">
                                        <path d="M71.5003851,261.118447 C29.196875,284.074622 0.464520546,328.898473 0.464520546,380.434737 C0.464520546,455.34583 61.1511584,516.064564 136.022653,516.064564 C193.780264,516.064564 243.09949,479.920799 262.626333,429.012516 L71.5003851,261.118447 Z" id="Path" fill="#CCEEFF" fill-rule="nonzero"></path>
                                        <ellipse id="Oval" fill="#B0E1FF" fill-rule="nonzero" cx="281.107095" cy="215.066545" rx="214.61395" ry="214.727457"></ellipse>
                                        <g transform="translate(87.331076, 209.866909)" fill="#CCEEFF" fill-rule="nonzero" id="Path">
                                            <path d="M193.789967,429.53302 C196.49583,429.53302 198.699573,427.342066 198.699573,424.620818 L198.699573,5.19963597 C198.699573,2.49234237 196.509777,0.287433147 193.789967,0.287433147 C191.084105,0.287433147 188.880361,2.47838725 188.880361,5.19963597 L188.880361,424.620818 C188.880361,427.328111 191.070157,429.53302 193.789967,429.53302 Z"></path>
                                            <path d="M193.789967,121.320203 C195.045264,121.320203 196.300561,120.845729 197.262956,119.882826 L257.363788,59.7502066 C259.274629,57.8383549 259.274629,54.7263628 257.363788,52.800556 C255.438999,50.8887043 252.3426,50.8887043 250.417811,52.800556 L190.316979,112.933175 C188.406138,114.845027 188.406138,117.957019 190.316979,119.868871 C191.279373,120.831774 192.53467,121.320203 193.789967,121.320203 Z"></path>
                                            <path d="M193.789967,177.154645 C195.045264,177.154645 196.300561,176.680171 197.262956,175.717268 L257.363788,115.584648 C259.274629,113.672797 259.274629,110.560805 257.363788,108.648953 C255.438999,106.737101 252.3426,106.737101 250.417811,108.648953 L190.316979,168.781572 C188.406138,170.693424 188.406138,173.805416 190.316979,175.717268 C191.279373,176.666216 192.53467,177.154645 193.789967,177.154645 Z"></path>
                                            <path d="M49.5702852,429.44929 C51.9692974,429.030636 53.6011835,426.769906 53.6011835,424.341715 L53.6011835,204.590414 C53.6011835,201.924986 51.606656,199.552615 48.9565845,199.413064 C46.1251923,199.259558 43.7819711,201.520288 43.7819711,204.311312 L43.7819711,424.620818 C43.7819711,427.621169 46.4738859,429.993539 49.5702852,429.44929 Z"></path>
                                            <path d="M48.6915773,236.463912 C49.9468744,236.463912 51.2021714,235.989438 52.1645658,235.026535 C54.0754068,233.114683 54.0754068,230.002691 52.1645658,228.090839 L8.8289225,184.732276 C6.91808145,182.820425 3.80773435,182.820425 1.88294556,184.732276 C-0.0278954897,186.644128 -0.0278954897,189.75612 1.88294556,191.667972 L45.2185888,235.026535 C46.1809832,235.989438 47.4362803,236.463912 48.6915773,236.463912 Z"></path>
                                            <path d="M48.6915773,276.724438 C49.9468744,276.724438 51.2021714,276.249964 52.1645658,275.287061 C54.0754068,273.375209 54.0754068,270.263217 52.1645658,268.351365 L8.8289225,224.992802 C6.91808145,223.080951 3.80773435,223.080951 1.88294556,224.992802 C-0.0278954897,226.904654 -0.0278954897,230.016646 1.88294556,231.928498 L45.2185888,275.287061 C46.1809832,276.249964 47.4362803,276.724438 48.6915773,276.724438 Z"></path>
                                        </g>
                                    </g>
                                    <g id="Group" stroke-width="1" fill="none" fill-rule="evenodd" transform="translate(1209.000000, 995.000000)">
                                        <path d="M19.7320833,242.671025 C110.435338,228.159528 225.807193,157.555515 232.911302,89.7979881 C191.419388,79.9469143 80.3407644,148.876524 19.7320833,242.671025 Z" id="Path" fill="#B0E1FF" fill-rule="nonzero"></path>
                                        <path d="M20.8788096,248.908178 C103.275291,168.508905 156.45822,84.0212961 149.941458,29.3938829 C117.665308,48.4541757 36.6532887,134.476654 20.8788096,248.908178 Z" id="Path" fill="#CCEEFF" fill-rule="nonzero"></path>
                                        <path d="M19.7320833,242.671025 C51.0153366,217.889854 113.078402,100.849051 77.6557467,43.2356182 C60.1891471,78.509718 12.5860205,143.127739 19.7320833,242.671025 Z" id="Path" fill="#B0E1FF" fill-rule="nonzero"></path>
                                        <path d="M19.7320833,242.671025 C43.9671651,195.704008 70.9991403,79.779474 44.0790408,0.245309111 C24.5007866,13.7661171 -28.1367481,122.79769 19.7320833,242.671025 Z" id="Path" fill="#CCEEFF" fill-rule="nonzero"></path>
                                    </g>
                                    <path d="M1408.48738,1337 L23.5265571,1337 C13.8841598,1337 6,1329.1202 6,1319.48313 L6,1223.51687 C6,1213.8798 13.8841598,1206 23.5265571,1206 L1408.47342,1206 C1418.11582,1206 1426,1213.8798 1426,1223.51687 L1426,1319.48313 C1426,1329.1202 1418.12978,1337 1408.48738,1337 Z" id="Path" fill="#F2F2F2" fill-rule="nonzero"></path>
                                    <g id="Group" stroke-width="1" fill="none" fill-rule="evenodd" transform="translate(356.000000, 153.000000)">
                                        <path d="M172.602919,1060.54311 C187.398711,1076.07667 208.706881,1095.32265 231.172498,1100.9192 C234.087032,1101.64494 234.128867,1105.37132 231.214334,1106.12497 C206.266482,1112.5589 139.985242,1105.67836 137.767965,1102.31485 C135.22995,1098.4489 140.30598,1060.54311 145.382011,1060.54311 C150.471986,1060.54311 172.602919,1060.54311 172.602919,1060.54311 Z" id="Path" fill="#1088E2" fill-rule="nonzero"></path>
                                        <path d="M79.3796734,1051.22019 C95.5141978,1069.75439 118.746797,1092.7407 143.248404,1099.4119 C146.427896,1100.2772 146.469731,1104.72932 143.304185,1105.62253 C116.097221,1113.29859 43.819572,1105.09219 41.4070632,1101.07272 C38.6459259,1096.45313 44.1682004,1051.22019 49.7044201,1051.22019 C55.2406398,1051.22019 79.3796734,1051.22019 79.3796734,1051.22019 Z" id="Path" fill="#2A94F4" fill-rule="nonzero"></path>
                                        <path d="M169.311867,521.851012 C183.521962,578.821351 189.602042,1067.29805 189.602042,1067.29805 C189.602042,1067.29805 150.220973,1086.68359 133.584424,1067.29805 C130.265481,1032.15564 102.695944,873.205321 124.952384,799.110385 C99.990587,726.229662 79.3796734,508.062013 79.3796734,508.062013 L169.311867,521.851012 Z" id="Path" fill="#0A3954" fill-rule="nonzero"></path>
                                        <path d="M166.927248,526.568302 C166.927248,554.327734 159.00641,605.896917 146.121103,619.783611 C133.235796,633.670306 114.409859,1001.59095 102.472822,1070.3266 C59.1592236,1085.27399 39.3431828,1074.10881 39.3431828,1074.10881 C39.3431828,1074.10881 18.7462143,898.187415 55.156969,800.533945 C11.8573162,706.383551 3.95042306,506.387236 12.8892564,497.413221 C21.8280897,488.439206 166.927248,526.568302 166.927248,526.568302 Z" id="Path" fill="#0B4870" fill-rule="nonzero"></path>
                                        <path d="M86.8821575,214.948083 C55.0872433,231.151553 0.952218435,244.745161 7.15780475,417.931084 C11.5784134,474.385034 0.0736747545,504.042548 0.0736747545,504.042548 C0.0736747545,504.042548 151.40631,552.834391 180.607429,521.26484 C163.789592,438.028411 181.485972,340.430768 180.607429,325.120512 C179.728885,309.810257 121.312703,227.522869 121.312703,227.522869 L86.8821575,214.948083 Z" id="Path" fill="#2A94F4" fill-rule="nonzero"></path>
                                        <path d="M125.07789,200.963693 C121.758947,224.326835 125.07789,246.992154 125.07789,246.992154 L86.5056388,222.48458 L89.6432948,160.392214 L125.07789,200.963693 Z" id="Path" fill="#FFD3AE" fill-rule="nonzero"></path>
                                        <path d="M154.739198,72.0058454 C122.428314,59.1658865 80.6207906,44.4278468 50.2064451,96.7367226 C19.7920996,149.045598 64.4583759,212.756916 102.472822,176.623597 C140.473322,140.476322 154.739198,72.0058454 154.739198,72.0058454 Z" id="Path" fill="#0B4870" fill-rule="nonzero"></path>
                                        <path d="M187.566052,147.440604 C187.566052,180.280194 177.079309,208.332713 151.768884,208.332713 C126.472404,208.332713 93.0737987,188.151647 93.0737987,155.312057 C93.0737987,122.472466 116.44585,87.9720551 141.756275,87.9720551 C167.052755,87.9720551 187.566052,114.601013 187.566052,147.440604 Z" id="Path" fill="#FFE3CA" fill-rule="nonzero"></path>
                                        <path d="M128.703626,101.57962 C152.940275,124.510112 199.921444,130.232267 201.427519,110.17681 C202.933594,90.1213525 177.19087,39.9617742 116.571356,64.329783 C55.9518419,88.6977919 128.703626,101.57962 128.703626,101.57962 Z" id="Path" fill="#0B4870" fill-rule="nonzero"></path>
                                        <path d="M133.152125,95.1317278 C128.857022,113.763625 114.535366,140.978755 88.7647511,138.117677 C62.9941365,135.256599 73.6482217,78.8445191 96.2393449,75.5228776 C118.844413,72.2151925 133.152125,95.1317278 133.152125,95.1317278 Z" id="Path" fill="#0B4870" fill-rule="nonzero"></path>
                                        <ellipse id="Oval" fill="#FFE3CA" fill-rule="nonzero" transform="translate(92.474214, 149.469847) rotate(-19.913595) translate(-92.474214, -149.469847) " cx="92.4742135" cy="149.469847" rx="13.5837402" ry="16.1320413"></ellipse>
                                        <path d="M81.9316336,75.9136589 C69.5065158,86.7578416 54.5294378,97.448503 38.1578461,95.5504221 C22.0930473,93.6942107 9.24957542,79.0119968 6.85101172,63.0039177 C4.46639316,46.9958386 11.2158398,30.5271957 22.1488279,18.5944079 C32.5658458,7.21987911 47.5568689,-0.805095166 62.9383559,0.241640609 C80.9694191,1.45585411 98.4845121,14.5749425 115.650977,8.92256931 C121.870508,6.87096719 127.713521,2.39093807 134.211955,3.22832669 C142.383806,4.27506246 147.153043,13.4444679 147.418001,21.6927458 C147.82241,34.5327046 140.696444,46.7306655 131.018519,55.1603776 C121.340593,63.5900897 109.319884,68.7958557 97.2991754,73.3177542 L81.9316336,75.9136589 Z" id="Path" fill="#0B4870" fill-rule="nonzero"></path>
                                        <path d="M356.81819,342.621935 C356.81819,342.621935 352.550978,348.776741 340.739446,350.828343 C340.572104,350.856256 340.390817,350.884169 340.223476,350.912082 L340.223476,351.03769 C340.66972,362.803 335.747086,386.277795 308.498287,383.263196 C307.215335,383.123631 305.988162,382.998023 304.788881,382.900327 C286.688092,381.295332 276.36869,383.458586 272.171203,384.714669 L272.143313,384.714669 C270.637238,385.175233 269.939981,385.510188 269.939981,385.510188 C269.939981,385.510188 104.453031,509.694921 55.156969,358.741666 C89.3225566,311.847903 120.085531,311.498991 120.085531,311.498991 C153.149452,364.26843 159.508435,425.341974 262.465387,350.912082 C285.363304,333.731659 314.36919,327.967634 323.154627,335.769304 C331.940064,343.584931 356.81819,342.621935 356.81819,342.621935 Z" id="Path" fill="#FFD3AE" fill-rule="nonzero"></path>
                                        <path d="M133.570479,319.119227 C125.496244,305.372097 82.1129204,229.225559 50.3877319,257.696772 C18.6625434,286.167985 18.8856656,331.14971 39.8870431,371.609537 C83.5632147,356.299282 133.570479,319.119227 133.570479,319.119227 Z" id="Path" fill="#49B0FC" fill-rule="nonzero"></path>
                                        <g transform="translate(241.250884, 340.538039)" fill-rule="nonzero" id="Path">
                                            <path d="M50.1088291,106.227127 C31.6175764,17.017326 66.187573,2.72589352 70.1898276,1.38607172 C86.2964617,-3.98717192 109.556952,12.8303829 125.468354,41.3992913 L117.924034,45.6141474 C103.114298,19.0270587 83.0332995,6.21501277 72.9230746,9.5924802 C61.9203608,13.2630337 44.7538962,37.8264332 58.5595826,104.468611 L50.1088291,106.227127 Z" fill="#B620E1"></path>
                                            <path d="M245.382594,166.533064 L245.382594,186.114001 L155.492235,206.225285 C155.492235,206.225285 151.796774,224.215184 136.471067,253.844784 C48.170455,258.617899 5.86090694,182.945881 0.0457844789,166.002718 C0.0457844789,166.002718 35.926624,121.007036 66.6059271,83.2268529 C70.7615782,78.1048258 74.8056682,73.1502765 78.6684713,68.4329873 C92.4881029,51.5316936 103.79761,37.9799544 107.89748,33.695316 C116.933929,24.3305199 131.171915,26.8008164 147.836355,35.9283523 C166.327607,46.0747111 181.764875,61.0081415 193.158053,78.7607803 C196.449105,83.8967638 199.056846,88.7257048 199.656487,91.9077816 C200.744208,97.7276325 189.950671,123.909983 180.71899,144.844699 C178.167029,150.650593 175.712685,156.037793 173.676695,160.503866 C170.413533,167.635626 168.182311,172.338959 168.182311,172.338959 L220.825206,168.361363 L241.101436,166.840107 L245.382594,166.533064 Z" fill="#B620E1"></path>
                                            <path d="M121.689221,32.4113201 C138.018978,34.6862259 188.570102,60.2126223 194.94303,91.2099577 C160.331198,84.371284 121.312703,45.1675401 121.689221,32.4113201 Z" fill="#F7F7F7"></path>
                                            <path d="M180.71899,144.872612 C178.167029,150.678506 175.712685,156.065706 173.676695,160.531779 C135.313621,156.302967 71.0823164,109.381291 66.6059271,83.2547659 C70.7615782,78.1327388 74.8056682,73.1781895 78.6684713,68.4609002 C106.907375,105.166435 150.40226,132.562999 180.71899,144.872612 Z" fill="#F7F7F7"></path>
                                        </g>
                                        <path d="M343.612144,349.390826 C343.040394,349.781607 342.036344,350.28404 340.739446,350.828343 C340.572104,350.898125 340.390817,350.967908 340.223476,351.03769 C334.519914,353.340509 330.754727,352.140252 327.951754,352.517077 C327.087156,352.614772 304.788881,382.900327 304.788881,382.900327 C286.688092,381.295332 276.36869,383.458586 272.171203,384.714669 L272.143313,384.714669 C272.143313,384.714669 303.324641,338.448948 304.398417,338.448948 C305.472192,338.448948 336.946368,342.733586 336.946368,342.733586 L343.612144,349.390826 Z" id="Path" fill="#FFD3AE" fill-rule="nonzero"></path>
                                    </g>
                                    <path d="M861.07636,674.610876 C879.658671,667.509352 898.367201,678.537601 908.88549,693.701443 C919.922682,709.631136 925.406216,729.417931 930.749507,747.798346 C942.473893,788.193485 948.70072,829.95323 949.584257,871.963617 C949.696452,877.338496 958.111083,877.352421 957.998888,871.963617 C957.017181,824.815069 949.40194,777.861463 934.998896,732.912995 C928.898288,713.89205 922.152559,693.283706 907.426954,678.941413 C894.833056,666.673878 875.858063,660.045789 858.846483,666.534633 C853.825753,668.456222 856,676.546389 861.07636,674.610876 L861.07636,674.610876 Z" id="Path" fill="#80DBFF" fill-rule="nonzero"></path>
                                    <path d="M848.96605,686.860304 C866.593004,697.664265 869.873079,720.277207 870.341661,739.442374 C870.961843,764.428279 869.046169,789.693356 867.213186,814.609468 C863.244021,868.294267 856.270418,921.671977 849.296814,975.02177 C848.607723,980.353957 856.876818,980.298123 857.565909,975.02177 C865.008094,918.056698 872.45028,861.04975 876.254063,803.693838 C877.907882,778.707933 880.485084,752.70305 877.907882,727.689227 C875.964645,708.886985 869.914424,689.917239 853.155725,679.629746 C848.580159,676.838025 844.418048,684.068583 848.96605,686.860304 L848.96605,686.860304 Z" id="Path" fill="#80DBFF" fill-rule="nonzero"></path>
                                    <path d="M901,797.027826 C901,814.669565 901,832.325216 901,849.966955 C901,855.33739 910,855.351303 910,849.966955 C910,832.325216 910,814.669565 910,797.027826 C910,791.657391 901,791.657391 901,797.027826 L901,797.027826 Z" id="Path" fill="#80DBFF" fill-rule="nonzero"></path>
                                    <path d="M828.695802,866.038577 C825.561345,931.577685 815.301868,996.530126 798.165916,1059.80637 C796.757482,1065.01654 804.73861,1067.23749 806.160853,1062.0413 C823.490118,998.066635 833.818637,932.304035 836.994518,866.038577 C837.243066,860.646826 828.958158,860.660794 828.695802,866.038577 L828.695802,866.038577 Z" id="Path" fill="#80DBFF" fill-rule="nonzero"></path>
                                    <circle id="Oval" fill="#FCC754" fill-rule="nonzero" cx="1280.5" cy="92.5" r="92.5"></circle>
                                </g>
                            </g>
                        </g>
                    </g>
                </g>
                <g id="Group" transform="translate(1319.000000, 1672.000000)" fill-rule="nonzero">
                    <path d="M2377.55498,1810 L354.796457,1810 C305.075489,1810 262.517711,1771.86933 259.989527,1724.89067 L176.138064,236.109333 C173.399197,189.130667 211.743333,151 261.464301,151 L2284.22282,151 C2333.94379,151 2376.29089,189.130667 2379.02975,236.109333 L2462.88122,1724.89067 C2465.4094,1771.86933 2427.27595,1810 2377.55498,1810 Z" id="Path" fill="#D3D3D3"></path>
                    <g id="Path">
                        <g>
                            <path d="M2392.34362,147.246347 C2392.34362,147.246347 2392.34362,147.246347 2392.34362,147.246347 C2385.60046,207.483209 2328.4944,256.346677 2265.06664,256.346677 C2258.11276,256.346677 2251.58033,255.714822 2245.25863,254.66173 C2300.25746,245.605139 2346.61662,200.954038 2352.51688,147.246347 L2392.34362,147.246347 L2392.34362,147.246347 Z" fill="#D3D3D3"></path>
                            <path d="M2117.98165,1815.97591 L82.3928788,1815.97591 C32.4514152,1815.97591 -4.00374603,1777.64336 1.26434085,1730.25423 L167.735886,232.757417 C173.003973,185.368277 217.888073,147.035729 267.829537,147.035729 L2303.41831,147.035729 C2353.35977,147.035729 2389.81493,185.368277 2384.54685,232.757417 L2218.0753,1730.25423 C2212.80721,1777.64336 2167.92311,1815.97591 2117.98165,1815.97591 Z" fill="#F7F7F7"></path>
                            <g transform="translate(345.586499, 232.968035)" fill="#0B4870">
                                <path d="M81.3392615,38.3325484 C83.6572197,17.2707086 67.4315121,0.210618398 45.3055472,0.210618398 C22.9688588,0.210618398 3.16085213,17.2707086 0.842893901,38.3325484 C-1.47506433,59.3943882 14.7506433,76.4544784 36.8766082,76.4544784 C59.0025731,76.4544784 79.0213032,59.3943882 81.3392615,38.3325484 Z"></path>
                                <path d="M530.601711,38.3325484 C532.919669,17.2707086 516.693961,0.210618398 494.567997,0.210618398 C472.442032,0.210618398 452.423301,17.2707086 450.105343,38.3325484 C447.787385,59.3943882 464.013093,76.4544784 486.139058,76.4544784 C508.265022,76.4544784 528.283753,59.3943882 530.601711,38.3325484 Z"></path>
                                <path d="M980.074884,38.3325484 C982.392842,17.2707086 966.167134,0.210618398 944.041169,0.210618398 C921.915204,0.210618398 901.896474,17.2707086 899.578516,38.3325484 C897.260558,59.3943882 913.486265,76.4544784 935.61223,76.4544784 C957.738195,76.4544784 977.756925,59.3943882 980.074884,38.3325484 Z"></path>
                                <path d="M1429.33733,38.3325484 C1431.65529,17.2707086 1415.42958,0.210618398 1393.30362,0.210618398 C1370.96693,0.210618398 1351.15892,17.2707086 1348.63024,38.3325484 C1346.31228,59.3943882 1362.53799,76.4544784 1384.66396,76.4544784 C1407.00064,76.4544784 1427.01937,59.3943882 1429.33733,38.3325484 Z"></path>
                                <path d="M1878.59978,38.3325484 C1880.91774,17.2707086 1864.69203,0.210618398 1842.56607,0.210618398 C1820.22938,0.210618398 1800.42137,17.2707086 1798.10341,38.3325484 C1795.78546,59.3943882 1812.01116,76.4544784 1834.13713,76.4544784 C1856.47382,76.4544784 1876.28182,59.3943882 1878.59978,38.3325484 Z"></path>
                            </g>
                            <path d="M378.459362,291.941186 C305.759763,279.514701 258.557704,218.645984 266.565196,147.246347 C275.626306,66.1582639 352.540374,0.234705329 438.304829,0.234705329 C524.069283,0.234705329 586.443432,66.1582639 577.382322,147.246347 L537.344862,147.246347 C544.088013,87.0094852 497.728849,38.1460169 434.090359,38.1460169 C370.45187,38.1460169 313.135084,87.2201036 306.602657,147.246347 C300.702399,200.322183 335.682496,245.39452 389.838429,254.66173 C389.838429,254.66173 393.420728,262.665229 388.574088,275.72357 C383.727449,288.992529 378.459362,291.941186 378.459362,291.941186 Z" fill="#FFBE55"></path>
                            <path d="M832.357727,291.941186 C759.447405,279.514701 712.45607,218.645984 720.463562,147.246347 C729.524671,66.1582639 806.43874,0.234705329 892.203194,0.234705329 C977.967649,0.234705329 1040.3418,66.1582639 1031.28069,147.246347 L991.453951,147.246347 C998.197103,87.0094852 951.837938,38.1460169 888.199448,38.1460169 C824.560959,38.1460169 767.244174,87.2201036 760.711746,147.246347 C754.811489,200.322183 789.791585,245.39452 843.947519,254.66173 C843.947519,254.66173 847.529818,262.665229 842.683178,275.72357 C837.415091,288.992529 832.357727,291.941186 832.357727,291.941186 Z" fill="#FFBE55"></path>
                            <path d="M1286.04537,291.941186 C1213.34577,279.514701 1166.14371,218.645984 1174.1512,147.246347 C1183.21231,66.1582639 1260.12638,0.234705329 1345.89084,0.234705329 C1431.65529,0.234705329 1494.02944,66.1582639 1484.96833,147.246347 L1444.93087,147.246347 C1451.67402,87.0094852 1405.31486,38.1460169 1341.67637,38.1460169 C1278.03788,38.1460169 1220.72109,87.2201036 1214.18866,147.246347 C1208.28841,200.322183 1243.2685,245.39452 1297.42444,254.66173 C1297.42444,254.66173 1301.00674,262.665229 1296.1601,275.72357 C1291.10273,288.992529 1286.04537,291.941186 1286.04537,291.941186 Z" fill="#FFBE55"></path>
                            <path d="M1739.73301,291.941186 C1667.03341,279.514701 1619.83135,218.645984 1627.83885,147.246347 C1636.89996,66.1582639 1713.81402,0.234705329 1799.57848,0.234705329 C1885.34293,0.234705329 1947.71708,66.1582639 1938.65597,147.246347 L1898.61851,147.246347 C1905.36166,87.0094852 1859.0025,38.1460169 1795.36401,38.1460169 C1731.72552,38.1460169 1674.40873,87.2201036 1667.87631,147.246347 C1661.97605,200.322183 1696.95615,245.39452 1751.11208,254.66173 C1751.11208,254.66173 1754.69438,262.665229 1749.84774,275.72357 C1744.79038,288.992529 1739.73301,291.941186 1739.73301,291.941186 Z" fill="#FFBE55"></path>
                            <path d="M2392.34362,147.246347 L2352.30615,147.246347 C2352.7276,143.876453 2352.93833,140.717177 2352.93833,137.347282 C2352.93833,131.871204 2352.7276,126.816362 2351.88471,121.761521 C2351.46326,119.023482 2351.04181,116.285443 2350.40964,113.758022 C2350.19892,112.073075 2349.77747,110.598746 2349.1453,109.124417 C2339.2413,73.7405262 2309.31857,47.202608 2270.124,39.8309641 C2263.38085,38.5672537 2256.21625,37.9353985 2248.84093,37.9353985 C2185.20244,37.9353985 2128.09638,86.7988668 2121.35323,147.035729 C2115.45297,200.111565 2150.43307,245.183902 2204.589,254.451112 C2204.589,254.451112 2208.1713,262.454611 2203.32466,275.512951 C2198.47802,288.571292 2193.42065,291.51995 2193.42065,291.51995 C2120.51033,279.093464 2073.519,218.224747 2081.31577,146.82511 C2090.37688,65.7370271 2167.29094,0.0240869307 2253.0554,0.0240869307 C2336.71262,0.0240869307 2398.03315,62.7883695 2392.55434,140.927795 C2392.76506,143.244597 2392.55434,145.140163 2392.34362,147.246347 Z" fill="#FFBE55"></path>
                            <g transform="translate(512.876724, 395.144201)" fill="#0B4870">
                                <path d="M3.81723702,1283.2979 C1.71000226,1283.2979 0.234937938,1281.61295 0.445661413,1279.71739 L142.26256,3.79113116 C142.473284,1.89556558 144.369795,0.210618398 146.47703,0.210618398 C148.584265,0.210618398 150.059329,1.89556558 149.848605,3.79113116 L8.03170652,1279.71739 C7.82098305,1281.61295 5.92447177,1283.2979 3.81723702,1283.2979 Z"></path>
                                <path d="M401.663158,1283.2979 C399.555924,1283.2979 398.080859,1281.61295 398.291583,1279.71739 L540.108482,3.79113116 C540.319205,1.89556558 542.215716,0.210618398 544.322951,0.210618398 C546.430186,0.210618398 547.90525,1.89556558 547.694527,3.79113116 L405.877628,1279.71739 C405.456181,1281.61295 403.55967,1283.2979 401.663158,1283.2979 Z"></path>
                                <path d="M799.298356,1283.2979 C797.191122,1283.2979 795.716057,1281.61295 795.926781,1279.71739 L937.74368,3.79113116 C937.954403,1.89556558 939.850914,0.210618398 941.958149,0.210618398 C944.065384,0.210618398 945.540448,1.89556558 945.329725,3.79113116 L803.512826,1279.71739 C803.091379,1281.61295 801.405591,1283.2979 799.298356,1283.2979 Z"></path>
                                <path d="M1196.93355,1283.2979 C1194.82632,1283.2979 1193.35126,1281.61295 1193.56198,1279.71739 L1335.37888,3.79113116 C1335.5896,1.89556558 1337.48611,0.210618398 1339.59335,0.210618398 C1341.70058,0.210618398 1343.17565,1.89556558 1342.96492,3.79113116 L1201.14802,1279.71739 C1200.9373,1281.61295 1199.04079,1283.2979 1196.93355,1283.2979 Z"></path>
                            </g>
                            <g transform="translate(195.972832, 652.917033)" fill="#0B4870">
                                <path d="M1972.37173,7.39573085 L88.5038596,7.39573085 C86.3966249,7.39573085 84.9215605,5.71078367 85.132284,3.81521809 C85.3430075,1.91965251 87.2395188,0.234705329 89.3467535,0.234705329 L1973.21462,0.234705329 C1975.32186,0.234705329 1976.79692,1.91965251 1976.5862,3.81521809 C1976.37547,5.71078367 1974.47896,7.39573085 1972.37173,7.39573085 Z"></path>
                                <path d="M1930.22703,387.351321 L46.3591646,387.351321 C44.2519298,387.351321 42.7768655,385.666373 42.987589,383.770808 C43.1983124,381.875242 45.0948237,380.190295 47.2020585,380.190295 L1931.06993,380.190295 C1933.17716,380.190295 1934.65223,381.875242 1934.4415,383.770808 C1934.02006,385.876992 1932.12355,387.351321 1930.22703,387.351321 Z"></path>
                                <path d="M1887.87162,767.517529 L4.00374603,767.517529 C1.89651128,767.517529 0.421446951,765.832581 0.632170426,763.937016 C0.842893901,762.04145 2.73940518,760.356503 4.84663993,760.356503 L1888.71451,760.356503 C1890.82174,760.356503 1892.29681,762.04145 1892.08608,763.937016 C1891.87536,765.832581 1889.97885,767.517529 1887.87162,767.517529 Z"></path>
                            </g>
                        </g>
                        <path d="M824.406913,979.803917 C744.542716,979.803917 686.383037,918.303345 694.811976,842.901959 C703.240915,767.500572 774.886896,706 854.751093,706 C934.615291,706 992.77497,767.500572 984.346031,842.901959 C976.127815,918.303345 904.27111,979.803917 824.406913,979.803917 Z" fill="#5C5FEE"></path>
                    </g>
                </g>
                <g id="Character" transform="translate(601.000000, 2404.000000)" fill-rule="nonzero">
                    <g id="Group">
                        <path d="M331.86064,3401.23302 L317.214587,3491.85371 C311.37584,3528.01288 332.6592,3563.06106 367.437067,3574.54126 L523.144693,3625.95336 L159.6668,3625.95336 L203.65704,3401.22723 L331.86064,3401.22723 L331.86064,3401.23302 Z" id="Path" fill="#FCD2B1"></path>
                        <path d="M169.70088,3574.67435 L349.382667,3565.41033 C349.382667,3565.41033 575.45616,3600.56845 576.86232,3649.61391 L128.621333,3649.61391 L169.70088,3574.67435 Z" id="Path" fill="#0B4870"></path>
                        <g transform="translate(1147.760000, 3400.398734)" id="Path">
                            <path d="M149.033093,0.834286392 L186.305013,114.606334 C194.464213,139.516753 213.971067,159.068973 238.85952,167.28565 L415.352853,225.566195 L51.87496,225.566195 L0.639813333,0.840072785 L149.033093,0.840072785 L149.033093,0.834286392 Z" fill="#FCD2B1"></path>
                            <path d="M44.9020267,174.275612 L241.579253,165.011598 C241.579253,165.011598 467.652747,200.169718 469.058907,249.21518 L20.81792,249.21518 L44.9020267,174.275612 Z" fill="#0B4870"></path>
                        </g>
                        <path d="M392.93312,1475.95561 C327.098213,1472.40855 332.115253,1516.30412 248.330107,1448.68434 C164.54496,1381.06456 252.791627,1545.67006 252.791627,1545.67006 C252.791627,1545.67006 398.216347,1565.15285 408.707573,1500.83709 C419.1988,1436.52134 446.916933,1478.86616 392.93312,1475.95561 Z" id="Path" fill="#FCD2B1"></path>
                        <path d="M380.844773,1303.55005 C380.844773,1303.55005 292.355067,1362.42659 266.56968,1588.24055 C240.784293,1814.04294 276.626907,1977.44488 256.252053,2109.27626 L256.24048,2109.33412 C235.848267,2241.17128 196.14016,3439.61416 196.14016,3439.61416 L389.264373,3439.61416 L711.165067,1305.11237 L380.844773,1303.55005 Z" id="Path" fill="#0B4870"></path>
                        <path d="M800.70216,1279.47287 L459.306187,1279.47287 C459.306187,1279.47287 417.1156,1534.10885 491.358533,1682.58768 C565.59568,1831.05494 605.321147,1871.03312 626.621867,1957.30245 L626.627653,1957.33138 C647.928373,2043.61806 1156.67475,3439.61416 1156.67475,3439.61416 L1321.29963,3439.61416 L800.70216,1279.47287 Z" id="Path" fill="#0B4870"></path>
                        <path d="M308.065867,562.324752 C308.065867,562.324752 -35.3149333,1051.54108 4.12698667,1183.7833 C24.1604267,1250.94595 178.132053,1518.00532 252.797413,1545.67006 L256.65712,1482.66782 L250.158693,1456.13721 L168.080613,1121.13981 L373.026987,770.820043 L308.065867,562.324752 Z" id="Path" fill="#FFE3CA"></path>
                        <path d="M750.41024,555.357935 L308.06008,562.330538 L394.0268,1218.55951 L394.0268,1218.5653 C402.232293,1261.24573 219.726613,1472.74416 333.18,1472.74416 L854.593387,1500.84288 C873.89192,1500.84288 840.288747,1289.47754 840.288747,1270.18571 L840.288747,1031.2077 C892.281947,800.492663 750.41024,555.357935 750.41024,555.357935 Z" id="Path" fill="#5C5FEE"></path>
                        <polygon id="Path" fill="#5C5FEE" points="171.182267 773.256114 303.668 889.377437 379.021973 759.750674 308.065867 562.324752"></polygon>
                        <path d="M672.32496,194.292835 L715.632373,296.764059 C715.632373,296.764059 741.319387,372.884051 726.459227,417.404554 C709.31912,468.758786 632.107627,468.446321 632.107627,468.446321 L655.31216,593.727503 L459.306187,593.727503 L459.306187,197.776244 L672.32496,194.292835 Z" id="Path" fill="#FCD2B1"></path>
                        <path d="M661.121973,236.458277 C696.3512,212.676204 703.231547,163.81012 675.90112,131.255877 C637.5008,85.520231 571.231893,30.9314051 476.834,37.655193 C383.8712,44.2806123 294.339893,101.346014 292.36664,234.346244 C291.04728,323.358318 245.32104,374.567891 206.284187,496.487179 C132.857173,725.807696 685.165573,816.341592 691.73344,508.574953 C694.852453,362.497476 596.976773,336.557079 607.514293,264.493348 C627.36256,257.179348 645.550053,246.966366 661.121973,236.458277 Z" id="Path" fill="#0B4870"></path>
                        <path d="M1716.46531,141.289481 C1750.73395,47.6193608 1718.83205,14.9030981 1706.50067,0.0841471519 C1703.98925,-2.93634968 1629.05771,130.330054 1621.85909,121.945571 C1607.35192,105.037733 1596.27624,85.4623671 1591.99989,90.9073623 C1572.53933,115.655763 1581.63597,155.981131 1592.85053,181.730578 C1599.22165,196.364364 1573.70824,232.697122 1563.73781,245.155225 L1162.25888,555.357935 L756.08696,555.357935 C672.405973,571.895445 713.65912,746.193157 813.855253,742.206332 C901.75472,738.711351 1129.77832,729.059649 1229.54624,666.421951 C1329.31416,603.778467 1655.15557,223.705068 1655.15557,223.705068 C1699.12845,190.294438 1713.67613,148.898587 1716.46531,141.289481 Z" id="Path" fill="#FFE3CA"></path>
                        <path d="M966.409147,555.357935 L973.60776,731.623021 L747.40696,752.963236 C747.40696,752.963236 638.947467,592.246187 738.91792,555.357935 C783.0644,539.069241 966.409147,555.357935 966.409147,555.357935 Z" id="Path" fill="#5C5FEE"></path>
                    </g>
                </g>
            </g>
        </g>
    </g>
</svg>