<?xml version="1.0" encoding="UTF-8"?>
<svg width="2237px" height="752px" viewBox="0 0 2237 752" version="1.1" xmlns="http://www.w3.org/2000/svg" xmlns:xlink="http://www.w3.org/1999/xlink">
    <!-- Generator: Sketch 63.1 (92452) - https://sketch.com -->
    <title>Group 3</title>
    <desc>Created with Sketch.</desc>
    <defs>
        <radialGradient cx="50%" cy="0%" fx="50%" fy="0%" r="100.043891%" gradientTransform="translate(0.500000,0.000000),scale(1.000000,0.999561),rotate(90.000000),translate(-0.500000,-0.000000)" id="radialGradient-1">
            <stop stop-color="#2BC4A3" offset="0%"></stop>
            <stop stop-color="#478ACE" offset="54.0646115%"></stop>
            <stop stop-color="#8E4893" offset="100%"></stop>
        </radialGradient>
    </defs>
    <g id="Page-1" stroke="none" stroke-width="1" fill="none" fill-rule="evenodd">
        <g id="Group-3" transform="translate(26.000000, 18.000000)">
            <g id="Group-2-Copy" transform="translate(926.000000, 47.000000)"></g>
            <g id="Group-5">
                <g id="handshake" transform="translate(67.000000, 60.000000)" fill-rule="nonzero">
                    <g id="Group">
                        <ellipse id="Mask" fill="url(#radialGradient-1)" cx="280.124612" cy="280.250667" rx="280.127716" ry="280.250667"></ellipse>
                        <g transform="translate(50.275644, 145.397694)">
                            <polygon id="Path" fill="#F6B7A0" points="415.290394 187.878294 290.242349 250.334739 253.204141 41.446797 390.774628 31.9996036"></polygon>
                            <path d="M56.7001853,27.9304502 C56.7001853,27.9304502 121.548065,37.9366131 146.151596,35.3034124 C170.755128,32.6702116 229.452125,20.3819413 237.887621,23.3662355 C246.498857,26.3505297 399.040753,194.524286 402.555543,204.705996 C407.12477,217.345359 385.333071,238.762059 368.637817,232.266831 C368.637817,232.266831 379.006448,244.204007 371.27391,251.928063 C365.825985,257.545558 344.561504,282.999832 326.460335,268.253908 C326.460335,268.253908 337.531924,281.244365 307.128988,298.09685 C289.555037,307.751919 277.78049,299.325677 277.78049,299.325677 C277.78049,299.325677 259.152102,327.237605 242.105369,320.56683 C232.263957,316.704802 10.8321729,160.468223 10.8321729,160.468223 L54.9427901,30.9147444" id="Path" fill="#FACBB6"></path>
                            <path d="M391.053197,33.1270857 L272.841457,55.7028466 C272.841457,55.7028466 249.128849,71.9783951 225.416242,85.2788434 C211.013028,93.3291147 196.609815,100.154345 187.476069,101.379386 C177.639728,102.779433 170.438122,99.9793388 165.344302,96.1292091 L191.340346,48.1775929 C214.350358,27.351891 241.048998,4.25111246 249.655796,0.926000397 C265.63985,-5.02420015 336.777673,25.6018321 336.777673,25.6018321 L391.053197,33.1270857 Z" id="Path" fill="#F6B7A0"></path>
                            <path d="M108.507976,227.444448 C101.330163,234.663522 88.5501544,233.430997 80.1468611,224.627249 L80.1468611,224.627249 C71.5684992,215.999576 70.5180875,203.146103 77.6959006,196.103105 L110.083593,164.057462 C117.261407,156.838388 130.041415,158.070913 138.444708,166.874661 L138.444708,166.874661 C147.02307,175.502334 148.073482,188.355807 140.895669,195.398805 L108.507976,227.444448 Z" id="Path" fill="#F6B7A0"></path>
                            <path d="M143.922397,258.511997 C135.441488,266.886042 120.246527,265.490368 110.175449,255.37173 L110.175449,255.37173 C100.10437,245.253092 98.8675707,230.249594 107.348479,222.050008 L145.865938,184.541264 C154.346847,176.167219 169.541808,177.562893 179.612886,187.681531 L179.612886,187.681531 C189.683965,197.800169 190.920764,212.803667 182.439856,221.003253 L143.922397,258.511997 Z" id="Path" fill="#F6B7A0"></path>
                            <path d="M130.582935,256.399604 C125.295692,256.399604 120.008448,253.960312 115.778653,249.778669 C108.376512,242.286559 107.142822,231.658217 112.95879,226.082694 L151.379427,188.622144 C154.375532,185.660147 158.076603,185.137441 160.720224,185.137441 C166.007468,185.137441 171.294712,187.576733 175.524507,191.758376 C182.926648,199.250486 184.160338,209.878828 178.34437,215.454352 L139.923733,252.914901 C136.927628,255.876898 133.226557,256.399604 130.582935,256.399604 Z" id="Path" fill="#F6B7A0"></path>
                            <path d="M182.63481,287.678745 C174.470827,295.549746 160.272596,294.150457 150.68879,284.705256 L150.68879,284.705256 C141.104984,275.085144 139.862638,260.917342 148.026621,253.046341 L184.409589,217.539381 C192.573572,209.66838 206.771804,211.067669 216.35561,220.51287 L216.35561,220.51287 C225.939416,230.132982 227.181761,244.300784 219.017778,252.171785 L182.63481,287.678745 Z" id="Path" fill="#F6B7A0"></path>
                            <path d="M168.466751,285.207712 C163.671137,285.207712 158.520291,282.937357 154.790369,279.095217 C147.86337,272.284152 146.620062,262.329517 152.126138,257.090236 L188.537287,221.637767 C191.201517,219.018126 194.753824,218.494198 197.062824,218.494198 C201.858438,218.494198 207.009284,220.764553 210.739206,224.606693 C217.666205,231.417758 218.909512,241.372393 213.403436,246.611674 L176.992288,282.064143 C174.150443,284.683784 170.775751,285.207712 168.466751,285.207712 Z" id="Path" fill="#F6B7A0"></path>
                            <path d="M217.564159,312.482497 C210.461841,319.50291 197.677667,318.274338 189.154884,309.849842 L189.154884,309.849842 C180.632102,301.425347 179.566754,288.788604 186.846631,281.768192 L219.162181,250.351845 C226.2645,243.331433 239.048674,244.560005 247.571456,252.9845 L247.571456,252.9845 C256.094239,261.408995 257.159587,274.045738 249.87971,281.066151 L217.564159,312.482497 Z" id="Path" fill="#F6B7A0"></path>
                            <path d="M206.042413,309.467171 C202.031005,309.467171 197.845188,307.540793 194.705825,304.213413 C191.740871,301.236283 189.99678,297.558652 189.647962,293.881021 C189.299144,290.728767 190.345598,287.751637 192.264098,285.825259 L224.006546,254.477834 C226.099455,252.376331 228.89,251.850955 230.808499,251.850955 C234.819908,251.850955 239.005725,253.777333 242.145088,257.104713 C247.726178,262.708722 248.772632,271.114735 244.586815,275.492867 L212.844366,306.840292 C210.577049,308.941795 207.960913,309.467171 206.042413,309.467171 Z" id="Path" fill="#F6B7A0"></path>
                            <path d="M227.452119,80.5376535 L224.300674,85.7892477 L212.920458,102.594349 C184.382377,133.928861 157.770178,109.071315 157.770178,109.071315 L164.423228,96.6425423 L190.160025,48.677982 L227.452119,80.5376535 Z" id="Path" fill="#F6B7A0"></path>
                            <path d="M253.204141,55.3172023 C253.204141,55.3172023 253.554226,55.845706 254.079353,56.7265456 C260.030801,66.4157808 295.039316,120.675498 343.176024,124.375024 C396.038882,128.426886 287.86257,22.9023063 287.86257,22.9023063" id="Path" fill="#F6B7A0"></path>
                            <polygon id="Rectangle" fill="#FFFFFF" transform="translate(421.310447, 113.657231) rotate(-6.355376) translate(-421.310447, -113.657231) " points="395.439599 20.3577401 447.141914 20.3686321 447.181296 206.956722 395.47898 206.94583"></polygon>
                            <polygon id="Rectangle" fill="#FFFFFF" transform="translate(37.986294, 111.476110) rotate(-82.963814) translate(-37.986294, -111.476110) " points="-55.3128992 85.6037059 131.273452 85.6472247 131.285488 137.348513 -55.300863 137.304994"></polygon>
                        </g>
                    </g>
                </g>
                <path d="M0,706 L52.1599019,523.717498 C17.386634,481.048325 0,411.95897 0,316.449433 C0,173.185128 138.057437,0 342.597477,0 C547.137518,0 694,148.611911 694,316.449433 C694,484.286955 594.424349,609.472485 468.884773,666.401942 C385.191723,704.354913 289.028081,697.095913 180.393848,644.624943 L0,706 Z" id="Path-2" stroke="#FEC808" stroke-width="35"></path>
            </g>
            <g id="confiali" transform="translate(936.788000, 199.604000)" fill-rule="nonzero">
                <path d="M96.72,279.372 C121.272,279.372 142.104,274.164 159.216,263.748 C162.688,261.764 165.416,258.85 167.4,255.006 C169.384,251.162 170.376,246.884 170.376,242.172 C170.376,234.484 168.578,228.222 164.982,223.386 C161.386,218.55 156.736,216.132 151.032,216.132 C147.312,216.132 143.902,216.69 140.802,217.806 C137.702,218.922 133.672,220.596 128.712,222.828 C124.248,225.06 120.218,226.734 116.622,227.85 C113.026,228.966 109.12,229.524 104.904,229.524 C93,229.524 83.886,225.618 77.562,217.806 C71.238,209.994 68.076,198.648 68.076,183.768 C68.076,153.76 80.352,138.756 104.904,138.756 C109.12,138.756 112.964,139.314 116.436,140.43 C119.908,141.546 124.124,143.22 129.084,145.452 C133.3,147.684 137.144,149.358 140.616,150.474 C144.088,151.59 147.684,152.148 151.404,152.148 C157.108,152.148 161.758,149.73 165.354,144.894 C168.95,140.058 170.748,133.796 170.748,126.108 C170.748,116.436 166.904,109.244 159.216,104.532 C151.28,99.572 142.104,95.728 131.688,93 C121.272,90.272 110.856,88.908 100.44,88.908 C80.848,88.908 63.426,92.876 48.174,100.812 C32.922,108.748 21.08,120.032 12.648,134.664 C4.216,149.296 2.27373675e-13,166.16 2.27373675e-13,185.256 C2.27373675e-13,214.272 8.68,237.212 26.04,254.076 C43.4,270.94 66.96,279.372 96.72,279.372 Z M286.812,279.372 C307.148,279.372 324.88,275.466 340.008,267.654 C355.136,259.842 366.854,248.744 375.162,234.36 C383.47,219.976 387.624,203.112 387.624,183.768 C387.624,164.424 383.47,147.622 375.162,133.362 C366.854,119.102 355.136,108.128 340.008,100.44 C324.88,92.752 307.148,88.908 286.812,88.908 C266.476,88.908 248.744,92.752 233.616,100.44 C218.488,108.128 206.77,119.102 198.462,133.362 C190.154,147.622 186,164.424 186,183.768 C186,203.112 190.154,219.976 198.462,234.36 C206.77,248.744 218.55,259.842 233.802,267.654 C249.054,275.466 266.724,279.372 286.812,279.372 Z M286.812,229.896 C263.252,229.896 251.472,214.52 251.472,183.768 C251.472,153.016 263.252,137.64 286.812,137.64 C310.372,137.64 322.152,153.016 322.152,183.768 C322.152,214.52 310.372,229.896 286.812,229.896 Z M572.508,278.628 C582.676,278.628 590.736,275.9 596.688,270.444 C602.64,264.988 605.616,257.548 605.616,248.124 L605.616,248.124 L605.616,167.772 C605.616,141.236 600.284,121.458 589.62,108.438 C578.956,95.418 562.712,88.908 540.888,88.908 C528.488,88.908 517.204,91.388 507.036,96.348 C496.868,101.308 488.56,108.5 482.112,117.924 C482.112,109.492 479.322,102.672 473.742,97.464 C468.162,92.256 460.66,89.652 451.236,89.652 C441.316,89.652 433.256,92.442 427.056,98.022 C420.856,103.602 417.756,110.732 417.756,119.412 L417.756,119.412 L417.756,248.124 C417.756,257.548 420.732,264.988 426.684,270.444 C432.636,275.9 440.696,278.628 450.864,278.628 C461.032,278.628 469.092,275.9 475.044,270.444 C480.996,264.988 483.972,257.548 483.972,248.124 L483.972,248.124 L483.972,174.468 C483.972,163.804 486.886,155.31 492.714,148.986 C498.542,142.662 506.416,139.5 516.336,139.5 C524.024,139.5 529.79,141.98 533.634,146.94 C537.478,151.9 539.4,159.836 539.4,170.748 L539.4,170.748 L539.4,248.124 C539.4,257.548 542.376,264.988 548.328,270.444 C554.28,275.9 562.34,278.628 572.508,278.628 Z M822.492,63.612 C833.652,63.612 842.518,60.698 849.09,54.87 C855.662,49.042 858.948,41.292 858.948,31.62 C858.948,21.948 855.6,14.26 848.904,8.556 C842.208,2.852 833.404,-3.12638804e-13 822.492,-3.12638804e-13 C811.084,-3.12638804e-13 802.156,2.852 795.708,8.556 C789.26,14.26 786.036,21.948 786.036,31.62 C786.036,41.292 789.322,49.042 795.894,54.87 C802.466,60.698 811.332,63.612 822.492,63.612 Z M822.492,278.628 C831.916,278.628 839.79,276.086 846.114,271.002 C852.438,265.918 855.6,258.292 855.6,248.124 L855.6,248.124 L855.6,117.552 C855.6,101.432 845.68,93.372 825.84,93.372 L825.84,93.372 L725.028,93.372 L725.028,88.908 C725.028,80.972 726.826,74.648 730.422,69.936 C734.018,65.224 740.28,62.372 749.208,61.38 L749.208,61.38 L756.648,60.636 C762.848,60.14 768.056,57.846 772.272,53.754 C776.488,49.662 778.596,43.896 778.596,36.456 C778.596,21.08 769.42,13.392 751.068,13.392 C747.844,13.392 745.364,13.516 743.628,13.764 L743.628,13.764 L736.188,14.508 C712.876,16.988 694.4,24.986 680.76,38.502 C667.12,52.018 659.804,70.308 658.812,93.372 L658.812,93.372 L648.024,93.372 C628.184,93.372 618.264,101.432 618.264,117.552 C618.264,133.92 628.184,142.104 648.024,142.104 L648.024,142.104 L658.812,142.104 L658.812,247.38 C658.812,257.548 661.974,265.236 668.298,270.444 C674.622,275.652 682.496,278.256 691.92,278.256 C701.344,278.256 709.218,275.652 715.542,270.444 C721.866,265.236 725.028,257.548 725.028,247.38 L725.028,247.38 L725.028,142.104 L789.384,142.104 L789.384,248.124 C789.384,258.292 792.546,265.918 798.87,271.002 C805.194,276.086 813.068,278.628 822.492,278.628 Z" id="conf" fill="#FFFFFF"></path>
                <path d="M953.436,279.372 C964.844,279.372 974.64,276.892 982.824,271.932 C991.008,266.972 996.836,260.028 1000.308,251.1 C1000.804,259.532 1003.842,266.228 1009.422,271.188 C1015.002,276.148 1022.132,278.628 1030.812,278.628 C1040.732,278.628 1048.482,275.962 1054.062,270.63 C1059.642,265.298 1062.432,257.92 1062.432,248.496 L1062.432,248.496 L1062.432,170.748 C1062.432,143.22 1055.674,122.698 1042.158,109.182 C1028.642,95.666 1007.748,88.908 979.476,88.908 C966.828,88.908 953.932,90.272 940.788,93 C927.644,95.728 916.732,99.324 908.052,103.788 C903.092,106.516 899.496,109.616 897.264,113.088 C895.032,116.56 893.916,121.024 893.916,126.48 C893.916,133.672 895.776,139.5 899.496,143.964 C903.216,148.428 908.176,150.66 914.376,150.66 C918.344,150.66 923.18,149.668 928.884,147.684 C948.476,140.74 963.356,137.268 973.524,137.268 C982.948,137.268 989.644,139.19 993.612,143.034 C997.58,146.878 999.564,153.14 999.564,161.82 L999.564,161.82 L999.564,166.284 L989.52,166.284 C964.224,166.284 944.136,168.02 929.256,171.492 C914.376,174.964 903.526,180.606 896.706,188.418 C889.886,196.23 886.476,206.708 886.476,219.852 C886.476,231.26 889.39,241.49 895.218,250.542 C901.046,259.594 909.044,266.662 919.212,271.746 C929.38,276.83 940.788,279.372 953.436,279.372 Z M969.06,235.104 C963.356,235.104 958.706,233.244 955.11,229.524 C951.514,225.804 949.716,221.092 949.716,215.388 C949.716,208.692 953.064,203.918 959.76,201.066 C966.456,198.214 977.74,196.788 993.612,196.788 L993.612,196.788 L999.564,196.788 L999.564,201.252 C999.564,211.172 996.712,219.294 991.008,225.618 C985.304,231.942 977.988,235.104 969.06,235.104 Z M1132.74,278.628 C1142.164,278.628 1150.038,276.086 1156.362,271.002 C1162.686,265.918 1165.848,258.292 1165.848,248.124 L1165.848,248.124 L1165.848,43.152 C1165.848,32.984 1162.686,25.296 1156.362,20.088 C1150.038,14.88 1142.164,12.276 1132.74,12.276 C1123.316,12.276 1115.442,14.88 1109.118,20.088 C1102.794,25.296 1099.632,32.984 1099.632,43.152 L1099.632,43.152 L1099.632,248.124 C1099.632,258.292 1102.794,265.918 1109.118,271.002 C1115.442,276.086 1123.316,278.628 1132.74,278.628 Z M1237.272,63.612 C1248.432,63.612 1257.298,60.698 1263.87,54.87 C1270.442,49.042 1273.728,41.292 1273.728,31.62 C1273.728,21.948 1270.38,14.26 1263.684,8.556 C1256.988,2.852 1248.184,-3.12638804e-13 1237.272,-3.12638804e-13 C1226.112,-3.12638804e-13 1217.246,2.852 1210.674,8.556 C1204.102,14.26 1200.816,21.948 1200.816,31.62 C1200.816,41.292 1204.102,49.042 1210.674,54.87 C1217.246,60.698 1226.112,63.612 1237.272,63.612 Z M1237.272,278.628 C1246.696,278.628 1254.57,276.086 1260.894,271.002 C1267.218,265.918 1270.38,258.292 1270.38,248.124 L1270.38,248.124 L1270.38,120.156 C1270.38,109.988 1267.218,102.362 1260.894,97.278 C1254.57,92.194 1246.696,89.652 1237.272,89.652 C1227.848,89.652 1219.974,92.194 1213.65,97.278 C1207.326,102.362 1204.164,109.988 1204.164,120.156 L1204.164,120.156 L1204.164,248.124 C1204.164,258.292 1207.326,265.918 1213.65,271.002 C1219.974,276.086 1227.848,278.628 1237.272,278.628 Z" id="ali" fill="#FEC808"></path>
            </g>
        </g>
    </g>
</svg>