<?xml version="1.0" encoding="UTF-8"?>
<svg width="923px" height="657px" viewBox="0 0 923 657" version="1.1" xmlns="http://www.w3.org/2000/svg" xmlns:xlink="http://www.w3.org/1999/xlink">
    <!-- Generator: Sketch 63.1 (92452) - https://sketch.com -->
    <title>Group 6</title>
    <desc>Created with Sketch.</desc>
    <defs>
        <radialGradient cx="32.7703606%" cy="39.7439019%" fx="32.7703606%" fy="39.7439019%" r="99.8046875%" gradientTransform="translate(0.327704,0.397439),scale(0.744983,1.000000),rotate(90.000000),translate(-0.327704,-0.397439)" id="radialGradient-1">
            <stop stop-color="#3F00FF" offset="0%"></stop>
            <stop stop-color="#3586BF" offset="53.729413%"></stop>
            <stop stop-color="#19D3D4" offset="100%"></stop>
        </radialGradient>
        <radialGradient cx="32.7703606%" cy="39.7439019%" fx="32.7703606%" fy="39.7439019%" r="99.8046875%" gradientTransform="translate(0.327704,0.397439),scale(0.681087,1.000000),rotate(90.000000),translate(-0.327704,-0.397439)" id="radialGradient-2">
            <stop stop-color="#3F00FF" offset="0%"></stop>
            <stop stop-color="#3586BF" offset="53.729413%"></stop>
            <stop stop-color="#19D3D4" offset="100%"></stop>
        </radialGradient>
        <radialGradient cx="35.285272%" cy="0%" fx="35.285272%" fy="0%" r="279.193841%" gradientTransform="translate(0.352853,0.000000),scale(0.091440,1.000000),rotate(90.000000),translate(-0.352853,-0.000000)" id="radialGradient-3">
            <stop stop-color="#3F00FF" offset="0%"></stop>
            <stop stop-color="#3586BF" offset="53.729413%"></stop>
            <stop stop-color="#19D3D4" offset="100%"></stop>
        </radialGradient>
    </defs>
    <g id="Page-1" stroke="none" stroke-width="1" fill="none" fill-rule="evenodd">
        <g id="Group-6" transform="translate(-49.000000, -129.000000)">
            <g id="online-discussion" transform="translate(413.000000, 0.000000)">
                <g id="Group">
                    <g opacity="0.41" transform="translate(76.274766, 128.412000)" fill="url(#radialGradient-1)" fill-rule="nonzero" id="Path">
                        <g opacity="0.38999721">
                            <path d="M0.940373832,258.39 C-1.6717757,201.3876 27.688785,152.3196 72.0953271,124.758 C80.3497196,119.6424 85.7829907,111.0816 86.9323364,101.5812 C87.0368224,101.0592 87.0368224,100.5372 87.1413084,100.0152 C95.291215,37.3752 156.206542,-6.6816 221.196822,1.8792 C283.261495,10.0224 327.981495,41.5512 321.398879,102.2076 C321.398879,102.5208 321.294393,102.9384 321.294393,103.4604 C320.145047,119.9556 333.623738,133.9452 350.863925,134.2584 C354.520935,134.3628 358.073458,134.5716 361.730467,134.8848 C435.811028,142.2972 489.621308,206.2944 481.680374,277.704 C478.023364,310.3812 462.037009,338.9868 438.63215,359.658 L52.3474766,359.658 C22.9869159,332.7228 2.71663551,295.2432 0.940373832,258.39 Z"></path>
                        </g>
                    </g>
                    <g transform="translate(138.966355, 255.780000)" fill-rule="nonzero">
                        <g transform="translate(32.390654, 0.000000)" fill="#01384F" id="Path">
                            <path d="M307.397757,201.9096 L1.46280374,201.9096 L1.46280374,13.9896 C1.46280374,6.786 7.31401869,1.044 14.4190654,1.044 L294.337009,1.044 C301.546542,1.044 307.293271,6.8904 307.293271,13.9896 L307.293271,201.9096 L307.397757,201.9096 Z"></path>
                            <path d="M308.129159,202.7448 L0.731401869,202.7448 L0.731401869,13.9896 C0.731401869,6.3684 6.89607477,0.2088 14.5235514,0.2088 L294.441495,0.2088 C302.068972,0.2088 308.233645,6.3684 308.233645,13.9896 L308.233645,202.7448 L308.129159,202.7448 Z"></path>
                        </g>
                        <rect id="Rectangle" fill="#FFFFFF" x="52.1385047" y="20.1492" width="270.40972" height="180.5076"></rect>
                        <rect id="Rectangle" fill="#EDEDED" x="52.1385047" y="20.1492" width="270.40972" height="17.0172"></rect>
                        <g opacity="0.4" transform="translate(73.140187, 66.816000)">
                            <path d="M233.839626,120.3732 L80.1407477,120.3732 C77.8420561,120.3732 76.0657944,118.494 76.0657944,116.3016 L76.0657944,47.7108 C76.0657944,45.414 77.9465421,43.6392 80.1407477,43.6392 L233.839626,43.6392 C236.138318,43.6392 237.914579,45.5184 237.914579,47.7108 L237.914579,116.3016 C237.914579,118.5984 236.138318,120.3732 233.839626,120.3732 Z" id="Path" fill="#CDEAFB"></path>
                            <g transform="translate(27.166355, 0.000000)" fill="#FFFFFF" id="Path">
                                <path d="M9.09028037,13.3632 L9.09028037,13.3632 C9.71719626,13.3632 10.2396262,13.8852 10.2396262,14.4072 L10.2396262,16.5996 C10.2396262,17.226 9.71719626,17.6436 9.19476636,17.6436 L1.14934579,17.6436 C0.522429907,17.6436 0.104485981,17.1216 0.104485981,16.5996 L0.104485981,14.4072 C0.104485981,13.7808 0.626915888,13.3632 1.14934579,13.3632 L1.14934579,13.3632 C1.77626168,13.3632 2.19420561,12.8412 2.19420561,12.3192 L2.19420561,5.742 C2.19420561,5.1156 1.6717757,4.698 1.14934579,4.698 L1.14934579,4.698 C0.522429907,4.698 0.104485981,4.176 0.104485981,3.654 L0.104485981,1.4616 C0.104485981,0.8352 0.626915888,0.4176 1.14934579,0.4176 L7.00056075,0.4176 C7.62747664,0.4176 8.04542056,0.9396 8.04542056,1.4616 L8.04542056,12.4236 C8.04542056,12.8412 8.46336449,13.3632 9.09028037,13.3632 Z"></path>
                            </g>
                            <rect id="Rectangle" fill="#AF9CCB" x="0.522429907" y="91.4544" width="58.0942056" height="1.4616"></rect>
                            <rect id="Rectangle" fill="#AF9CCB" x="145.34" y="2.7144" width="58.1986916" height="1.4616"></rect>
                            <line x1="216.808411" y1="94.2732" x2="216.808411" y2="95.7348" id="Path" fill="#FFFFFF"></line>
                            <line x1="158.60972" y1="95.7348" x2="158.60972" y2="94.2732" id="Path" fill="#FFFFFF"></line>
                        </g>
                        <path d="M198.523364,13.8852 C197.374019,13.8852 196.538131,12.9456 196.538131,11.9016 C196.538131,10.7532 197.478505,9.918 198.523364,9.918 C199.67271,9.918 200.508598,10.8576 200.508598,11.9016 C200.508598,12.9456 199.568224,13.8852 198.523364,13.8852 Z M198.523364,11.3796 C198.209907,11.3796 198.000935,11.5884 198.000935,11.9016 C198.000935,12.2148 198.209907,12.4236 198.523364,12.4236 C198.836822,12.4236 199.045794,12.2148 199.045794,11.9016 C199.045794,11.5884 198.732336,11.3796 198.523364,11.3796 Z" id="Shape" fill="#253762"></path>
                        <path d="M370.193832,230.724 L3.44803738,230.724 C1.77626168,230.724 0.417943925,229.3668 0.417943925,227.6964 L0.417943925,210.888 C0.417943925,205.9812 4.38841121,201.9096 9.40373832,201.9096 L364.133645,201.9096 C369.044486,201.9096 373.119439,205.8768 373.119439,210.888 L373.119439,227.6964 C373.119439,229.3668 371.761121,230.724 370.193832,230.724 Z" id="Path" fill="#004970"></path>
                    </g>
                    <g transform="translate(124.338318, 263.088000)" fill-rule="nonzero" id="Path">
                        <path d="M164.669907,56.1672 L7.20953271,56.1672 C3.44803738,56.1672 0.522429907,60.03 0.522429907,64.8324 L0.522429907,145.4292 C0.522429907,150.2316 3.55252336,154.0944 7.20953271,154.0944 L120.472336,154.0944 L139.906729,179.2548 L139.906729,154.0944 L164.669907,154.0944 C168.431402,154.0944 171.357009,150.2316 171.357009,145.4292 L171.357009,64.8324 C171.357009,60.03 168.326916,56.1672 164.669907,56.1672 Z" fill="#498CCA"></path>
                        <g transform="translate(33.435514, 0.000000)">
                            <path d="M77.3196262,45.1008 C77.1106542,43.0128 76.1702804,41.0292 74.7074766,39.672 C73.2446729,38.2104 71.9908411,36.54 71.0504673,34.7652 C70.8414953,33.8256 70.4235514,32.886 69.7966355,32.0508 C68.9607477,29.9628 68.4383178,27.7704 68.2293458,25.578 L67.8114019,21.6108 C67.8114019,21.5064 67.8114019,21.5064 67.8114019,21.402 L67.6024299,19.5228 C67.184486,15.4512 65.3037383,11.9016 62.5871028,9.2916 C58.7211215,4.5936 53.0788785,1.4616 46.4962617,0.8352 L46.4962617,0.8352 C38.973271,0.2088 32.0771963,3.132 27.2708411,8.352 C21.7330841,11.3796 18.1805607,17.5392 18.8074766,24.2208 L19.1209346,27.0396 C17.4491589,28.3968 16.2998131,30.3804 16.0908411,32.7816 L16.0908411,32.7816 C15.9863551,34.5564 16.4042991,36.3312 17.2401869,37.7928 C14.0011215,41.238 11.9114019,45.7272 11.388972,50.7384 C10.3441121,62.64 19.2254206,73.1844 31.1368224,74.124 C38.4508411,74.7504 45.1379439,71.7228 49.5263551,66.5028 C51.7205607,68.2776 54.5416822,69.426 57.5717757,69.6348 L57.5717757,69.6348 C65.8261682,70.3656 73.1401869,64.206 73.8715888,55.854 L73.8715888,55.854 C73.9760748,54.81 73.9760748,53.766 73.8715888,52.8264 C76.2747664,51.0516 77.6330841,48.1284 77.3196262,45.1008 Z" fill="#004970"></path>
                            <g transform="translate(0.000000, 21.924000)">
                                <path d="M84.4246729,23.5944 C84.4246729,23.5944 83.588785,20.5668 84.4246729,17.1216 L87.1413084,11.2752 C87.5592523,10.3356 88.6041121,9.8136 89.648972,10.1268 C89.648972,10.1268 89.648972,10.1268 89.648972,10.1268 L92.7835514,6.3684 C93.2014953,5.8464 97.4854206,1.2528 97.7988785,0.7308 C98.2168224,0.1044 99.8885981,-0.522 100.202056,0.7308 C100.724486,2.9232 96.4405607,9.1872 96.4405607,9.1872 C96.4405607,9.1872 98.5302804,10.1268 98.9482243,11.2752 C99.3661682,12.4236 99.4706542,12.8412 99.4706542,12.8412 C99.4706542,12.8412 100.62,13.9896 101.037944,15.7644 L101.246916,16.2864 C101.246916,16.2864 101.769346,16.182 102.500748,18.3744 C102.918692,19.5228 102.500748,20.358 102.082804,20.88 C101.66486,21.402 101.14243,21.7152 100.515514,21.924 L99.4706542,22.3416 L100.62,29.754 L85.3650467,28.9188 L84.4246729,23.5944 Z" fill="#FACBB6"></path>
                                <path d="M106.262243,71.514 C105.739813,66.3984 105.321869,61.1784 104.903925,56.0628 C104.590467,51.678 103.336636,33.6168 102.814206,27.3528 C102.70972,26.1 101.66486,25.2648 100.411028,25.3692 L84.7381308,27.0396 C83.3798131,27.144 82.3349533,28.5012 82.5439252,29.8584 C84.111215,40.0896 85.4695327,65.772 85.4695327,65.772 L77.6330841,57.8376 C75.6478505,55.854 73.7671028,53.6616 71.8863551,51.5736 C68.5428037,47.9196 64.1543925,45.1008 59.7659813,42.5952 L59.2435514,42.1776 L59.2435514,42.3864 C57.9897196,41.6556 56.6314019,41.0292 55.2730841,40.5072 L28.106729,40.4028 C26.7484112,40.4028 25.3900935,40.6116 24.0317757,40.8204 C13.0607477,42.9084 3.86598131,53.0352 1.56728972,66.0852 C1.25383178,68.1732 1.04485981,70.2612 1.04485981,72.3492 L0.104485981,82.2672 C2.40317757,102.312 19.4343925,117.7632 40.0181308,117.7632 C58.1986916,117.7632 73.4536449,105.7572 78.468972,89.262 C82.1259813,90.6192 85.8874766,91.7676 89.0220561,91.872 C92.1566355,91.9764 95.186729,91.0368 98.0078505,89.6796 C100.62,88.4268 103.127664,86.7564 104.694953,84.1464 C107.098131,80.388 106.680187,75.7944 106.262243,71.514 Z" fill="#CDEAFB"></path>
                            </g>
                            <g transform="translate(31.345794, 13.572000)">
                                <path d="M36.3611215,25.8912 L34.5848598,8.874 C34.2714019,5.6376 32.8085981,2.7144 30.7188785,0.4176 C29.8829907,8.0388 23.4048598,13.9896 15.5684112,13.9896 L1.6717757,13.9896 L3.3435514,29.4408 C3.44803738,30.1716 3.55252336,30.9024 3.76149533,31.6332 L1.14934579,45.8316 C-0.104485981,52.5132 3.97046729,58.986 10.4485981,60.2388 C16.822243,61.4916 23.0914019,57.1068 24.4497196,50.4252 L26.0170093,42.0732 C32.7041121,39.5676 37.0925234,33.0948 36.3611215,25.8912 Z" fill="#FACBB6"></path>
                                <path d="M20.6882243,43.0128 C14.0011215,43.7436 7.8364486,40.194 5.0153271,34.6608 L4.80635514,35.8092 C4.07495327,40.194 8.3588785,44.5788 14.2100935,45.414 L14.2100935,45.414 C18.4940187,46.0404 22.464486,44.7876 24.5542056,42.282 C23.8228037,42.4908 23.0914019,42.5952 22.36,42.6996 L20.6882243,43.0128 Z" fill="#F6B7A0" opacity="0.46"></path>
                            </g>
                            <g transform="translate(25.076636, 7.308000)">
                                <path d="M38.2418692,0 L19.9568224,0 C11.8069159,0 5.11981308,6.6816 5.11981308,14.8248 L5.11981308,19.836 C5.0153271,19.836 5.0153271,19.836 4.91084112,19.836 L4.91084112,19.836 C2.29869159,20.2536 0.417943925,22.7592 0.83588785,25.3692 L1.77626168,31.0068 C2.19420561,33.6168 4.70186916,35.496 7.31401869,35.0784 C8.04542056,34.974 8.67233645,34.6608 9.19476636,34.3476 L13.1652336,39.4632 C14.0011215,40.6116 15.3594393,41.238 16.822243,41.238 L22.255514,41.238 C22.568972,41.238 22.7779439,41.0292 22.7779439,40.716 C22.7779439,40.4028 22.568972,40.194 22.255514,40.194 L16.822243,40.194 C15.7773832,40.194 14.7325234,39.672 14.0011215,38.8368 L10.0306542,33.7212 C11.075514,32.6772 11.5979439,31.1112 11.284486,29.6496 L10.3441121,24.012 C10.0306542,21.924 8.3588785,20.358 6.47813084,20.0448 L6.47813084,14.9292 C6.47813084,7.6212 12.4338318,1.566 19.8523364,1.566 L38.1373832,1.566 C38.5553271,1.566 38.868785,1.2528 38.868785,0.8352 C38.973271,0.3132 38.6598131,0 38.2418692,0 Z" fill="#FABB58"></path>
                                <g transform="translate(18.807477, 38.628000)">
                                    <path d="M4.4928972,3.3408 L2.29869159,3.3408 C1.6717757,3.3408 1.14934579,2.8188 1.14934579,2.1924 L1.14934579,2.1924 C1.14934579,1.566 1.6717757,1.044 2.29869159,1.044 L4.4928972,1.044 C5.11981308,1.044 5.64224299,1.566 5.64224299,2.1924 L5.64224299,2.1924 C5.64224299,2.8188 5.11981308,3.3408 4.4928972,3.3408 Z" fill="#F4A8B4"></path>
                                    <path d="M4.4928972,3.9672 L2.29869159,3.9672 C1.35831776,3.9672 0.522429907,3.2364 0.522429907,2.1924 C0.522429907,1.2528 1.25383178,0.4176 2.29869159,0.4176 L4.4928972,0.4176 C5.43327103,0.4176 6.26915888,1.1484 6.26915888,2.1924 C6.1646729,3.132 5.43327103,3.9672 4.4928972,3.9672 Z" fill="#FABB58"></path>
                                </g>
                            </g>
                        </g>
                    </g>
                    <path d="M484.292523,240.3288 L344.281308,240.3288 C341.251215,240.3288 338.743551,244.1916 338.743551,248.994 L338.743551,336.2724 C338.743551,341.0748 341.251215,344.9376 344.281308,344.9376 L358.700374,344.9376 L360.581121,369.576 L376.358505,344.9376 L484.292523,344.9376 C487.322617,344.9376 489.83028,341.0748 489.83028,336.2724 L489.83028,248.994 C489.934766,244.1916 487.427103,240.3288 484.292523,240.3288 Z" id="Path" fill="#FABB58" fill-rule="nonzero"></path>
                    <g>
                        <g></g>
                        <g></g>
                    </g>
                </g>
                <g id="Group" transform="translate(382.000000, 181.000000)" fill-rule="nonzero">
                    <path d="M37.2054545,78.5987654 L36.3763636,56.7716049 L19.5872727,56.2469136 L18.5509091,81.8518519 C18.4472727,84.6851852 20.8309091,84.1604938 23.5254545,84.0555556 L32.7490909,83.5308642 C35.34,83.4259259 37.3090909,81.117284 37.2054545,78.5987654 Z" id="Path" fill="#FACBB6"></path>
                    <polygon id="Path" fill="#F6B7A0" points="20.2090909 61.2839506 36.9981818 71.3580247 36.3763636 56.6666667"></polygon>
                    <g transform="translate(43.527273, 34.629630)" fill="#FACBB6" id="Path">
                        <path d="M12.8509091,6.50617284 C12.8509091,10.0740741 10.0527273,12.9074074 6.52909091,12.9074074 C3.10909091,12.9074074 0.207272727,9.9691358 0.207272727,6.50617284 C0.207272727,2.9382716 3.00545455,0.104938272 6.52909091,0.104938272 C10.0527273,1.38777878e-17 12.8509091,2.9382716 12.8509091,6.50617284 Z"></path>
                    </g>
                    <g transform="translate(0.000000, 34.629630)" fill="#FACBB6" id="Path">
                        <path d="M0.518181818,6.50617284 C0.518181818,10.0740741 3.31636364,12.9074074 6.84,12.9074074 C10.26,12.9074074 13.1618182,9.9691358 13.1618182,6.50617284 C13.1618182,2.9382716 10.3636364,0.104938272 6.84,0.104938272 C3.31636364,1.38777878e-17 0.518181818,2.9382716 0.518181818,6.50617284 Z"></path>
                    </g>
                    <path d="M47.9836364,29.5925926 C47.9836364,37.7777778 46.8436364,44.9135802 45.7036364,49.9506173 C44.5636364,54.882716 41.3509091,58.345679 36.8945455,61.0740741 L36.0654545,61.5987654 C31.2981818,64.537037 25.1836364,64.6419753 20.3127273,61.808642 L20.3127273,61.808642 C15.4418182,58.9753086 12.0218182,55.1975309 10.9854545,49.9506173 C9.12,40.2962963 8.91272727,29.6975309 8.91272727,29.6975309 C8.91272727,29.6975309 7.04727273,8.91975309 28.1890909,9.33950617 C49.2272727,9.65432099 47.9836364,29.5925926 47.9836364,29.5925926 Z" id="Path" fill="#FACBB6"></path>
                    <g transform="translate(6.218182, 0.000000)" fill="#01384F" id="Path">
                        <path d="M3.83454545,37.9876543 C3.83454545,37.9876543 8.29090909,23.2962963 5.07818182,13.7469136 C4.97454545,13.7469136 -5.07818182,18.8888889 3.83454545,37.9876543 Z"></path>
                        <path d="M40.9363636,37.9876543 C40.9363636,37.9876543 35.34,23.2962963 38.5527273,13.7469136 C38.5527273,13.7469136 48.7090909,17.7345679 40.9363636,37.9876543 Z"></path>
                        <g transform="translate(2.072727, 0.000000)">
                            <path d="M1.45090909,15.9506173 C1.45090909,15.9506173 29.3290909,30.6419753 40.1072727,18.9938272 C40.1072727,18.9938272 48.9163636,9.86419753 39.1745455,2.72839506 C29.4327273,-4.30246914 7.15090909,8.08024691 7.15090909,8.08024691 C7.15090909,8.08024691 2.17636364,9.33950617 1.45090909,15.9506173 Z"></path>
                            <path d="M1.45090909,15.9506173 C1.45090909,15.9506173 -3.73090909,6.50617284 11.0890909,1.78395062 C11.0890909,1.78395062 14.7163636,5.5617284 9.53454545,10.5987654 C4.35272727,15.6358025 1.45090909,15.9506173 1.45090909,15.9506173 Z"></path>
                        </g>
                    </g>
                </g>
                <g id="Group" transform="translate(371.000000, 213.000000)" fill-rule="nonzero">
                    <path d="M83.055,68.2954128 L83.055,68.2954128 L75.39,24.2642202 L72.45,25.1009174 L60.585,28.2385321 L58.38,28.7614679 L60.9,46.1229358 C60.165,46.0183486 59.325,45.9137615 58.485,45.8091743 L24.57,43.5082569 C13.545,42.7761468 3.675,50.8293578 1.575,62.2293578 L0.945,65.7853211 C-2.415,83.8788991 6.51,102.390826 23.205,110.025688 C23.94,110.33945 24.675,110.653211 25.305,110.966972 C43.365,118.078899 64.365,112.012844 75.705,96.2201835 C79.38,91.0954128 81.795,85.5522936 82.95,79.8 C83.685,76.0348624 83.685,72.0605505 83.055,68.2954128 Z" id="Path" fill="#253762"></path>
                    <g transform="translate(51.450000, 0.000000)" id="Path">
                        <path d="M3.78,26.5651376 L1.26,25.8330275 C0.84,25.7284404 0.525,25.2055046 0.63,24.787156 L7.35,1.04587156 C7.455,0.627522936 7.98,0.313761468 8.4,0.418348624 L10.92,1.15045872 C11.34,1.25504587 11.655,1.77798165 11.55,2.19633028 L4.83,25.9376147 C4.725,26.3559633 4.2,26.6697248 3.78,26.5651376 Z" fill="#01384F"></path>
                        <path d="M13.02,6.79816514 C13.02,6.79816514 8.295,3.76513761 6.825,8.15779817 C5.88,10.8770642 6.3,11.4 6.825,11.5045872 C6.195,11.8183486 5.25,12.6550459 5.25,15.3743119 C5.25,18.4073394 5.985,18.5119266 6.3,18.4073394 C5.565,18.8256881 2.73,20.6036697 4.725,23.6366972 C5.46,24.787156 7.455,26.3559633 9.87,28.0293578 L22.05,26.4605505 C22.89,19.0348624 22.05,8.99449541 13.02,6.79816514 Z" fill="#F6B7A0"></path>
                    </g>
                </g>
                <path d="M396.963504,256.204461 L423,257.942376 C423,257.942376 421.094891,268.574329 410.193431,268.983251 C399.291971,269.392172 394.105839,262.23605 394,256" id="Path" fill="#FACBB6" fill-rule="nonzero"></path>
            </g>
            <g id="productive" transform="translate(0.000000, 58.000000)">
                <path d="M177.5,103.7 C163.8,109.8 150.1,117.2 140.5,128.8 C130.9,140.4 126.1,157.1 131.8,171.1 C139.5,189.8 163.9,200.6 164,220.9 C164.1,235.4 150.8,246.5 137.4,251.7 C124,257 109.2,258.9 97.1,266.6 C78.8,278.3 70.2,300.8 66.6,322.4 C62.9,344.8 64.4,370.3 80.1,386.6 C99.6,406.8 131.9,404.5 159.6,400.2 C196.5,394.5 233.2,387.7 269.9,380.9 C350.4,366.1 430.9,351.3 511.4,336.5 C520,334.9 529,333.2 536,327.9 C549.9,317.3 551.1,295.5 543,280 C534.9,264.4 519.9,253.8 505.1,244.7 C490.2,235.6 474.5,226.9 463.4,213.3 C452.2,199.8 446.7,179.8 455.2,164.4 C462.4,151.4 477.7,144.4 484.4,131.1 C493.2,113.6 483.1,91.2 467.1,80.1 C451,68.8 250.1,71.6 177.5,103.7 Z" id="Path" fill="url(#radialGradient-2)" fill-rule="nonzero" opacity="0.38999721"></path>
                <path d="M533,502.9 L54.9,502.9 C51.8,502.9 49.3,500.4 49.3,497.3 L49.3,469.3 C49.3,466.2 51.8,463.7 54.9,463.7 L533,463.7 C536.1,463.7 538.6,466.2 538.6,469.3 L538.6,497.3 C538.6,500.3 536.1,502.9 533,502.9 Z" id="Path" fill="#F1F1F1" fill-rule="nonzero"></path>
                <g id="Group" transform="translate(481.000000, 387.000000)" fill-rule="nonzero">
                    <g id="Path">
                        <path d="M26.5,56.9 C23.3,42.1 13.6,28.9 0.3,21.4 C7.4,34.7 15.8,47.4 25.5,58.9 L26.5,56.9 Z" fill="#2A94F4"></path>
                        <path d="M30,62.4 C17.4,44.8 11.1,22.8 12.4,1.2 C20.5,21.2 26.7,41.9 30.8,63 L30,62.4 Z" fill="#2A94F4"></path>
                        <path d="M26.4,63 C26,52.2 25.6,41.3 27.3,30.6 C29,19.9 32.9,9.3 40.2,1.3 C41.3,23.5 36,45.9 24.9,65.2 L26.4,63 Z" fill="#2A94F4"></path>
                        <path d="M26.9,64 C19.8,43.5 21,20.3 30.1,0.7 C35.8,21.2 30.7,43.1 25.7,63.8 L26.9,64 Z" fill="#B2DFF8"></path>
                        <path d="M27.9,56.4 C29.9,38.4 41.8,21.9 58.3,14.5 C51.6,32.4 40.2,48.5 25.5,60.8 L27.9,56.4 Z" fill="#2A94F4"></path>
                    </g>
                    <path d="M44.8,53.3 L42.8,88.2 C42.8,89.9 41.4,91.3 39.7,91.3 L15.5,91.3 C13.8,91.3 12.4,89.9 12.4,88.2 L12,80.3 L10.4,53.3 C10.4,51.6 11.8,50.2 13.5,50.2 L41.7,50.2 C42.8,50.2 43.8,50.8 44.3,51.7 L44.3,51.7 C44.7,52.1 44.8,52.7 44.8,53.3 Z" id="Path" fill="#FABB56"></path>
                </g>
                <g id="Group" transform="translate(55.000000, 338.000000)" fill-rule="nonzero">
                    <g id="Path">
                        <path d="M41.2,87.2 C36.3,64.4 21.2,43.9 0.9,32.5 C11.8,53.1 24.9,72.5 39.7,90.4 L41.2,87.2 Z" fill="#2A94F4"></path>
                        <path d="M46.6,95.8 C27.2,68.7 17.5,34.8 19.5,1.5 C32.1,32.2 41.6,64.2 47.8,96.8 L46.6,95.8 Z" fill="#2A94F4"></path>
                        <path d="M41.1,96.8 C40.5,80.1 39.9,63.3 42.5,46.8 C45.1,30.3 51.2,14 62.4,1.6 C64.1,35.8 55.8,70.4 38.9,100.1 L41.1,96.8 Z" fill="#2A94F4"></path>
                        <path d="M41.8,98.3 C30.9,66.7 32.7,31 46.7,0.7 C55.4,32.4 47.7,66 39.9,97.9 L41.8,98.3 Z" fill="#B2DFF8"></path>
                        <path d="M43.3,86.6 C46.3,58.9 64.8,33.5 90.2,22 C79.9,49.6 62.3,74.5 39.7,93.4 L43.3,86.6 Z" fill="#2A94F4"></path>
                    </g>
                    <path d="M69.4,81.7 L66.2,135.5 C66.2,138.1 64.1,140.2 61.5,140.2 L24.3,140.2 C21.7,140.2 19.6,138.1 19.6,135.5 L18.9,123.4 L16.5,81.8 C16.5,79.2 18.6,77.1 21.2,77.1 L64.8,77.1 C66.5,77.1 68,78 68.8,79.4 L68.8,79.4 C69.2,80 69.4,80.8 69.4,81.7 Z" id="Path" fill="#FABB56"></path>
                </g>
                <g id="To_Do_List" transform="translate(306.000000, 137.000000)" fill-rule="nonzero">
                    <g id="To_Do_List_1_">
                        <g id="Group">
                            <rect id="Rectangle" fill="#004970" transform="translate(73.557865, 119.055515) rotate(-0.366094) translate(-73.557865, -119.055515) " x="0.706378151" y="22.4035422" width="145.702974" height="193.303946"></rect>
                            <polygon id="Path" fill="#030809" opacity="0.26" points="12.2 207.8 14.4 207.8 143.1 210.9 138.5 28.1 132.6 29.9"></polygon>
                            <rect id="Rectangle" fill="#EEEEEF" transform="translate(73.607664, 117.955155) rotate(-0.366100) translate(-73.607664, -117.955155) " x="8.10632708" y="28.5033286" width="131.002674" height="178.903652"></rect>
                            <polygon id="Path" fill="#010102" opacity="0.05" points="6.8 28.3 101 27.7 7.1 107.1"></polygon>
                            <g transform="translate(44.000000, 0.000000)" fill="#01384F">
                                <rect id="Rectangle" opacity="0.12" transform="translate(29.057775, 30.253288) rotate(-0.366097) translate(-29.057775, -30.253288) " x="0.607194711" y="27.6032343" width="56.9011615" height="5.30010819"></rect>
                                <path d="M45.7,11.4 L44.8,11.4 L44.8,10.8 C44.8,5.2 39.5,0.7 33.1,0.8 L24.6,0.9 C18.2,0.9 13,5.5 13,11.1 L13,11.7 L12.1,11.7 C5.7,11.7 0.5,16.3 0.5,21.9 L0.6,33.2 L57.5,32.8 L57.4,21.5 C57.4,15.9 52.1,11.4 45.7,11.4 Z M36.4,11.7 L21.4,11.8 C19.9,11.8 18.6,10.6 18.6,9 C18.6,7.5 19.8,6.2 21.4,6.2 L36.4,6.1 C37.9,6.1 39.2,7.3 39.2,8.9 C39.2,10.5 37.9,11.7 36.4,11.7 Z" id="Shape"></path>
                            </g>
                        </g>
                        <g id="Group" opacity="0.47" transform="translate(24.000000, 78.000000)" fill="#F5F5F5">
                            <path d="M20.4,0.7 C14,0.7 7.6,0.8 1.2,0.8 C0.7,0.8 0.2,1.3 0.2,1.8 C0.2,8.2 0.3,14.5 0.3,20.9 C0.3,21.4 0.8,21.9 1.3,21.9 C7.7,21.9 14.1,21.8 20.5,21.8 C20.8,21.8 21,21.7 21.2,21.5 C21.2,21.5 21.2,21.5 21.2,21.5 C21.2,21.5 21.2,21.5 21.2,21.5 C21.4,21.3 21.5,21.1 21.5,20.8 C21.5,14.4 21.4,8.1 21.4,1.7 C21.4,1.2 21,0.7 20.4,0.7 Z M19.6,19.8 C13.9,19.8 8.1,19.9 2.4,19.9 C2.4,14.2 2.3,8.5 2.3,2.8 C8,2.8 13.8,2.7 19.5,2.7 C19.5,8.4 19.5,14.1 19.6,19.8 Z" id="Shape"></path>
                            <path d="M20.7,36.1 C14.3,36.1 7.9,36.2 1.5,36.2 C1,36.2 0.5,36.7 0.5,37.2 C0.5,43.6 0.6,49.9 0.6,56.3 C0.6,56.8 1.1,57.3 1.6,57.3 C8,57.3 14.4,57.2 20.8,57.2 C21.1,57.2 21.3,57.1 21.5,56.9 C21.5,56.9 21.5,56.9 21.5,56.9 C21.5,56.9 21.5,56.9 21.5,56.9 C21.7,56.7 21.8,56.5 21.8,56.2 C21.8,49.8 21.7,43.5 21.7,37.1 C21.7,36.5 21.2,36.1 20.7,36.1 Z M19.8,55.2 C14.1,55.2 8.3,55.3 2.6,55.3 C2.6,49.6 2.5,43.9 2.5,38.2 C8.2,38.2 14,38.1 19.7,38.1 C19.7,43.8 19.7,49.5 19.8,55.2 Z" id="Shape"></path>
                            <path d="M20.9,71.4 C14.5,71.4 8.1,71.5 1.7,71.5 C1.2,71.5 0.7,72 0.7,72.5 C0.7,78.9 0.8,85.2 0.8,91.6 C0.8,92.1 1.3,92.6 1.8,92.6 C8.2,92.6 14.6,92.5 21,92.5 C21.3,92.5 21.5,92.4 21.7,92.2 C21.7,92.2 21.7,92.2 21.7,92.2 C21.7,92.2 21.7,92.2 21.7,92.2 C21.9,92 22,91.8 22,91.5 C22,85.1 21.9,78.8 21.9,72.4 C21.9,71.9 21.4,71.4 20.9,71.4 Z M20,90.6 C14.3,90.6 8.5,90.7 2.8,90.7 C2.8,85 2.7,79.3 2.7,73.6 C8.4,73.6 14.2,73.5 19.9,73.5 C19.9,79.1 20,84.8 20,90.6 Z" id="Shape"></path>
                        </g>
                        <polygon id="Path" fill="#2A94F4" points="31.7 86 36.1 84.5 38.6 88.9 59.6 73.6 62.1 74.1 37.7 94.3"></polygon>
                        <polygon id="Path" fill="#2A94F4" points="30.4 122.3 34.8 120.8 37.2 125.2 58.3 109.9 60.7 110.4 36.3 130.6"></polygon>
                        <polygon id="Path" fill="#2A94F4" points="30.2 155.8 34.6 154.3 37.1 158.7 58.1 143.4 60.5 143.8 36.1 164"></polygon>
                        <rect id="Rectangle" fill="#FFFFFF" transform="translate(91.258242, 161.706140) rotate(-0.366105) translate(-91.258242, -161.706140) " x="57.3075491" y="156.906042" width="67.9013862" height="9.60019598"></rect>
                        <rect id="Rectangle" fill="#FFFFFF" transform="translate(91.058563, 124.305118) rotate(-0.366105) translate(-91.058563, -124.305118) " x="57.1078695" y="119.50502" width="67.9013862" height="9.60019598"></rect>
                        <rect id="Rectangle" fill="#FFFFFF" transform="translate(90.758146, 86.804709) rotate(-0.366080) translate(-90.758146, -86.804709) " x="56.8074527" y="82.0046111" width="67.901386" height="9.60019595"></rect>
                    </g>
                </g>
                <g id="Girl">
                    <g id="Girl_1_">
                        <g id="Group" transform="translate(255.000000, 261.000000)" fill-rule="nonzero">
                            <g transform="translate(0.000000, 60.000000)" fill="#004970">
                                <line x1="68.1" y1="5.4" x2="68.1" y2="169.1" id="Path" stroke="#1F120C" stroke-width="1.9084"></line>
                                <rect id="Rectangle" x="0.1" y="0.8" width="136" height="9"></rect>
                            </g>
                            <g transform="translate(27.000000, 0.000000)" fill="#020102" id="Path">
                                <path d="M71.3,60.2 L4,60.2 C2,60.2 0.4,58.6 0.4,56.6 L0.4,56.6 C0.4,54.6 2,53 4,53 L71.3,53 C73.3,53 74.9,54.6 74.9,56.6 L74.9,56.6 C74.9,58.6 73.3,60.2 71.3,60.2 Z"></path>
                                <path d="M71.8,57.7 C71.6,57.7 71.4,57.6 71.2,57.5 C70.7,57.2 70.6,56.5 70.9,56 L105,1.4 C105.3,0.9 106,0.8 106.5,1.1 C107,1.4 107.1,2.1 106.8,2.6 L72.7,57.2 C72.5,57.5 72.2,57.7 71.8,57.7 Z"></path>
                            </g>
                        </g>
                        <g id="Group">
                            <g transform="translate(145.000000, 349.000000)" fill-rule="nonzero">
                                <g transform="translate(15.000000, 0.000000)" id="Path">
                                    <g transform="translate(14.000000, 0.000000)">
                                        <path d="M37.3,0.7 L108.2,2.5 C120.2,3 129.2,13.8 127.5,25.7 L127.5,25.7 C126,35.6 117.5,43 107.5,43 L23.2,43 C23.2,43 -7.2,32.2 2.4,6 L37.3,0.7 Z" fill="#4385B7"></path>
                                        <g transform="translate(74.000000, 25.000000)">
                                            <g transform="translate(2.000000, 46.000000)">
                                                <g transform="translate(0.000000, 43.000000)">
                                                    <path d="M35.1,16 L46.9,21.8 C48.2,22.4 48.9,23.8 48.5,25.2 C48.2,26.3 47.2,27.1 44.5,27.1 C38.6,27.2 12.8,23.3 12.8,23.3 L12.8,26 L0.8,24.6 C0.8,24.6 5.68434189e-14,10.9 3.6,8.8 L35.1,16 Z" fill="#000000"></path>
                                                    <path d="M16,2.2 L35.1,16 C35.1,16 33.1,21.2 24,17.7 C15,14.2 3.6,8.9 3.6,8.9 L5.3,0.7 L16,2.2 Z" fill="#EFBEAB"></path>
                                                </g>
                                                <polygon fill="#EFBEAB" points="3.7 51.9 15.2 0.1 34.2 1.9 18.1 50.1"></polygon>
                                            </g>
                                            <polygon fill="#4385B7" points="53.4 0.7 37.4 85.9 0.9 85.9 15 2.1"></polygon>
                                        </g>
                                    </g>
                                    <g>
                                        <path d="M54.7,0.7 L108.1,2.5 C120.1,3 129.1,13.8 127.4,25.7 L127.4,25.7 C125.9,35.6 117.4,43 107.4,43 L23.1,43 C23.1,43 -7.3,32.2 2.3,6 L54.7,0.7 Z" fill="#2A94F4"></path>
                                        <g transform="translate(74.000000, 25.000000)">
                                            <g transform="translate(2.000000, 46.000000)">
                                                <g transform="translate(0.000000, 43.000000)">
                                                    <path d="M35.1,16 L46.9,21.8 C48.2,22.4 48.9,23.8 48.5,25.2 C48.2,26.3 47.2,27.1 44.5,27.1 C38.6,27.2 12.8,23.3 12.8,23.3 L12.8,26 L0.8,24.6 C0.8,24.6 5.68434189e-14,10.9 3.6,8.8 L35.1,16 Z" fill="#000000"></path>
                                                    <path d="M16,2.2 L35.1,16 C35.1,16 33.1,21.2 24,17.7 C15,14.2 3.6,8.9 3.6,8.9 L5.3,0.7 L16,2.2 Z" fill="#FACBB6"></path>
                                                </g>
                                                <polygon fill="#FACBB6" points="3.7 51.9 15.2 0.1 34.3 1.9 18.1 50.1"></polygon>
                                            </g>
                                            <polygon fill="#2A94F4" points="53.4 0.7 37.4 85.9 0.9 85.9 15 2.1"></polygon>
                                        </g>
                                    </g>
                                </g>
                                <g transform="translate(0.000000, 42.000000)">
                                    <g transform="translate(6.000000, 9.000000)" fill="#DAD8DE">
                                        <rect id="Rectangle" x="30.5" y="0.6" width="11.4" height="62.9"></rect>
                                        <polygon id="Path" points="33.4 55.5 0.7 70.4 1.1 74.6 35.3 63.6"></polygon>
                                        <polygon id="Path" points="39 55.5 71.8 70.4 71.3 74.6 37.1 63.6"></polygon>
                                    </g>
                                    <circle id="Oval" fill="#010102" cx="8.1" cy="91.1" r="7.8"></circle>
                                    <circle id="Oval" fill="#010102" cx="77.8" cy="91.1" r="7.8"></circle>
                                    <path d="M74.4,14 L8.3,14 C4.6,14 1.7,11 1.7,7.4 L1.7,7.4 C1.7,3.7 4.7,0.8 8.3,0.8 L74.4,0.8 C78.1,0.8 81,3.8 81,7.4 L81,7.4 C81,11.1 78.1,14 74.4,14 Z" id="Path" fill="#004970"></path>
                                </g>
                            </g>
                            <g transform="translate(162.000000, 265.000000)" fill-rule="nonzero" id="Path">
                                <g transform="translate(29.000000, 8.000000)">
                                    <path d="M19.9,0.5 L48,38.4 C52.2,44 51.5,51.9 46.5,56.8 L46.5,56.8 C40.4,62.7 30.5,61.9 25.5,55.1 L0.4,21.1 L19.9,0.5 Z" fill="#ECA646"></path>
                                    <g transform="translate(31.000000, 8.000000)">
                                        <path d="M41.2,11.9 C41.2,11.9 46.3,2.5 54.8,0.3 C61.4,-1.4 66.9,8.7 69,13.2 C69.5,14.3 68.9,15.6 67.8,15.9 L67.8,15.9 C67.1,16.1 66.4,15.8 66,15.2 L63.7,12.1 C63.7,12.1 64.1,18.9 58.3,18.2 C52.5,17.6 50.6,15.4 50.6,15.4 L44.1,19.9 L41.2,11.9 Z" fill="#FACBB6"></path>
                                        <polygon fill="#ECA646" points="0.9 31 41.8 3.4 52.7 19.8 10.4 52.3"></polygon>
                                    </g>
                                </g>
                                <path d="M50,0.3 C50,0.3 31.6,7.5 18.5,33 C5.4,58.5 0.3,90 0.3,90 C0.3,90 24.6,96.8 52.7,84.7 L62.7,53 C62.7,53 71.4,42.8 62.7,11 L50,0.3 Z" fill="#B620E1"></path>
                                <g transform="translate(33.000000, 12.000000)">
                                    <g transform="translate(35.000000, 18.000000)">
                                        <path d="M42.7,8.1 C42.7,8.1 49.7,0.2 58.5,0.2 C65.3,0.2 68.5,11.3 69.5,16.3 C69.8,17.5 68.9,18.6 67.8,18.6 L67.8,18.6 C67.1,18.6 66.5,18.2 66.2,17.5 L64.6,13.9 C64.6,13.9 63.6,20.6 58.1,18.6 C52.6,16.5 51.3,13.9 51.3,13.9 L44,16.7 L42.7,8.1 Z" fill="#FACBB6"></path>
                                        <polygon fill="#B620E1" points="0.9 19.4 47.1 2 53.9 20.6 5.2 42.3"></polygon>
                                    </g>
                                    <path d="M19.5,0.7 L47.6,38.6 C51.8,44.2 51.1,52.1 46.1,57 L46.1,57 C40,62.9 30.1,62.1 25.1,55.3 L0,21.3 L19.5,0.7 Z" fill="#B620E1"></path>
                                </g>
                            </g>
                            <g>
                                <path d="M236,247.8 L248.4,248.2 C255,255.1 252.5,268.4 252.5,268.4 L232.4,262.6 L236,247.8 Z" id="Path" fill="#000000" fill-rule="nonzero"></path>
                                <polygon id="Path" fill="#FACBB6" fill-rule="nonzero" points="237.4 257.6 224.7 276 212 265.3 230.5 238.6"></polygon>
                                <polygon id="Path" fill="#EFBEAA" fill-rule="nonzero" points="230.6 267.4 230.7 254.9 236.1 259.5"></polygon>
                                <path d="M253.5,220.5 C253.5,220.5 261.9,224.5 259.2,235.7 C259.2,235.7 257.1,243.8 254.1,255.4 C252.5,261.5 245.5,264.9 239.9,261.9 C236.5,260 232.8,257.3 230,253.5 L226.3,247.3 C218.3,230.6 235.3,212.5 252.3,219.9 C252.7,220.1 253.1,220.3 253.5,220.5 Z" id="Path" fill="#FACBB6" fill-rule="nonzero"></path>
                                <path d="M254.9,247 L257.8,252 C258.2,252.7 257.6,253.5 256.8,253.4 L252.7,252.7 L254.9,247 Z" id="Path" fill="#FACBB6" fill-rule="nonzero"></path>
                                <g></g>
                                <path d="M236.1,237 C236.1,237 238.7,208.6 258.7,226.3 C258.7,226.3 253.9,209 231,212 C226.2,212.6 220.2,216.6 218.1,220.9 C214.7,228 217,235.5 220.2,249.1 L230.6,242.3 C231.6,240.6 236.1,237 236.1,237 Z" id="Path" fill="#000000" fill-rule="nonzero"></path>
                                <path d="M230.9,227 L232.3,239.4 C264.7,238.7 255.2,220.9 255.2,220.9 C255.2,220.9 233.2,206.8 230.9,227 Z" id="Path" fill="#000000" fill-rule="nonzero"></path>
                                <polygon id="Path" fill="#000000" fill-rule="nonzero" points="244.3 236.6 238.3 241.6 235.2 232.8"></polygon>
                                <path d="M250.5,221.1 C250.5,221.1 260.2,225.7 259.6,233.2 C259.6,233.2 270,227.3 254.4,219 C245.2,214.1 250.5,221.1 250.5,221.1 Z" id="Path" fill="#000000" fill-rule="nonzero"></path>
                                <path d="M232.5,242.8 C232.5,242.8 226.7,255.7 226.6,260.9 L202.1,252.4 C202.1,252.4 209.2,244.9 211.5,238.3 C213.3,233 214.2,220.1 224.8,214.2 L224.3,231.4 L232.5,242.8 Z" id="Path" fill="#000000" fill-rule="nonzero"></path>
                                <g transform="translate(226.000000, 234.000000)" fill="#FACBB6" fill-rule="nonzero" id="Path">
                                    <path d="M0.8,4.3 C-0.4,7.5 1.2,11 4.3,12.2 C7.5,13.4 11,11.8 12.2,8.7 C13.4,5.5 11.8,2 8.7,0.8 C5.5,-0.5 2,1.1 0.8,4.3 Z"></path>
                                </g>
                                <path d="M212,265.3 C212,265.3 215.9,276.7 226,281 L223.1,268.3 L212,265.3 Z" id="Path" fill="#FACBB6" fill-rule="nonzero"></path>
                            </g>
                        </g>
                    </g>
                </g>
            </g>
            <g id="gardening" transform="translate(275.000000, 302.000000)" fill-rule="nonzero">
                <path d="M230,40 C197.760194,20.3932675 161.035201,8.0416256 123.395998,4.15425611 C121.29988,3.9394015 119.032032,3.78450631 117.228866,4.86877261 C113.748805,6.97234916 114.299352,12.4586367 117.02683,15.4616047 C119.754309,18.459576 123.800068,19.8386428 127.34074,21.842287 C130.881411,23.8459311 134.29581,27.1886692 134.023062,31.2109474 C104.732973,22.3519421 73.6144639,19.4588998 43.1727733,22.7666615 C39.7331198,23.1414079 36.1722451,23.6360731 33.2578838,25.4848221 C30.3435225,27.3335711 28.2625574,30.9111502 29.2474802,34.1939289 C30.808204,39.3954091 37.8794446,40.0549628 43.3546052,39.6902096 L230,40 Z" id="Path" fill="#E9F9FF"></path>
                <path d="M462,142 C446.05806,123.952116 423.855193,111.740994 400.272203,108.054618 C402.543866,113.753141 406.130173,118.903828 410.668463,122.974202 C359.331889,123.593718 310.513789,91.6451229 259.529802,97.7839635 C256.190306,98.183321 252.468001,99.0076357 250.674847,101.900417 C247.536829,106.958945 252.875994,113.200185 258.210122,115.729448 C263.54425,118.253592 270.152725,120.291339 272.046618,125.959143 C261.257475,126.491619 250.468333,127.024096 239.674153,127.556573 C237.810482,127.648732 235.80074,127.802331 234.390395,129.041363 C231.730886,131.391428 233.186564,136.240037 236.228881,138.052505 C239.26616,139.870094 243.048908,139.568016 246.554624,139.209618 L462,142 Z" id="Path" fill="#E9F9FF"></path>
                <g id="Group" transform="translate(210.000000, 330.000000)">
                    <path d="M116.690593,112.893217 C72.2420763,115.309043 10.3519915,93.622087 0.0201694915,62.186087 C18.6668644,53.254087 78.3483898,74.5829565 116.690593,112.893217 Z" id="Path" fill="#B0E1FF"></path>
                    <path d="M116.791441,115.969739 C69.5091102,86.2535652 35.6394915,51.5947826 33.1082203,24.9954783 C50.3531356,30.7349565 97.5598305,63.2603478 116.791441,115.969739 Z" id="Path" fill="#CCEEFF"></path>
                    <path d="M116.690593,112.893217 C99.324661,104.339478 57.9066102,55.1453913 68.762839,24.1532174 C80.662839,39.1121739 109.848093,64.8994783 116.690593,112.893217 Z" id="Path" fill="#B0E1FF"></path>
                    <path d="M116.690593,112.893217 C100.388602,93.0773913 75.6708898,40.821913 80.244322,0.302608696 C90.9089407,4.71565217 127.042585,51.0702609 116.690593,112.893217 Z" id="Path" fill="#CCEEFF"></path>
                </g>
                <g id="Group" transform="translate(278.000000, 183.000000)">
                    <path d="M61.573118,255.556535 C45.6173942,251.92315 29.9144543,245.482835 17.9779955,234.325669 C6.04153675,223.168504 -1.67342984,206.770394 0.328619154,190.578898 C2.33066815,174.387402 15.4501559,159.420472 31.7395546,157.853228 C21.5523608,141.308976 13.7868374,122.648189 13.6705568,103.241575 C13.5542762,83.8299213 22.179265,63.6422047 38.7618931,53.4626772 C55.3394655,43.2831496 79.8645657,46.0044094 91.1488419,61.8229921 C90.0820935,32.0604724 115.320045,4.2784252 144.981715,0.66519685 C174.643385,-2.9480315 205.002739,16.6148031 215.61461,44.4573228 C226.226481,72.2998425 217.404321,105.882205 195.745791,126.40252 C221.256748,138.063622 232.156793,171.172283 223.991871,197.936378 C215.832004,224.700472 192.454543,244.772283 166.544187,255.526299 L61.573118,255.556535 Z" id="Path" fill="#2A94F4"></path>
                    <g transform="translate(3.033408, 69.039370)">
                        <g fill="#B620E1" id="Path">
                            <path d="M22.305657,22.1782677 C27.0175501,29.616378 36.8811804,31.8337008 44.3332517,27.1420472 C39.6213586,19.703937 29.7577283,17.4866142 22.305657,22.1782677 Z"></path>
                            <path d="M27.2804454,0.221732283 C19.8233185,4.91338583 17.5988196,14.7451969 22.305657,22.1782677 C29.7577283,17.4866142 31.9872829,7.65480315 27.2804454,0.221732283 Z"></path>
                            <path d="M17.3359243,44.1398425 C24.7930512,39.448189 27.0175501,29.616378 22.305657,22.1782677 C14.8485301,26.8699213 12.6240312,36.7017323 17.3359243,44.1398425 Z"></path>
                            <path d="M0.278062361,17.2195276 C4.98489978,24.6525984 14.8485301,26.8699213 22.305657,22.1782677 C17.5988196,14.7451969 7.73518931,12.527874 0.278062361,17.2195276 Z"></path>
                        </g>
                        <ellipse id="Oval" fill="#F7F7F7" cx="22.305657" cy="22.1782677" rx="4.09004454" ry="4.07685039"></ellipse>
                    </g>
                    <g transform="translate(159.759465, 130.015748)">
                        <g fill="#B620E1" id="Path">
                            <path d="M22.5938307,22.4302362 C17.7049889,29.7524409 19.6918708,39.6296063 27.0276615,44.5026772 C31.921559,37.1855118 29.9296214,27.3033071 22.5938307,22.4302362 Z"></path>
                            <path d="M44.7326503,18.0056693 C37.391804,13.1325984 27.4826726,15.1181102 22.5938307,22.4302362 C29.9296214,27.3033071 39.8438085,25.3228346 44.7326503,18.0056693 Z"></path>
                            <path d="M0.449955457,26.8648819 C7.79080178,31.7379528 17.6999332,29.7524409 22.5938307,22.4352756 C15.2529844,17.5622047 5.33879733,19.5426772 0.449955457,26.8648819 Z"></path>
                            <path d="M18.1549443,0.362834646 C13.2661024,7.68 15.2580401,17.5571654 22.5938307,22.4302362 C27.4776169,15.1181102 25.490735,5.23590551 18.1549443,0.362834646 Z"></path>
                        </g>
                        <ellipse id="Oval" fill="#F7F7F7" cx="22.5938307" cy="22.4302362" rx="4.09004454" ry="4.07685039"></ellipse>
                    </g>
                    <g transform="translate(115.269488, 82.645669)">
                        <g fill="#B620E1" id="Path">
                            <path d="M12.8869265,12.9259843 C10.0911359,17.1086614 11.2286637,22.7577953 15.4248775,25.5445669 C18.2156125,21.3618898 17.0831403,15.7127559 12.8869265,12.9259843 Z"></path>
                            <path d="M25.5412918,10.3962205 C21.345078,7.60944882 15.6776615,8.74330709 12.8869265,12.9259843 C17.0831403,15.7127559 22.7455011,14.5788976 25.5412918,10.3962205 Z"></path>
                            <path d="M0.227505568,15.4607874 C4.42371938,18.2475591 10.0911359,17.1137008 12.8869265,12.9259843 C8.69071269,10.144252 3.02329621,11.2730709 0.227505568,15.4607874 Z"></path>
                            <path d="M10.3489755,0.312440945 C7.55318486,4.49511811 8.69071269,10.144252 12.8869265,12.9259843 C15.6776615,8.74330709 14.5451893,3.0992126 10.3489755,0.312440945 Z"></path>
                        </g>
                        <ellipse id="Oval" fill="#F7F7F7" cx="12.8869265" cy="12.9259843" rx="2.34077951" ry="2.33322835"></ellipse>
                    </g>
                    <g transform="translate(38.423163, 187.968504)">
                        <g fill="#B620E1" id="Path">
                            <path d="M19.9193764,20.0012598 C24.5453229,26.2954331 33.4079287,27.656063 39.7174165,23.0500787 C35.0914699,16.7559055 26.2288641,15.3902362 19.9193764,20.0012598 Z"></path>
                            <path d="M22.9730067,0.272125984 C16.6635189,4.87811024 15.2984855,13.712126 19.9193764,20.0012598 C26.2288641,15.3902362 27.5938976,6.56125984 22.9730067,0.272125984 Z"></path>
                            <path d="M16.8708018,39.7354331 C23.1802895,35.1294488 24.5453229,26.2954331 19.9193764,20.0012598 C13.6098886,24.6072441 12.2448552,33.4412598 16.8708018,39.7354331 Z"></path>
                            <path d="M0.126391982,16.9574803 C4.74728285,23.2466142 13.6098886,24.6072441 19.9193764,20.0012598 C15.2984855,13.712126 6.43587973,12.3514961 0.126391982,16.9574803 Z"></path>
                        </g>
                        <ellipse id="Oval" fill="#F7F7F7" cx="19.9193764" cy="20.0012598" rx="3.62997773" ry="3.61826772"></ellipse>
                    </g>
                    <g transform="translate(182.004454, 15.622047)">
                        <g fill="#B620E1" id="Path">
                            <path d="M15.7534967,15.7581102 C16.4764588,23.5237795 23.377461,29.2333858 31.1632071,28.5127559 C30.440245,20.7420472 23.5442984,15.0374803 15.7534967,15.7581102 Z"></path>
                            <path d="M28.5443653,0.398110236 C20.7586192,1.11874016 15.0305345,7.99748031 15.7534967,15.7581102 C23.5442984,15.0374803 29.2673274,8.15874016 28.5443653,0.398110236 Z"></path>
                            <path d="M2.96262806,31.1231496 C10.7483742,30.4025197 16.4764588,23.5237795 15.7534967,15.7581102 C7.96775056,16.4787402 2.23966592,23.3524409 2.96262806,31.1231496 Z"></path>
                            <path d="M0.343786192,3.00850394 C1.06674833,10.7691339 7.96775056,16.4787402 15.7534967,15.7581102 C15.0305345,7.99244094 8.13458797,2.28787402 0.343786192,3.00850394 Z"></path>
                        </g>
                        <ellipse id="Oval" fill="#F7F7F7" cx="15.7534967" cy="15.7581102" rx="3.62997773" ry="3.61826772"></ellipse>
                    </g>
                </g>
                <g id="Group" transform="translate(0.000000, 210.000000)">
                    <path d="M26.1151685,94.3627451 C10.7797753,102.641503 0.364044944,118.806471 0.364044944,137.392157 C0.364044944,164.407582 22.3634831,186.304771 49.5050562,186.304771 C70.4426966,186.304771 88.3213483,173.270131 95.4,154.910915 L26.1151685,94.3627451 Z" id="Path" fill="#CCEEFF"></path>
                    <ellipse id="Oval" fill="#B0E1FF" cx="102.099438" cy="77.754902" rx="77.7994382" ry="77.4378431"></ellipse>
                    <g transform="translate(31.853933, 75.490196)" fill="#CCEEFF" id="Path">
                        <path d="M70.2505618,155.293399 C71.2314607,155.293399 72.0303371,154.503268 72.0303371,153.521895 L72.0303371,2.26470588 C72.0303371,1.28836601 71.2365169,0.493202614 70.2505618,0.493202614 C69.2696629,0.493202614 68.4707865,1.28333333 68.4707865,2.26470588 L68.4707865,153.521895 C68.4707865,154.498235 69.2646067,155.293399 70.2505618,155.293399 Z"></path>
                        <path d="M70.2505618,44.141634 C70.705618,44.141634 71.1606742,43.9705229 71.5095506,43.623268 L93.2966292,21.937451 C93.9893258,21.2479739 93.9893258,20.1256863 93.2966292,19.4311765 C92.5988764,18.7416993 91.4764045,18.7416993 90.7786517,19.4311765 L68.991573,41.1169935 C68.2988764,41.8064706 68.2988764,42.9287582 68.991573,43.6182353 C69.3404494,43.9654902 69.7955056,44.141634 70.2505618,44.141634 Z"></path>
                        <path d="M70.2505618,64.2773856 C70.705618,64.2773856 71.1606742,64.1062745 71.5095506,63.7590196 L93.2966292,42.0732026 C93.9893258,41.3837255 93.9893258,40.2614379 93.2966292,39.5719608 C92.5988764,38.8824837 91.4764045,38.8824837 90.7786517,39.5719608 L68.991573,61.2577778 C68.2988764,61.9472549 68.2988764,63.0695425 68.991573,63.7590196 C69.3404494,64.1012418 69.7955056,64.2773856 70.2505618,64.2773856 Z"></path>
                        <path d="M17.9696629,155.263203 C18.8393258,155.112222 19.4308989,154.296928 19.4308989,153.421242 L19.4308989,74.171634 C19.4308989,73.2103922 18.7078652,72.3548366 17.747191,72.3045098 C16.7207865,72.2491503 15.8713483,73.0644444 15.8713483,74.0709804 L15.8713483,153.521895 C15.8713483,154.603922 16.847191,155.459477 17.9696629,155.263203 Z"></path>
                        <path d="M17.6511236,85.6662745 C18.1061798,85.6662745 18.561236,85.4951634 18.9101124,85.1479085 C19.602809,84.4584314 19.602809,83.3361438 18.9101124,82.6466667 L3.2005618,67.0101307 C2.50786517,66.3206536 1.38033708,66.3206536 0.68258427,67.0101307 C-0.0101123596,67.6996078 -0.0101123596,68.8218954 0.68258427,69.5113725 L16.3921348,85.1479085 C16.7410112,85.4951634 17.1960674,85.6662745 17.6511236,85.6662745 Z"></path>
                        <path d="M17.6511236,100.185556 C18.1061798,100.185556 18.561236,100.014444 18.9101124,99.6671895 C19.602809,98.9777124 19.602809,97.8554248 18.9101124,97.1659477 L3.2005618,81.5294118 C2.50786517,80.8399346 1.38033708,80.8399346 0.68258427,81.5294118 C-0.0101123596,82.2188889 -0.0101123596,83.3411765 0.68258427,84.0306536 L16.3921348,99.6671895 C16.7410112,100.014444 17.1960674,100.185556 17.6511236,100.185556 Z"></path>
                    </g>
                </g>
                <g id="Group" transform="translate(438.000000, 359.000000)">
                    <path d="M7.09724551,88.3155 C39.7214371,83.0577222 81.2184431,57.4766111 83.7736527,32.9268333 C68.8498204,29.3576111 28.897006,54.3320556 7.09724551,88.3155 Z" id="Path" fill="#B0E1FF"></path>
                    <path d="M7.5097006,90.5753333 C37.1461078,61.4452222 56.2749701,30.8338333 53.931018,11.0413333 C42.3219162,17.9472222 13.1834731,49.1147222 7.5097006,90.5753333 Z" id="Path" fill="#CCEEFF"></path>
                    <path d="M7.09724551,88.3155 C18.3492216,79.3368333 40.6720958,36.9308333 27.9312575,16.0564444 C21.6488623,28.8368889 4.52694611,52.2491667 7.09724551,88.3155 Z" id="Path" fill="#B0E1FF"></path>
                    <path d="M7.09724551,88.3155 C15.8141317,71.2985 25.537006,29.2969444 15.8543713,0.480277778 C8.81245509,5.37911111 -10.1202395,44.8832222 7.09724551,88.3155 Z" id="Path" fill="#CCEEFF"></path>
                </g>
                <path d="M509.660924,484 L8.34411996,484 C4.85384377,484 2,481.172895 2,477.71532 L2,443.28468 C2,439.827105 4.85384377,437 8.34411996,437 L509.655873,437 C513.14615,437 516,439.827105 516,443.28468 L516,477.71532 C516,481.172895 513.151201,484 509.660924,484 Z" id="Path" fill="url(#radialGradient-3)" opacity="0.38999721"></path>
                <g id="Group" transform="translate(129.000000, 56.000000)">
                    <path d="M62.5383278,383.487145 C67.8824938,389.101145 75.5788989,396.056855 83.6933678,398.079509 C84.7460829,398.341799 84.7611936,399.688553 83.7084785,399.960931 C74.6974389,402.286226 50.7569853,399.799522 49.9561159,398.583912 C49.0393975,397.186717 50.8728343,383.487145 52.7062711,383.487145 C54.5447448,383.487145 62.5383278,383.487145 62.5383278,383.487145 Z" id="Path" fill="#1088E2"></path>
                    <path d="M28.8665558,380.117736 C34.6942656,386.816201 43.0857648,395.123711 51.9356232,397.534755 C53.0840397,397.847484 53.0991504,399.456528 51.9557709,399.779346 C42.1287511,402.55356 16.0224243,399.587673 15.1510382,398.134994 C14.1537291,396.465421 16.1483472,380.117736 18.1480022,380.117736 C20.1476571,380.117736 28.8665558,380.117736 28.8665558,380.117736 Z" id="Path" fill="#2A94F4"></path>
                    <path d="M61.349616,188.797862 C66.4822317,209.387572 68.6783263,385.928453 68.6783263,385.928453 C68.6783263,385.928453 54.4540803,392.934604 48.4450416,385.928453 C47.246256,373.227597 37.2882765,315.781195 45.3271917,289.002465 C36.3111151,262.662566 28.8665558,183.814365 28.8665558,183.814365 L61.349616,188.797862 Z" id="Path" fill="#0A3954"></path>
                    <path d="M60.4883037,190.502742 C60.4883037,200.535308 57.6273363,219.172981 52.9732275,224.191786 C48.3191187,229.210591 41.5192845,362.181182 37.2076858,387.023006 C21.5630301,392.425157 14.4055749,388.389937 14.4055749,388.389937 C14.4055749,388.389937 6.96605246,324.81 20.1174357,289.516956 C4.4778168,255.489962 1.6218864,183.209082 4.85054846,179.965774 C8.07921051,176.722465 60.4883037,190.502742 60.4883037,190.502742 Z" id="Path" fill="#0B4870"></path>
                    <path d="M31.5764157,77.8797484 C20.0922511,83.7358616 0.538949829,88.6487421 2.78037669,151.24005 C4.37707851,171.643132 0.221624229,182.361686 0.221624229,182.361686 C0.221624229,182.361686 54.8822181,199.995597 65.4295166,188.586013 C59.3549979,158.503447 65.7468422,123.230579 65.4295166,117.697283 C65.112191,112.163987 44.012557,82.4244151 44.012557,82.4244151 L31.5764157,77.8797484 Z" id="Path" fill="#2A94F4"></path>
                    <path d="M45.3725239,72.8256352 C44.1737383,81.2693333 45.3725239,89.4608302 45.3725239,89.4608302 L31.440419,80.603522 L32.5737247,58.1626541 L45.3725239,72.8256352 Z" id="Path" fill="#FFD3AE"></path>
                    <path d="M56.0860406,26.2188428 C44.4155102,21.5783396 29.3148411,16.2518491 18.3293311,35.1568553 C7.34382103,54.0618616 23.4770575,77.0878365 37.2076858,64.0288553 C50.9332773,50.9648302 56.0860406,26.2188428 56.0860406,26.2188428 Z" id="Path" fill="#0B4870"></path>
                    <path d="M67.9429368,53.4817987 C67.9429368,65.3503899 64.1551773,75.4888805 55.0131778,75.4888805 C45.8762153,75.4888805 33.8128056,68.1952201 33.8128056,56.3266289 C33.8128056,44.4580377 42.2546739,31.9892075 51.3966734,31.9892075 C60.5336359,31.9892075 67.9429368,41.6132075 67.9429368,53.4817987 Z" id="Path" fill="#FFE3CA"></path>
                    <path d="M46.6821216,36.9071321 C55.4362786,45.1944654 72.4056429,47.2625157 72.9496296,40.0142516 C73.4936163,32.7659874 64.1954726,14.637761 42.3000062,23.4446289 C20.4045398,32.2514969 46.6821216,36.9071321 46.6821216,36.9071321 Z" id="Path" fill="#0B4870"></path>
                    <path d="M48.2888973,34.5767925 C46.7375277,41.310566 41.5646167,51.1464151 32.2563991,50.1123899 C22.9481815,49.0783648 26.796384,28.6904151 34.9561851,27.4899371 C43.1210232,26.2945031 48.2888973,34.5767925 48.2888973,34.5767925 Z" id="Path" fill="#0B4870"></path>
                    <ellipse id="Oval" fill="#FFE3CA" transform="translate(33.596238, 54.215190) rotate(-19.913595) translate(-33.596238, -54.215190) " cx="33.5962384" cy="54.2151899" rx="4.90672045" ry="5.82989442"></ellipse>
                    <path d="M29.7883111,27.6311698 C25.3004205,31.5503774 19.8907745,35.4141006 13.9774371,34.7281132 C8.17491189,34.0572579 3.53591383,28.7509434 2.66956457,22.9654465 C1.80825223,17.1799497 4.24611874,11.228 8.19505954,6.91535849 C11.9576345,2.80447799 17.3723174,-0.095836478 22.9280338,0.282465409 C29.440764,0.721295597 35.7671283,5.46267925 41.9675698,3.41984906 C44.2140336,2.67837736 46.3245007,1.05924528 48.6717027,1.36188679 C51.6233345,1.74018868 53.3459592,5.05411321 53.4416606,8.03513208 C53.5877311,12.6756352 51.0138679,17.0841132 47.5182494,20.1307044 C44.0226309,23.1772956 39.6808107,25.058717 35.3389906,26.6929811 L29.7883111,27.6311698 Z" id="Path" fill="#0B4870"></path>
                    <path d="M129.075965,124.022491 C129.075965,124.022491 127.53467,126.246906 123.268403,126.988377 C123.20796,126.998465 123.14248,127.008553 123.082037,127.018642 L123.082037,127.064038 C123.243219,131.316151 121.465188,139.800201 111.623057,138.710692 C111.159661,138.660252 110.716413,138.614855 110.283238,138.579547 C103.745324,137.999484 100.018007,138.781308 98.5018958,139.23527 L98.4918219,139.23527 C97.9478352,139.401723 97.6959895,139.52278 97.6959895,139.52278 C97.6959895,139.52278 37.9229277,184.404516 20.1174357,129.84834 C32.4578757,112.900415 43.5693086,112.774314 43.5693086,112.774314 C55.5118323,131.845774 57.8086653,153.918428 94.9962034,127.018642 C103.266817,120.809447 113.743598,118.726264 116.916854,121.545874 C120.09011,124.370528 129.075965,124.022491 129.075965,124.022491 Z" id="Path" fill="#FFD3AE"></path>
                    <path d="M48.4400047,115.528352 C45.5236313,110.559987 29.853791,83.0397862 18.394811,93.3295975 C6.93583097,103.619409 7.0164216,119.876302 14.6020145,134.498931 C30.3776301,128.965635 48.4400047,115.528352 48.4400047,115.528352 Z" id="Path" fill="#49B0FC"></path>
                    <g transform="translate(87.138617, 123.074214)" id="Path">
                        <path d="M18.2940727,38.5867925 C11.6151243,6.34538365 24.1016349,1.18030189 25.5472293,0.696075472 C31.3648653,-1.24587421 39.7664383,4.8321761 45.5135575,15.1572956 L42.7885869,16.6805912 C37.4393839,7.07172327 30.1862273,2.44130818 26.5344645,3.66196226 C22.5603391,4.98854088 16.3598976,13.8660252 21.3464427,37.9512453 L18.2940727,38.5867925 Z" fill="#B620E1"></path>
                        <path d="M88.8259834,60.3820252 L88.8259834,67.4587925 L56.3580339,74.7272327 C56.3580339,74.7272327 55.0232517,81.2289811 49.4876829,91.9374465 C17.5939416,93.6625031 2.31194366,66.3137987 0.2115504,60.1903522 C0.2115504,60.1903522 13.1715309,43.9284151 24.2527423,30.274239 C25.7537427,28.4230818 27.2144479,26.6324528 28.6096731,24.9275723 C33.6012552,18.8192579 37.6861927,13.9215094 39.1670455,12.3729937 C42.4309659,8.98845283 47.5736554,9.88124528 53.592768,13.1800377 C60.2717163,16.847044 65.8475805,22.2441509 69.9627394,28.6601509 C71.1514512,30.5163522 72.0933542,32.2615849 72.3099415,33.4116226 C72.7028208,35.5149811 68.8042491,44.9775723 65.4698119,52.5436101 C64.5480566,54.6419245 63.6615597,56.5889182 62.9261702,58.2030063 C61.7475322,60.7805031 60.9416259,62.4803396 60.9416259,62.4803396 L79.9559774,61.0427925 L87.2796507,60.4929937 L88.8259834,60.3820252 Z" fill="#B620E1"></path>
                        <path d="M44.1485537,11.9089434 C50.0467803,12.7311195 68.3055946,21.9566415 70.6074645,33.1594214 C58.1058432,30.6878491 44.012557,16.5191824 44.1485537,11.9089434 Z" fill="#F7F7F7"></path>
                        <path d="M65.4698119,52.5536981 C64.5480566,54.6520126 63.6615597,56.5990063 62.9261702,58.2130943 C49.069619,56.6847547 25.8695918,39.7267421 24.2527423,30.284327 C25.7537427,28.4331698 27.2144479,26.6425409 28.6096731,24.9376604 C38.8094246,38.2034465 54.5195602,48.1048679 65.4698119,52.5536981 Z" fill="#F7F7F7"></path>
                    </g>
                    <path d="M124.306008,126.468843 C124.099494,126.610075 123.736836,126.79166 123.268403,126.988377 C123.20796,127.013597 123.14248,127.038818 123.082037,127.064038 C121.02194,127.896302 119.661973,127.462516 118.649553,127.598704 C118.337264,127.634013 110.283238,138.579547 110.283238,138.579547 C103.745324,137.999484 100.018007,138.781308 98.5018958,139.23527 L98.4918219,139.23527 C98.4918219,139.23527 109.754362,122.514327 110.142205,122.514327 C110.530047,122.514327 121.898363,124.062843 121.898363,124.062843 L124.306008,126.468843 Z" id="Path" fill="#FFD3AE"></path>
                </g>
                <path d="M310.841425,244.803899 C317.582067,242.25807 324.368495,246.211593 328.183952,251.647687 C332.187639,257.358332 334.176765,264.451711 336.115017,271.040916 C340.367981,285.522193 342.626732,300.492667 342.94723,315.552995 C342.987929,317.479838 346.040295,317.48483 345.999597,315.552995 C345.643487,298.650685 342.881096,281.81826 337.656462,265.704658 C335.443497,258.885829 332.996516,251.497932 327.654876,246.356356 C323.086501,241.95856 316.203415,239.582453 310.032548,241.908642 C308.211303,242.597513 309,245.497762 310.841425,244.803899 L310.841425,244.803899 Z" id="Path" fill="#80DBFF"></path>
                <path d="M307.737269,248.82971 C314.347377,252.719136 315.577404,260.859795 315.753123,267.759255 C315.985691,276.75418 315.267313,285.849608 314.579945,294.819408 C313.091508,314.145936 310.476407,333.361912 307.861305,352.567837 C307.602896,354.487425 310.703807,354.467324 310.962216,352.567837 C313.753035,332.060411 316.543855,311.53791 317.970274,290.889782 C318.590456,281.894856 319.556906,272.533098 318.590456,263.528122 C317.861742,256.759315 315.592909,249.930206 309.308397,246.226709 C307.59256,245.221689 306.031768,247.82469 307.737269,248.82971 L307.737269,248.82971 Z" id="Path" fill="#80DBFF"></path>
                <path d="M326,288.452659 C326,294.815253 326,301.182865 326,307.545459 C326,309.482337 329,309.487355 329,307.545459 C329,301.182865 329,294.815253 329,288.452659 C329,286.51578 326,286.51578 326,288.452659 L326,288.452659 Z" id="Path" fill="#80DBFF"></path>
                <path d="M300.019006,313.472191 C298.893816,337.363294 295.210927,361.040538 289.05956,384.106757 C288.553968,386.006029 291.418988,386.815638 291.929537,384.921458 C298.150299,361.600645 301.857972,337.628072 302.998032,313.472191 C303.087254,311.506725 300.113185,311.511817 300.019006,313.472191 L300.019006,313.472191 Z" id="Path" fill="#80DBFF"></path>
                <circle id="Oval" fill="#B620E1" cx="463.5" cy="33.5" r="33.5"></circle>
            </g>
        </g>
    </g>
</svg>