<?xml version="1.0" encoding="UTF-8"?>
<svg width="8763px" height="2321px" viewBox="0 0 8763 2321" version="1.1" xmlns="http://www.w3.org/2000/svg" xmlns:xlink="http://www.w3.org/1999/xlink">
    <!-- Generator: Sketch 63.1 (92452) - https://sketch.com -->
    <title>Logo Copy</title>
    <desc>Created with Sketch.</desc>
    <defs>
        <radialGradient cx="67.5399357%" cy="-0.767088854%" fx="67.5399357%" fy="-0.767088854%" r="114.347308%" gradientTransform="translate(0.675399,-0.007671),scale(1.000000,0.892881),rotate(110.248645),scale(1.000000,0.617017),translate(-0.675399,0.007671)" id="radialGradient-1">
            <stop stop-color="#01E875" offset="0%"></stop>
            <stop stop-color="#EAD612" offset="100%"></stop>
        </radialGradient>
        <radialGradient cx="74.9771891%" cy="-5.1766992%" fx="74.9771891%" fy="-5.1766992%" r="125.211091%" gradientTransform="translate(0.749772,-0.051767),scale(0.774929,1.000000),rotate(136.255731),translate(-0.749772,0.051767)" id="radialGradient-2">
            <stop stop-color="#FCA429" offset="0%"></stop>
            <stop stop-color="#F13BB0" offset="49.9208193%"></stop>
            <stop stop-color="#DD17D5" offset="100%"></stop>
        </radialGradient>
        <radialGradient cx="-1.8051763%" cy="14.6446609%" fx="-1.8051763%" fy="14.6446609%" r="137.900004%" gradientTransform="translate(-0.018052,0.146447),scale(1.000000,0.777026),rotate(41.293059),scale(1.000000,0.546735),translate(0.018052,-0.146447)" id="radialGradient-3">
            <stop stop-color="#01E677" offset="0%"></stop>
            <stop stop-color="#1F88E5" offset="100%"></stop>
        </radialGradient>
        <radialGradient cx="22.7662872%" cy="55.8780255%" fx="22.7662872%" fy="55.8780255%" r="135.472371%" gradientTransform="translate(0.227663,0.558780),scale(0.413129,1.000000),scale(1.000000,0.617017),translate(-0.227663,-0.558780)" id="radialGradient-4">
            <stop stop-color="#01E875" offset="0%"></stop>
            <stop stop-color="#EAD612" offset="100%"></stop>
        </radialGradient>
        <radialGradient cx="12.3483327%" cy="54.344945%" fx="12.3483327%" fy="54.344945%" r="159.399406%" gradientTransform="translate(0.123483,0.543449),scale(0.510023,1.000000),rotate(12.793563),translate(-0.123483,-0.543449)" id="radialGradient-5">
            <stop stop-color="#FFBA0E" offset="0%"></stop>
            <stop stop-color="#F033B9" offset="48.0970228%"></stop>
            <stop stop-color="#DD17D5" offset="100%"></stop>
        </radialGradient>
        <radialGradient cx="50%" cy="100%" fx="50%" fy="100%" r="146.530027%" gradientTransform="translate(0.500000,1.000000),scale(1.000000,0.682454),rotate(-90.000000),scale(1.000000,0.546735),translate(-0.500000,-1.000000)" id="radialGradient-6">
            <stop stop-color="#01E677" offset="0%"></stop>
            <stop stop-color="#1F88E5" offset="100%"></stop>
        </radialGradient>
    </defs>
    <g id="Logo-Copy" stroke="none" stroke-width="1" fill="none" fill-rule="evenodd">
        <g id="Group-13" transform="translate(-107.000000, 480.000000)">
            <g id="Group">
                <g id="Group-12" transform="translate(607.749781, 88.951654)">
                    <path d="M485.323784,1087.45237 L907.199276,666.561143 C931.6546,642.162875 936.878874,615.179946 922.872098,585.612357 C922.872098,585.612357 1003.25465,662.944117 1001.08977,760.232589 C998.924901,857.521061 977.124494,918.614894 912.197683,983.390226 C847.270873,1048.16556 776.595185,1118.67635 776.595185,1118.67635 C748.611898,1154.55141 653.43076,1180.67463 583.347254,1149.22843 C536.624917,1128.26429 503.950427,1107.67227 485.323784,1087.45237 Z" id="Path-4" fill="url(#radialGradient-1)"></path>
                    <path d="M890.16674,213.213265 C748.539603,185.06277 663.845025,176.353556 636.083004,187.085622 C594.439973,203.183721 575.799813,201.558804 417.248834,360.071428 C311.548181,465.746512 201.606725,575.661373 87.4244634,689.816013 C48.9488727,651.34973 29.7110774,632.116588 29.7110774,632.116588 C-12.9526037,589.463227 -15.2834114,466.068685 60.0459688,390.757527 C60.0459688,390.757527 361.542779,89.333651 393.324341,57.5597772 C425.105903,25.7859034 610.444719,-55.9464504 727.066749,60.6473682 C727.066749,60.6473682 781.433413,111.502667 890.16674,213.213265 Z" id="Path-5" fill="url(#radialGradient-2)"></path>
                    <path d="M908.265425,987.801905 C1004.39231,891.814382 1069.90104,826.400621 1104.79162,791.560622 C1182.71282,700.466735 1192.57313,522.17044 1104.69608,428.184148 C1046.11138,365.526619 974.400712,293.919913 889.564072,213.364029 C737.839852,152.300492 619.758312,163.926946 535.31945,248.243392 C535.31945,248.243392 565.285888,230.334544 614.544626,279.521869 C647.383784,312.313419 753.888713,418.663941 934.059411,598.573435 C979.102319,652.829094 1000.59416,716.73729 998.534924,790.298025 C996.475692,863.858759 966.385859,929.693386 908.265425,987.801905 Z" id="Path-6" fill="url(#radialGradient-3)"></path>
                </g>
                <g id="Group-11">
                    <path d="M835.022587,423.132607 L239.423324,423.117362 C204.897561,423.116478 182.116513,438.519546 171.080178,469.326566 C171.080178,469.326566 169.057476,357.870683 239.419931,290.565559 C309.782386,223.260435 368.397121,195.424443 460.06009,195.42679 C551.72306,195.429136 651.502233,195.43169 651.502233,195.43169 C696.638566,189.802946 782.311032,238.508966 809.534818,310.229881 C827.684009,358.043824 836.179932,395.678066 835.022587,423.132607 Z" id="Path-4" fill="url(#radialGradient-4)" transform="translate(503.103416, 332.158238) rotate(-45.000000) translate(-503.103416, -332.158238) "></path>
                    <path d="M429.053792,648.825931 C509.190598,768.731765 562.852562,834.697491 590.039683,846.723109 C630.820366,864.761535 642.83682,879.073558 866.777977,879.07929 C1016.07208,879.083111 1171.35669,879.087086 1332.63181,879.091214 C1332.63181,933.435049 1332.63181,960.606967 1332.63181,960.606967 C1332.63181,1020.86616 1247.1179,1109.67106 1140.7209,1109.67106 C1140.7209,1109.67106 714.879668,1109.66016 669.990638,1109.65901 C625.101607,1109.65787 436.476947,1036.49889 436.47273,871.779177 C436.47273,871.779177 433.999751,797.461428 429.053792,648.825931 Z" id="Path-5" fill="url(#radialGradient-5)" transform="translate(880.842803, 879.248497) rotate(-45.000000) translate(-880.842803, -879.248497) "></path>
                    <path d="M736.282464,336.044166 C600.559149,336.044166 508.066165,336.044166 458.803511,336.044166 C339.392633,345.433897 206.382052,464.522644 201.976132,593.00747 C199.038851,678.664021 199.041443,779.914036 201.983907,896.757514 C265.927908,1047.04486 357.5103,1122.18853 476.731081,1122.18853 C476.731081,1122.18853 442.91451,1113.69382 442.912729,1044.14423 C442.911543,997.777833 442.907693,847.400969 442.901182,593.013637 C449.458821,522.857181 479.466998,462.503267 532.925711,411.951895 C586.384424,361.400524 654.170008,336.097948 736.282464,336.044166 Z" id="Path-6" fill="url(#radialGradient-6)" transform="translate(468.028789, 729.116350) rotate(-45.000000) translate(-468.028789, -729.116350) "></path>
                    <path d="M736.282464,336.044166 C600.559149,336.044166 508.066165,336.044166 458.803511,336.044166 C339.392633,345.433897 206.382052,464.522644 201.976132,593.00747 C199.038851,678.664021 199.041443,779.914036 201.983907,896.757514 C265.927908,1047.04486 357.5103,1122.18853 476.731081,1122.18853 C476.731081,1122.18853 442.91451,1113.69382 442.912729,1044.14423 C442.911543,997.777833 442.907693,847.400969 442.901182,593.013637 C449.458821,522.857181 479.466998,462.503267 532.925711,411.951895 C586.384424,361.400524 654.170008,336.097948 736.282464,336.044166 Z" id="Path-6" fill="url(#radialGradient-6)" transform="translate(468.028789, 729.116350) rotate(-45.000000) translate(-468.028789, -729.116350) "></path>
                </g>
            </g>
        </g>
        <path d="M2520,1402 C2586,1402 2642,1388 2688,1360 C2697.33333,1354.66667 2704.66667,1346.83333 2710,1336.5 C2715.33333,1326.16667 2718,1314.66667 2718,1302 C2718,1281.33333 2713.16667,1264.5 2703.5,1251.5 C2693.83333,1238.5 2681.33333,1232 2666,1232 C2656,1232 2646.83333,1233.5 2638.5,1236.5 C2630.16667,1239.5 2619.33333,1244 2606,1250 C2594,1256 2583.16667,1260.5 2573.5,1263.5 C2563.83333,1266.5 2553.33333,1268 2542,1268 C2510,1268 2485.5,1257.5 2468.5,1236.5 C2451.5,1215.5 2443,1185 2443,1145 C2443,1064.33333 2476,1024 2542,1024 C2553.33333,1024 2563.66667,1025.5 2573,1028.5 C2582.33333,1031.5 2593.66667,1036 2607,1042 C2618.33333,1048 2628.66667,1052.5 2638,1055.5 C2647.33333,1058.5 2657,1060 2667,1060 C2682.33333,1060 2694.83333,1053.5 2704.5,1040.5 C2714.16667,1027.5 2719,1010.66667 2719,990 C2719,964 2708.66667,944.666667 2688,932 C2666.66667,918.666667 2642,908.333333 2614,901 C2586,893.666667 2558,890 2530,890 C2477.33333,890 2430.5,900.666667 2389.5,922 C2348.5,943.333333 2316.66667,973.666667 2294,1013 C2271.33333,1052.33333 2260,1097.66667 2260,1149 C2260,1227 2283.33333,1288.66667 2330,1334 C2376.66667,1379.33333 2440,1402 2520,1402 Z M3031,1402 C3085.66667,1402 3133.33333,1391.5 3174,1370.5 C3214.66667,1349.5 3246.16667,1319.66667 3268.5,1281 C3290.83333,1242.33333 3302,1197 3302,1145 C3302,1093 3290.83333,1047.83333 3268.5,1009.5 C3246.16667,971.166667 3214.66667,941.666667 3174,921 C3133.33333,900.333333 3085.66667,890 3031,890 C2976.33333,890 2928.66667,900.333333 2888,921 C2847.33333,941.666667 2815.83333,971.166667 2793.5,1009.5 C2771.16667,1047.83333 2760,1093 2760,1145 C2760,1197 2771.16667,1242.33333 2793.5,1281 C2815.83333,1319.66667 2847.5,1349.5 2888.5,1370.5 C2929.5,1391.5 2977,1402 3031,1402 Z M3031,1269 C2967.66667,1269 2936,1227.66667 2936,1145 C2936,1062.33333 2967.66667,1021 3031,1021 C3094.33333,1021 3126,1062.33333 3126,1145 C3126,1227.66667 3094.33333,1269 3031,1269 Z M3799,1400 C3826.33333,1400 3848,1392.66667 3864,1378 C3880,1363.33333 3888,1343.33333 3888,1318 L3888,1318 L3888,1102 C3888,1030.66667 3873.66667,977.5 3845,942.5 C3816.33333,907.5 3772.66667,890 3714,890 C3680.66667,890 3650.33333,896.666667 3623,910 C3595.66667,923.333333 3573.33333,942.666667 3556,968 C3556,945.333333 3548.5,927 3533.5,913 C3518.5,899 3498.33333,892 3473,892 C3446.33333,892 3424.66667,899.5 3408,914.5 C3391.33333,929.5 3383,948.666667 3383,972 L3383,972 L3383,1318 C3383,1343.33333 3391,1363.33333 3407,1378 C3423,1392.66667 3444.66667,1400 3472,1400 C3499.33333,1400 3521,1392.66667 3537,1378 C3553,1363.33333 3561,1343.33333 3561,1318 L3561,1318 L3561,1120 C3561,1091.33333 3568.83333,1068.5 3584.5,1051.5 C3600.16667,1034.5 3621.33333,1026 3648,1026 C3668.66667,1026 3684.16667,1032.66667 3694.5,1046 C3704.83333,1059.33333 3710,1080.66667 3710,1110 L3710,1110 L3710,1318 C3710,1343.33333 3718,1363.33333 3734,1378 C3750,1392.66667 3771.66667,1400 3799,1400 Z M4120,1399 C4145.33333,1399 4166.5,1392 4183.5,1378 C4200.5,1364 4209,1343.33333 4209,1316 L4209,1316 L4209,1033 L4264,1033 C4317.33333,1033 4344,1011 4344,967 C4344,923.666667 4317.33333,902 4264,902 L4264,902 L4209,902 L4209,890 C4209,868.666667 4213.83333,851.5 4223.5,838.5 C4233.16667,825.5 4250,818 4274,816 L4274,816 L4300,814 C4320.66667,812.666667 4337,806.5 4349,795.5 C4361,784.5 4367,769 4367,749 C4367,729 4360.66667,713.666667 4348,703 C4335.33333,692.333333 4314.66667,687 4286,687 C4277.33333,687 4270.33333,687.333333 4265,688 L4265,688 L4239,690 C4175.66667,694.666667 4125.5,715.166667 4088.5,751.5 C4051.5,787.833333 4032.33333,838 4031,902 L4031,902 L4002,902 C3948.66667,902 3922,923.666667 3922,967 C3922,1011 3948.66667,1033 4002,1033 L4002,1033 L4031,1033 L4031,1316 C4031,1343.33333 4039.5,1364 4056.5,1378 C4073.5,1392 4094.66667,1399 4120,1399 Z M4475,843 C4485.66667,843 4495.66667,839.666667 4505,833 L4505,833 L4618,759 C4642.66667,742.333333 4655,722.333333 4655,699 C4655,680.333333 4647.66667,664.166667 4633,650.5 C4618.33333,636.833333 4601.33333,630 4582,630 C4570,630 4558.16667,633.166667 4546.5,639.5 C4534.83333,645.833333 4524.33333,655.333333 4515,668 L4515,668 L4441,770 C4433.66667,779.333333 4430,789.333333 4430,800 C4430,811.333333 4434.33333,821.333333 4443,830 C4451.66667,838.666667 4462.33333,843 4475,843 Z M4471,1400 C4496.33333,1400 4517.5,1393.16667 4534.5,1379.5 C4551.5,1365.83333 4560,1345.33333 4560,1318 L4560,1318 L4560,974 C4560,946.666667 4551.5,926.166667 4534.5,912.5 C4517.5,898.833333 4496.33333,892 4471,892 C4445.66667,892 4424.5,898.833333 4407.5,912.5 C4390.5,926.166667 4382,946.666667 4382,974 L4382,974 L4382,1318 C4382,1345.33333 4390.5,1365.83333 4407.5,1379.5 C4424.5,1393.16667 4445.66667,1400 4471,1400 Z M4822,1402 C4852.66667,1402 4879,1395.33333 4901,1382 C4923,1368.66667 4938.66667,1350 4948,1326 C4949.33333,1348.66667 4957.5,1366.66667 4972.5,1380 C4987.5,1393.33333 5006.66667,1400 5030,1400 C5056.66667,1400 5077.5,1392.83333 5092.5,1378.5 C5107.5,1364.16667 5115,1344.33333 5115,1319 L5115,1319 L5115,1110 C5115,1036 5096.83333,980.833333 5060.5,944.5 C5024.16667,908.166667 4968,890 4892,890 C4858,890 4823.33333,893.666667 4788,901 C4752.66667,908.333333 4723.33333,918 4700,930 C4686.66667,937.333333 4677,945.666667 4671,955 C4665,964.333333 4662,976.333333 4662,991 C4662,1010.33333 4667,1026 4677,1038 C4687,1050 4700.33333,1056 4717,1056 C4727.66667,1056 4740.66667,1053.33333 4756,1048 C4808.66667,1029.33333 4848.66667,1020 4876,1020 C4901.33333,1020 4919.33333,1025.16667 4930,1035.5 C4940.66667,1045.83333 4946,1062.66667 4946,1086 L4946,1086 L4946,1098 L4919,1098 C4851,1098 4797,1102.66667 4757,1112 C4717,1121.33333 4687.83333,1136.5 4669.5,1157.5 C4651.16667,1178.5 4642,1206.66667 4642,1242 C4642,1272.66667 4649.83333,1300.16667 4665.5,1324.5 C4681.16667,1348.83333 4702.66667,1367.83333 4730,1381.5 C4757.33333,1395.16667 4788,1402 4822,1402 Z M4864,1283 C4848.66667,1283 4836.16667,1278 4826.5,1268 C4816.83333,1258 4812,1245.33333 4812,1230 C4812,1212 4821,1199.16667 4839,1191.5 C4857,1183.83333 4887.33333,1180 4930,1180 L4930,1180 L4946,1180 L4946,1192 C4946,1218.66667 4938.33333,1240.5 4923,1257.5 C4907.66667,1274.5 4888,1283 4864,1283 Z M5898,1399 C5907.33333,1399 5914.66667,1396.16667 5920,1390.5 C5925.33333,1384.83333 5928,1377.33333 5928,1368 L5928,1368 L5928,1085 C5928,959.666667 5874.33333,897 5767,897 C5729.66667,897 5696.66667,905.5 5668,922.5 C5639.33333,939.5 5618,963 5604,993 C5581.33333,929 5531.66667,897 5455,897 C5420.33333,897 5389.83333,904.833333 5363.5,920.5 C5337.16667,936.166667 5317,959 5303,989 L5303,989 L5303,929 C5303,919.666667 5300.5,912.333333 5295.5,907 C5290.5,901.666667 5283.33333,899 5274,899 C5264.66667,899 5257.16667,901.666667 5251.5,907 C5245.83333,912.333333 5243,920 5243,930 L5243,930 L5243,1368 C5243,1377.33333 5245.83333,1384.83333 5251.5,1390.5 C5257.16667,1396.16667 5264.66667,1399 5274,1399 C5283.33333,1399 5290.66667,1396.16667 5296,1390.5 C5301.33333,1384.83333 5304,1377.33333 5304,1368 L5304,1368 L5304,1113 C5304,1063.66667 5316.83333,1024.33333 5342.5,995 C5368.16667,965.666667 5402.66667,951 5446,951 C5484,951 5511.66667,961.833333 5529,983.5 C5546.33333,1005.16667 5555,1040.33333 5555,1089 L5555,1089 L5555,1368 C5555,1377.33333 5557.83333,1384.83333 5563.5,1390.5 C5569.16667,1396.16667 5576.66667,1399 5586,1399 C5595.33333,1399 5602.66667,1396.16667 5608,1390.5 C5613.33333,1384.83333 5616,1377.33333 5616,1368 L5616,1368 L5616,1113 C5616,1063.66667 5628.83333,1024.33333 5654.5,995 C5680.16667,965.666667 5714.66667,951 5758,951 C5796,951 5823.66667,961.833333 5841,983.5 C5858.33333,1005.16667 5867,1040.33333 5867,1089 L5867,1089 L5867,1368 C5867,1377.33333 5869.83333,1384.83333 5875.5,1390.5 C5881.16667,1396.16667 5888.66667,1399 5898,1399 Z M6294,1401 C6347.33333,1401 6398,1386.66667 6446,1358 C6468.66667,1344 6480,1329.66667 6480,1315 C6480,1308.33333 6477.83333,1302.5 6473.5,1297.5 C6469.16667,1292.5 6464,1290 6458,1290 C6452,1290 6441.66667,1295 6427,1305 C6405,1317.66667 6384.33333,1327.83333 6365,1335.5 C6345.66667,1343.16667 6321.66667,1347 6293,1347 C6238.33333,1347 6196,1331 6166,1299 C6136,1267 6120,1220.33333 6118,1159 L6118,1159 L6451,1159 C6463,1159 6471.66667,1156.16667 6477,1150.5 C6482.33333,1144.83333 6485,1136 6485,1124 C6485,1053.33333 6466.83333,997.833333 6430.5,957.5 C6394.16667,917.166667 6344.66667,897 6282,897 C6237.33333,897 6197.83333,907.5 6163.5,928.5 C6129.16667,949.5 6102.5,979.166667 6083.5,1017.5 C6064.5,1055.83333 6055,1100 6055,1150 C6055,1228 6076.33333,1289.33333 6119,1334 C6161.66667,1378.66667 6220,1401 6294,1401 Z M6429,1114 L6120,1114 C6125.33333,1061.33333 6142,1020.33333 6170,991 C6198,961.666667 6235.33333,947 6282,947 C6328,947 6363.66667,961.5 6389,990.5 C6414.33333,1019.5 6427.66667,1060.66667 6429,1114 L6429,1114 Z" id="confíame" fill="#FFFFFF" fill-rule="nonzero"></path>
    </g>
</svg>