<?xml version="1.0" encoding="UTF-8"?>
<svg width="1713px" height="1112px" viewBox="0 0 1713 1112" version="1.1" xmlns="http://www.w3.org/2000/svg" xmlns:xlink="http://www.w3.org/1999/xlink">
    <!-- Generator: Sketch 63.1 (92452) - https://sketch.com -->
    <title>rating</title>
    <desc>Created with Sketch.</desc>
    <defs>
        <radialGradient cx="61.6175461%" cy="31.9916502%" fx="61.6175461%" fy="31.9916502%" r="68.2744374%" gradientTransform="translate(0.616175,0.319917),scale(0.624807,1.000000),rotate(56.250187),translate(-0.616175,-0.319917)" id="radialGradient-1">
            <stop stop-color="#250CFF" offset="0%"></stop>
            <stop stop-color="#0098FF" offset="56.7725929%"></stop>
            <stop stop-color="#00FFD6" offset="99.9181799%"></stop>
        </radialGradient>
    </defs>
    <g id="Page-1" stroke="none" stroke-width="1" fill="none" fill-rule="evenodd">
        <g id="rating" transform="translate(0.000000, -1.000000)" fill-rule="nonzero">
            <g id="Rating">
                <path d="M3,657 C50.4,973.2 718,1052.4 763.3,1057.3 C894.1,1071.6 1464.5,1133.8 1653.2,792.3 C1733.8,646.5 1732.6,449.2 1650.3,302.7 C1447.5,-58.8 764.9,-87.1 351.5,173.1 C291.1,211.2 -31.9,424.3 3,657 Z" id="Path" fill="url(#radialGradient-1)" opacity="0.112467448"></path>
                <polygon id="Path" fill="#D3D3D3" points="1394.3 619.5 1314.7 576.9 1234.4 618.4 1250.3 529.5 1186 466 1275.5 453.6 1316 372.9 1355.4 454.2 1444.7 467.7 1379.7 530.3"></polygon>
                <polygon id="Path" fill="#FFBE55" points="1108.6 619.5 1028.9 576.9 948.7 618.4 964.5 529.5 900.2 466 989.7 453.6 1030.2 372.9 1069.7 454.2 1159 467.7 1093.9 530.3"></polygon>
                <polygon id="Path" fill="#FFBE55" points="822.8 619.5 743.1 576.9 662.9 618.4 678.7 529.5 614.5 466 703.9 453.6 744.4 372.9 783.9 454.2 873.2 467.7 808.1 530.3"></polygon>
                <polygon id="Path" fill="#FFBE55" points="537 619.5 457.3 576.9 377.1 618.4 393 529.5 328.7 466 418.2 453.6 458.7 372.9 498.1 454.2 587.4 467.7 522.3 530.3"></polygon>
                <polygon id="Path" fill="#FFBE55" points="251.2 619.5 171.5 576.9 91.3 618.4 107.2 529.5 42.9 466 132.4 453.6 172.9 372.9 212.3 454.2 301.6 467.7 236.5 530.3"></polygon>
            </g>
            <g id="Person_with_Star" transform="translate(1361.000000, 408.000000)">
                <path d="M110.8,668.8 C106,638 99.8,597.2 99.1,589.4 C98,576.4 108.8,453.8 108.8,453.8 L59.2,447.2 C59.2,447.2 61.2,554.8 68.8,587.8 C73.5,608.3 84,644.2 91.3,668.4 C97.6,669.4 104.2,669 110.8,668.8 Z" id="Path" fill="#0B4870"></path>
                <path d="M113.9,688.8 C113,683.1 111.9,676.2 110.8,668.7 C104.2,668.9 97.6,669.3 91.4,668.3 C94.1,677.1 96.3,684.4 97.7,688.8 C103.1,689 108.5,689.4 113.9,688.8 Z" id="Path" fill="#FFE3CA"></path>
                <path d="M97.6,688.9 C98.5,691.9 99,693.6 99,693.6 L66.1,704.4 L116.3,704.4 C116.3,704.4 115.3,698.3 113.9,688.8 C108.5,689.4 103.1,689 97.6,688.9 Z" id="Path" fill="#0B4870"></path>
                <path d="M173.2,674.5 C175.7,681.3 177.6,686.6 178.7,689.5 C184.9,688.6 191.3,687.3 197,684.9 C195.7,680.4 194.1,675.4 192.5,670 C186,672.1 179.3,674.7 173.2,674.5 Z" id="Path" fill="#FFE3CA"></path>
                <path d="M179.6,692 L151,704.4 L202.8,704.4 C202.8,704.4 200.5,696.5 197,684.9 C191.3,687.2 185,688.5 178.7,689.5 C179.2,691.1 179.6,692 179.6,692 Z" id="Path" fill="#0B4870"></path>
                <path d="M192.5,670.1 C183.2,639.3 170.3,597.8 166.6,590.5 C160.7,578.6 133.7,442.5 133.7,442.5 L82.4,440.3 C82.4,440.3 125.1,570.5 141.8,601.2 C152.8,621.5 165.7,654.3 173.2,674.5 C179.3,674.7 186,672.1 192.5,670.1 Z" id="Path" fill="#0B4870"></path>
                <path d="M114.2,308 C114.2,308 83.4,336.6 105,347.4 L93.7,363.1 C93.7,363.1 108.8,377.7 126.1,366.3 C126.1,366.3 123.4,361.4 131.5,350.1 C139.6,338.8 139.6,325.3 139.6,325.3 L114.2,308 Z" id="Path" fill="#FFE3CA"></path>
                <path d="M109.9,306.4 C109.9,306.4 118,325.3 128.8,324.2 C128.8,324.2 118,331.2 116.9,336.1 C116.9,336.1 100.2,326.4 95.8,330.7 C91.5,335 89.3,349.6 98.5,350.7 C107.7,351.8 112.5,351.2 117.9,348 C123.3,344.8 124.4,341 126,338.3 C127.6,335.6 129.8,332.4 131.4,334.5 C133,336.7 128.2,345.3 127.1,345.3 C126,345.3 127.2,357.5 127.2,357.5 C127.2,357.5 135.8,345.8 139.6,343.1 C143.4,340.4 149.9,325.3 142.3,319.9 C134.7,314.5 115.8,292.3 109.9,306.4 Z" id="Path" fill="#0E538C"></path>
                <path d="M97.7,357.5 C90.7,360.9 83.1,366 76.2,373.5 C48.7,403.7 58.1,447.6 59.6,453.9 C68,456.4 78.6,458.8 91.1,459.6 C111.5,460.9 128.3,457.3 139.6,453.9 C139.6,453.9 136.4,450.7 138,431.2 C139.6,411.7 131.8,367.2 125.7,363.3 C119.6,359.3 97.7,357.5 97.7,357.5 Z" id="Path" fill="#2A94F4"></path>
                <path d="M60.2,362.5 C60.2,362.5 31.2,312.8 25.6,294.5 C20,276.2 23.3,213 23.3,213 L36.7,211.4 C36.7,211.4 35.8,276.7 45.5,291.3 C55.2,305.9 83.8,355.6 83.8,355.6 L60.2,362.5 Z" id="Path" fill="#FFE3CA"></path>
                <path d="M53.2,363.1 L84.5,341.5 C84.5,341.5 100.7,363.1 92.1,375 C83.5,386.9 53.2,363.1 53.2,363.1 Z" id="Path" fill="#2A94F4"></path>
                <path d="M153.5,382 C153.5,382 182.5,332.3 188.1,314 C193.6,295.6 190.4,232.5 190.4,232.5 L177,230.9 C177,230.9 177.9,296.2 168.2,310.8 C158.5,325.4 129.9,375.1 129.9,375.1 L153.5,382 Z" id="Path" fill="#FFE3CA"></path>
                <path d="M160.5,382.5 L129.2,360.9 C129.2,360.9 113,382.5 121.6,394.4 C130.2,406.3 160.5,382.5 160.5,382.5 Z" id="Path" fill="#2A94F4"></path>
                <polygon id="Path" fill="#FFBE55" points="181.6 255.9 109.6 201.3 23.9 229.6 53.6 144.3 0.1 71.5 90.4 73.4 143.2 0 169.3 86.5 255.3 114 181.2 165.6"></polygon>
                <path d="M23.5,213 C23.5,213 26.2,193 39.2,192.5 C52.2,192 46.8,202.2 44.1,203.8 C41.4,205.4 29.8,213 29.8,213 L23.5,213 Z" id="Path" fill="#FFE3CA"></path>
                <path d="M190.3,232.4 C190.3,232.4 188.7,213.5 177.9,213 C167.1,212.5 167.6,222.2 171.4,225.4 C175.2,228.6 180.8,232.4 180.8,232.4 L190.3,232.4 Z" id="Path" fill="#FFE3CA"></path>
            </g>
        </g>
    </g>
</svg>